<svg xmlns="http://www.w3.org/2000/svg" xmlns:xlink="http://www.w3.org/1999/xlink" viewBox="0 0 1600 1600" width="1600" height="1600" preserveAspectRatio="xMidYMid meet" style="width: 100%; height: 100%; transform: translate3d(0px, 0px, 0px); content-visibility: visible;"><defs><clipPath id="__lottie_element_2"><rect width="1600" height="1600" x="0" y="0"></rect></clipPath><clipPath id="__lottie_element_59"><path d="M0,0 L1600,0 L1600,1600 L0,1600z"></path></clipPath><clipPath id="__lottie_element_120"><path d="M0,0 L1600,0 L1600,1600 L0,1600z"></path></clipPath></defs><g clip-path="url(#__lottie_element_2)"><g clip-path="url(#__lottie_element_120)" transform="matrix(1,0,0,1,0,0)" opacity="1" style="display: block;"><g transform="matrix(1,0,0,1,278.5469970703125,624.0159912109375)" opacity="1" style="display: block;"><g opacity="1" transform="matrix(1,0,0,1,0,0)"><path fill="rgb(255,255,255)" fill-opacity="1" d=" M13.697999954223633,0 C13.697999954223633,7.565000057220459 7.565000057220459,13.697999954223633 0,13.697999954223633 C-7.565000057220459,13.697999954223633 -13.697999954223633,7.565000057220459 -13.697999954223633,0 C-13.697999954223633,-7.565000057220459 -7.565000057220459,-13.697999954223633 0,-13.697999954223633 C7.565000057220459,-13.697999954223633 13.697999954223633,-7.565000057220459 13.697999954223633,0z"></path><path stroke-linecap="round" stroke-linejoin="round" fill-opacity="0" stroke="rgb(32,40,112)" stroke-opacity="1" stroke-width="2" d=" M13.697999954223633,0 C13.697999954223633,7.565000057220459 7.565000057220459,13.697999954223633 0,13.697999954223633 C-7.565000057220459,13.697999954223633 -13.697999954223633,7.565000057220459 -13.697999954223633,0 C-13.697999954223633,-7.565000057220459 -7.565000057220459,-13.697999954223633 0,-13.697999954223633 C7.565000057220459,-13.697999954223633 13.697999954223633,-7.565000057220459 13.697999954223633,0z"></path></g></g><g transform="matrix(1,0,0,1,334.0450134277344,745.4970092773438)" opacity="1" style="display: block;"><g opacity="1" transform="matrix(1,0,0,1,0,0)"><path fill="rgb(32,40,112)" fill-opacity="1" d=" M7.260000228881836,0 C7.260000228881836,4.010000228881836 4.010000228881836,7.260000228881836 0,7.260000228881836 C-4.010000228881836,7.260000228881836 -7.260000228881836,4.010000228881836 -7.260000228881836,0 C-7.260000228881836,-4.010000228881836 -4.010000228881836,-7.260000228881836 0,-7.260000228881836 C4.010000228881836,-7.260000228881836 7.260000228881836,-4.010000228881836 7.260000228881836,0z"></path><path stroke-linecap="round" stroke-linejoin="round" fill-opacity="0" stroke="rgb(32,40,112)" stroke-opacity="1" stroke-width="2" d=" M7.260000228881836,0 C7.260000228881836,4.010000228881836 4.010000228881836,7.260000228881836 0,7.260000228881836 C-4.010000228881836,7.260000228881836 -7.260000228881836,4.010000228881836 -7.260000228881836,0 C-7.260000228881836,-4.010000228881836 -4.010000228881836,-7.260000228881836 0,-7.260000228881836 C4.010000228881836,-7.260000228881836 7.260000228881836,-4.010000228881836 7.260000228881836,0z"></path></g></g><g transform="matrix(1,0,0,1,428.6709899902344,599.72998046875)" opacity="1" style="display: block;"><g opacity="1" transform="matrix(1,0,0,1,0,0)"><path fill="rgb(132,132,250)" fill-opacity="1" d=" M14.031999588012695,0 C14.031999588012695,7.75 7.75,14.031999588012695 0,14.031999588012695 C-7.75,14.031999588012695 -14.031999588012695,7.75 -14.031999588012695,0 C-14.031999588012695,-7.75 -7.75,-14.031999588012695 0,-14.031999588012695 C7.75,-14.031999588012695 14.031999588012695,-7.75 14.031999588012695,0z"></path><path stroke-linecap="round" stroke-linejoin="round" fill-opacity="0" stroke="rgb(32,40,112)" stroke-opacity="1" stroke-width="2" d=" M14.031999588012695,0 C14.031999588012695,7.75 7.75,14.031999588012695 0,14.031999588012695 C-7.75,14.031999588012695 -14.031999588012695,7.75 -14.031999588012695,0 C-14.031999588012695,-7.75 -7.75,-14.031999588012695 0,-14.031999588012695 C7.75,-14.031999588012695 14.031999588012695,-7.75 14.031999588012695,0z"></path></g></g><g transform="matrix(1,0,0,1,212.10400390625,933.2979736328125)" opacity="1" style="display: block;"><g opacity="1" transform="matrix(1,0,0,1,0,0)"><path fill="rgb(255,255,255)" fill-opacity="1" d=" M6.565999984741211,0 C6.565999984741211,3.625999927520752 3.625999927520752,6.565999984741211 0,6.565999984741211 C-3.625999927520752,6.565999984741211 -6.565999984741211,3.625999927520752 -6.565999984741211,0 C-6.565999984741211,-3.625999927520752 -3.625999927520752,-6.565999984741211 0,-6.565999984741211 C3.625999927520752,-6.565999984741211 6.565999984741211,-3.625999927520752 6.565999984741211,0z"></path><path stroke-linecap="round" stroke-linejoin="round" fill-opacity="0" stroke="rgb(32,40,112)" stroke-opacity="1" stroke-width="2" d=" M6.565999984741211,0 C6.565999984741211,3.625999927520752 3.625999927520752,6.565999984741211 0,6.565999984741211 C-3.625999927520752,6.565999984741211 -6.565999984741211,3.625999927520752 -6.565999984741211,0 C-6.565999984741211,-3.625999927520752 -3.625999927520752,-6.565999984741211 0,-6.565999984741211 C3.625999927520752,-6.565999984741211 6.565999984741211,-3.625999927520752 6.565999984741211,0z"></path></g></g><g transform="matrix(1,0,0,1,878.302978515625,596.8179931640625)" opacity="1" style="display: block;"><g opacity="1" transform="matrix(1,0,0,1,0,0)"><path fill="rgb(255,255,255)" fill-opacity="1" d=" M17.29400062561035,0 C17.29400062561035,9.550999641418457 9.550999641418457,17.29400062561035 0,17.29400062561035 C-9.550999641418457,17.29400062561035 -17.29400062561035,9.550999641418457 -17.29400062561035,0 C-17.29400062561035,-9.550999641418457 -9.550999641418457,-17.29400062561035 0,-17.29400062561035 C9.550999641418457,-17.29400062561035 17.29400062561035,-9.550999641418457 17.29400062561035,0z"></path><path stroke-linecap="round" stroke-linejoin="round" fill-opacity="0" stroke="rgb(32,40,112)" stroke-opacity="1" stroke-width="2" d=" M17.29400062561035,0 C17.29400062561035,9.550999641418457 9.550999641418457,17.29400062561035 0,17.29400062561035 C-9.550999641418457,17.29400062561035 -17.29400062561035,9.550999641418457 -17.29400062561035,0 C-17.29400062561035,-9.550999641418457 -9.550999641418457,-17.29400062561035 0,-17.29400062561035 C9.550999641418457,-17.29400062561035 17.29400062561035,-9.550999641418457 17.29400062561035,0z"></path></g></g><g transform="matrix(1,0,0,1,1411.89501953125,772.8590087890625)" opacity="1" style="display: block;"><g opacity="1" transform="matrix(1,0,0,1,0,0)"><path fill="rgb(32,40,112)" fill-opacity="1" d=" M9.244999885559082,0 C9.244999885559082,5.105999946594238 5.105999946594238,9.244999885559082 0,9.244999885559082 C-5.105999946594238,9.244999885559082 -9.244999885559082,5.105999946594238 -9.244999885559082,0 C-9.244999885559082,-5.105999946594238 -5.105999946594238,-9.244999885559082 0,-9.244999885559082 C5.105999946594238,-9.244999885559082 9.244999885559082,-5.105999946594238 9.244999885559082,0z"></path><path stroke-linecap="round" stroke-linejoin="round" fill-opacity="0" stroke="rgb(32,40,112)" stroke-opacity="1" stroke-width="2" d=" M9.244999885559082,0 C9.244999885559082,5.105999946594238 5.105999946594238,9.244999885559082 0,9.244999885559082 C-5.105999946594238,9.244999885559082 -9.244999885559082,5.105999946594238 -9.244999885559082,0 C-9.244999885559082,-5.105999946594238 -5.105999946594238,-9.244999885559082 0,-9.244999885559082 C5.105999946594238,-9.244999885559082 9.244999885559082,-5.105999946594238 9.244999885559082,0z"></path></g></g><g transform="matrix(1,0,0,1,1357.0389404296875,637.6229858398438)" opacity="1" style="display: block;"><g opacity="1" transform="matrix(1,0,0,1,0,0)"><path fill="rgb(255,255,255)" fill-opacity="1" d=" M9.895000457763672,0 C9.895000457763672,5.465000152587891 5.465000152587891,9.895000457763672 0,9.895000457763672 C-5.465000152587891,9.895000457763672 -9.895000457763672,5.465000152587891 -9.895000457763672,0 C-9.895000457763672,-5.465000152587891 -5.465000152587891,-9.895000457763672 0,-9.895000457763672 C5.465000152587891,-9.895000457763672 9.895000457763672,-5.465000152587891 9.895000457763672,0z"></path><path stroke-linecap="round" stroke-linejoin="round" fill-opacity="0" stroke="rgb(32,40,112)" stroke-opacity="1" stroke-width="2" d=" M9.895000457763672,0 C9.895000457763672,5.465000152587891 5.465000152587891,9.895000457763672 0,9.895000457763672 C-5.465000152587891,9.895000457763672 -9.895000457763672,5.465000152587891 -9.895000457763672,0 C-9.895000457763672,-5.465000152587891 -5.465000152587891,-9.895000457763672 0,-9.895000457763672 C5.465000152587891,-9.895000457763672 9.895000457763672,-5.465000152587891 9.895000457763672,0z"></path></g></g><g transform="matrix(1,0,0,1,1390.509033203125,372.3080139160156)" opacity="1" style="display: block;"><g opacity="1" transform="matrix(1,0,0,1,0,0)"><path fill="rgb(255,255,255)" fill-opacity="1" d=" M11.456000328063965,0 C11.456000328063965,6.327000141143799 6.327000141143799,11.456000328063965 0,11.456000328063965 C-6.327000141143799,11.456000328063965 -11.456000328063965,6.327000141143799 -11.456000328063965,0 C-11.456000328063965,-6.327000141143799 -6.327000141143799,-11.456000328063965 0,-11.456000328063965 C6.327000141143799,-11.456000328063965 11.456000328063965,-6.327000141143799 11.456000328063965,0z"></path><path stroke-linecap="round" stroke-linejoin="round" fill-opacity="0" stroke="rgb(32,40,112)" stroke-opacity="1" stroke-width="2" d=" M11.456000328063965,0 C11.456000328063965,6.327000141143799 6.327000141143799,11.456000328063965 0,11.456000328063965 C-6.327000141143799,11.456000328063965 -11.456000328063965,6.327000141143799 -11.456000328063965,0 C-11.456000328063965,-6.327000141143799 -6.327000141143799,-11.456000328063965 0,-11.456000328063965 C6.327000141143799,-11.456000328063965 11.456000328063965,-6.327000141143799 11.456000328063965,0z"></path></g></g><g transform="matrix(1,0,0,1,1461.1739501953125,1030.1700439453125)" opacity="1" style="display: block;"><g opacity="1" transform="matrix(1,0,0,1,0,0)"><path fill="rgb(132,132,250)" fill-opacity="1" d=" M20.461000442504883,0 C20.461000442504883,11.300000190734863 11.300000190734863,20.461000442504883 0,20.461000442504883 C-11.300000190734863,20.461000442504883 -20.461000442504883,11.300000190734863 -20.461000442504883,0 C-20.461000442504883,-11.300000190734863 -11.300000190734863,-20.461000442504883 0,-20.461000442504883 C11.300000190734863,-20.461000442504883 20.461000442504883,-11.300000190734863 20.461000442504883,0z"></path><path stroke-linecap="round" stroke-linejoin="round" fill-opacity="0" stroke="rgb(32,40,112)" stroke-opacity="1" stroke-width="2" d=" M20.461000442504883,0 C20.461000442504883,11.300000190734863 11.300000190734863,20.461000442504883 0,20.461000442504883 C-11.300000190734863,20.461000442504883 -20.461000442504883,11.300000190734863 -20.461000442504883,0 C-20.461000442504883,-11.300000190734863 -11.300000190734863,-20.461000442504883 0,-20.461000442504883 C11.300000190734863,-20.461000442504883 20.461000442504883,-11.300000190734863 20.461000442504883,0z"></path></g></g></g><g transform="matrix(1,0,0,1,827.7030029296875,1235.4580078125)" opacity="1" style="display: block;"><g opacity="1" transform="matrix(1,0,0,1,0,0)"><path stroke-linecap="round" stroke-linejoin="round" fill-opacity="0" stroke="rgb(32,40,112)" stroke-opacity="1" stroke-width="2" d=" M-676.5280151367188,0 C-676.5280151367188,0 676.5280151367188,0 676.5280151367188,0"></path></g></g><g transform="matrix(1,0,0,1,0,-2)" opacity="1" style="display: block;"><g opacity="1" transform="matrix(1,0,0,1,1240.343994140625,831.9859619140625)"><path fill="rgb(132,132,250)" fill-opacity="1" d=" M-74.37699890136719,403.47198486328125 C-74.37699890136719,403.47198486328125 74.37699890136719,403.47198486328125 74.37699890136719,403.47198486328125 C74.37699890136719,403.47198486328125 74.37699890136719,-403.47198486328125 74.37699890136719,-403.47198486328125 C74.37699890136719,-403.47198486328125 -74.37699890136719,-403.47198486328125 -74.37699890136719,-403.47198486328125 C-74.37699890136719,-403.47198486328125 -74.37699890136719,403.47198486328125 -74.37699890136719,403.47198486328125z"></path><path stroke-linecap="round" stroke-linejoin="round" fill-opacity="0" stroke="rgb(32,40,112)" stroke-opacity="1" stroke-width="2" d=" M-74.37699890136719,403.47198486328125 C-74.37699890136719,403.47198486328125 74.37699890136719,403.47198486328125 74.37699890136719,403.47198486328125 C74.37699890136719,403.47198486328125 74.37699890136719,-403.47198486328125 74.37699890136719,-403.47198486328125 C74.37699890136719,-403.47198486328125 -74.37699890136719,-403.47198486328125 -74.37699890136719,-403.47198486328125 C-74.37699890136719,-403.47198486328125 -74.37699890136719,403.47198486328125 -74.37699890136719,403.47198486328125z"></path></g><g opacity="1" transform="matrix(1,0,0,1,1240.344970703125,949.2120361328125)"><path fill="rgb(249,74,130)" fill-opacity="1" d=" M-74.37699890136719,286.24700927734375 C-74.37699890136719,286.24700927734375 74.37699890136719,286.24700927734375 74.37699890136719,286.24700927734375 C74.37699890136719,286.24700927734375 74.37699890136719,-286.24700927734375 74.37699890136719,-286.24700927734375 C74.37699890136719,-286.24700927734375 -74.37699890136719,-286.24700927734375 -74.37699890136719,-286.24700927734375 C-74.37699890136719,-286.24700927734375 -74.37699890136719,286.24700927734375 -74.37699890136719,286.24700927734375z"></path><path stroke-linecap="round" stroke-linejoin="round" fill-opacity="0" stroke="rgb(32,40,112)" stroke-opacity="1" stroke-width="2" d=" M-74.37699890136719,286.24700927734375 C-74.37699890136719,286.24700927734375 74.37699890136719,286.24700927734375 74.37699890136719,286.24700927734375 C74.37699890136719,286.24700927734375 74.37699890136719,-286.24700927734375 74.37699890136719,-286.24700927734375 C74.37699890136719,-286.24700927734375 -74.37699890136719,-286.24700927734375 -74.37699890136719,-286.24700927734375 C-74.37699890136719,-286.24700927734375 -74.37699890136719,286.24700927734375 -74.37699890136719,286.24700927734375z"></path></g></g><g transform="matrix(1,0,0,1,0,0)" opacity="1" style="display: block;"><g opacity="1" transform="matrix(1,0,0,1,0,0)"><g opacity="1" transform="matrix(1,0,0,1,1056.947021484375,891.9859619140625)"><path fill="rgb(132,132,250)" fill-opacity="1" d=" M-74.37699890136719,343.47198486328125 C-74.37699890136719,343.47198486328125 74.37699890136719,343.47198486328125 74.37699890136719,343.47198486328125 C74.37699890136719,343.47198486328125 74.37699890136719,-343.47198486328125 74.37699890136719,-343.47198486328125 C74.37699890136719,-343.47198486328125 -74.37699890136719,-343.47198486328125 -74.37699890136719,-343.47198486328125 C-74.37699890136719,-343.47198486328125 -74.37699890136719,343.47198486328125 -74.37699890136719,343.47198486328125z"></path><path stroke-linecap="round" stroke-linejoin="round" fill-opacity="0" stroke="rgb(32,40,112)" stroke-opacity="1" stroke-width="2" d=" M-74.37699890136719,343.47198486328125 C-74.37699890136719,343.47198486328125 74.37699890136719,343.47198486328125 74.37699890136719,343.47198486328125 C74.37699890136719,343.47198486328125 74.37699890136719,-343.47198486328125 74.37699890136719,-343.47198486328125 C74.37699890136719,-343.47198486328125 -74.37699890136719,-343.47198486328125 -74.37699890136719,-343.47198486328125 C-74.37699890136719,-343.47198486328125 -74.37699890136719,343.47198486328125 -74.37699890136719,343.47198486328125z"></path></g></g></g><g clip-path="url(#__lottie_element_59)" transform="matrix(1,0,0,1,0,0)" opacity="1" style="display: block;"><g transform="matrix(0.9992488026618958,-0.03875405713915825,0.03875405713915825,0.9992488026618958,-40.0599365234375,28.9317626953125)" opacity="1" style="display: block;"><g opacity="1" transform="matrix(1,0,0,1,1053.8740234375,975.5440063476562)"><path stroke-linecap="round" stroke-linejoin="round" fill-opacity="0" stroke="rgb(255,255,255)" stroke-opacity="1" stroke-width="2" d=" M2.259999990463257,-78.33100128173828 C2.259999990463257,-78.33100128173828 -0.024000000208616257,-3.5339999198913574 -0.07400000095367432,12.711000442504883 C-0.12399999797344208,28.95599937438965 -0.4580000042915344,78.572998046875 -0.4580000042915344,78.572998046875"></path></g></g><g transform="matrix(0.9884939193725586,-0.15126082301139832,0.15126082301139832,0.9884939193725586,-129.5839080810547,157.4042510986328)" opacity="1" style="display: block;"><g opacity="1" transform="matrix(1,0,0,1,1050.8929443359375,880.2650146484375)"><path stroke-linecap="round" stroke-linejoin="round" fill-opacity="0" stroke="rgb(255,255,255)" stroke-opacity="1" stroke-width="2" d=" M31.871999740600586,-12.017999649047852 C31.871999740600586,-12.017999649047852 5.242000102996826,16.948999404907227 5.242000102996826,16.948999404907227 C5.242000102996826,16.948999404907227 -26.76300048828125,-17.232999801635742 -26.76300048828125,-17.232999801635742"></path></g></g><g transform="matrix(0.9824569225311279,-0.1864897459745407,0.1864897459745407,0.9824569225311279,-153.8100128173828,198.74160766601562)" opacity="1" style="display: block;"><g opacity="1" transform="matrix(1,0,0,1,1006.718017578125,863.0709838867188)"><path fill="rgb(255,255,255)" fill-opacity="1" d=" M19.06599998474121,0.27000001072883606 C19.06599998474121,0.27000001072883606 11.053999900817871,9.114999771118164 1.9769999980926514,8.480999946594238 C-7.099999904632568,7.8470001220703125 -13.803999900817871,-2.0260000228881836 -13.803999900817871,-2.0260000228881836 C-13.803999900817871,-2.0260000228881836 -5.791999816894531,-10.871000289916992 3.2850000858306885,-10.237000465393066 C12.362000465393066,-9.602999687194824 19.06599998474121,0.27000001072883606 19.06599998474121,0.27000001072883606z"></path></g></g><g transform="matrix(0.9930950999259949,-0.11731207370758057,0.11731207370758057,0.9930950999259949,-105.04666900634766,116.68384552001953)" opacity="1" style="display: block;"><g opacity="1" transform="matrix(1,0,0,1,1086.052001953125,853.6119995117188)"><path fill="rgb(255,255,255)" fill-opacity="1" d=" M-4.360000133514404,15.843000411987305 C-4.360000133514404,15.843000411987305 -9.586999893188477,5.116000175476074 -5.620999813079834,-3.072999954223633 C-1.6549999713897705,-11.26200008392334 10.003999710083008,-13.810999870300293 10.003999710083008,-13.810999870300293 C10.003999710083008,-13.810999870300293 15.230999946594238,-3.0829999446868896 11.265000343322754,5.105999946594238 C7.298999786376953,13.295000076293945 -4.360000133514404,15.843000411987305 -4.360000133514404,15.843000411987305z"></path></g></g><g transform="matrix(0.992982029914856,-0.11826532334089279,0.11826532334089279,0.992982029914856,-106.75535583496094,119.53860473632812)" opacity="1" style="display: block;"><g opacity="1" transform="matrix(1,0,0,1,1031.8909912109375,836.8300170898438)"><path fill="rgb(255,255,255)" fill-opacity="1" d=" M4.2230000495910645,16.179000854492188 C4.2230000495910645,16.179000854492188 -5.579999923706055,9.373000144958496 -6.119999885559082,0.28999999165534973 C-6.659999847412109,-8.793000221252441 2.2669999599456787,-16.711999893188477 2.2669999599456787,-16.711999893188477 C2.2669999599456787,-16.711999893188477 12.069999694824219,-9.906999588012695 12.609999656677246,-0.8240000009536743 C13.149999618530273,8.258999824523926 4.2230000495910645,16.179000854492188 4.2230000495910645,16.179000854492188z"></path></g></g><g transform="matrix(0.9838757514953613,-0.17885373532772064,0.17885373532772064,0.9838757514953613,-148.99771118164062,190.07887268066406)" opacity="1" style="display: block;"><g opacity="1" transform="matrix(1,0,0,1,1033.81298828125,863.2239990234375)"><path stroke-linecap="round" stroke-linejoin="round" fill-opacity="0" stroke="rgb(255,255,255)" stroke-opacity="1" stroke-width="2" d=" M1.6950000524520874,-14.440999984741211 C1.6950000524520874,-14.440999984741211 3.5369999408721924,13.97700023651123 3.5369999408721924,13.97700023651123"></path></g></g><g transform="matrix(0.9903916120529175,-0.138291597366333,0.138291597366333,0.9903916120529175,-119.7004623413086,141.68536376953125)" opacity="1" style="display: block;"><g opacity="1" transform="matrix(1,0,0,1,1054.012939453125,850.4080200195312)"><path fill="rgb(255,255,255)" fill-opacity="1" d=" M6.041999816894531,16.429000854492188 C6.041999816894531,16.429000854492188 -4.568999767303467,10.970000267028809 -6.297999858856201,2.0369999408721924 C-8.027000427246094,-6.895999908447266 -0.21799999475479126,-15.920000076293945 -0.21799999475479126,-15.920000076293945 C-0.21799999475479126,-15.920000076293945 10.394000053405762,-10.461000442504883 12.123000144958496,-1.527999997138977 C13.85200023651123,7.40500020980835 6.041999816894531,16.429000854492188 6.041999816894531,16.429000854492188z"></path></g></g><g transform="matrix(0.9932923316955566,-0.1156306266784668,0.1156306266784668,0.9932923316955566,-103.13139343261719,115.15406799316406)" opacity="1" style="display: block;"><g opacity="1" transform="matrix(1,0,0,1,1060.5889892578125,874.468994140625)"><path stroke-linecap="round" stroke-linejoin="round" fill-opacity="0" stroke="rgb(255,255,255)" stroke-opacity="1" stroke-width="2" d=" M-1.2109999656677246,-10.744999885559082 C-1.2109999656677246,-10.744999885559082 5.883999824523926,11.545999526977539 5.883999824523926,11.545999526977539"></path></g></g><g transform="matrix(0.9986954927444458,-0.051063574850559235,0.051063574850559235,0.9986954927444458,-52.612693786621094,40.44417190551758)" opacity="1" style="display: block;"><g opacity="1" transform="matrix(1,0,0,1,1104.2080078125,874.666015625)"><path fill="rgb(255,255,255)" fill-opacity="1" d=" M-14.013999938964844,3.6429998874664307 C-14.013999938964844,3.6429998874664307 -7.959000110626221,-6.640999794006348 1.0579999685287476,-7.857999801635742 C10.074999809265137,-9.074999809265137 18.638999938964844,-0.7639999985694885 18.638999938964844,-0.7639999985694885 C18.638999938964844,-0.7639999985694885 12.583999633789062,9.520000457763672 3.566999912261963,10.737000465393066 C-5.449999809265137,11.954000473022461 -14.013999938964844,3.6429998874664307 -14.013999938964844,3.6429998874664307z"></path></g></g><g transform="matrix(0.9972437024116516,-0.07419551908969879,0.07419551908969879,0.9972437024116516,-71.3386001586914,66.94786834716797)" opacity="1" style="display: block;"><g opacity="1" transform="matrix(1,0,0,1,1082.93701171875,876.8109741210938)"><path stroke-linecap="round" stroke-linejoin="round" fill-opacity="0" stroke="rgb(255,255,255)" stroke-opacity="1" stroke-width="2" d=" M13.373000144958496,0.8320000171661377 C13.373000144958496,0.8320000171661377 -8.831999778747559,1.031999945640564 -8.831999778747559,1.031999945640564"></path></g></g><g transform="matrix(0.9999921917915344,0.003944434225559235,-0.003944434225559235,0.9999921917915344,-2.31663179397583,-16.245576858520508)" opacity="1" style="display: block;"><g opacity="1" transform="matrix(1,0,0,1,1027.31396484375,890.8380126953125)"><path fill="rgb(255,255,255)" fill-opacity="1" d=" M-10.53600025177002,-11.135000228881836 C-10.53600025177002,-11.135000228881836 1.1720000505447388,-13.444000244140625 8.074000358581543,-7.514999866485596 C14.975000381469727,-1.5859999656677246 14.456999778747559,10.336000442504883 14.456999778747559,10.336000442504883 C14.456999778747559,10.336000442504883 2.749000072479248,12.645999908447266 -4.1529998779296875,6.7170000076293945 C-11.055000305175781,0.7879999876022339 -10.53600025177002,-11.135000228881836 -10.53600025177002,-11.135000228881836z"></path></g></g><g transform="matrix(0.9993142485618591,-0.037027422338724136,0.037027422338724136,0.9993142485618591,-38.551307678222656,27.049373626708984)" opacity="1" style="display: block;"><g opacity="1" transform="matrix(1,0,0,1,1045.532958984375,905.8939819335938)"><path stroke-linecap="round" stroke-linejoin="round" fill-opacity="0" stroke="rgb(255,255,255)" stroke-opacity="1" stroke-width="2" d=" M-6.828000068664551,-7.8429999351501465 C-6.828000068664551,-7.8429999351501465 10.015999794006348,7.900000095367432 10.015999794006348,7.900000095367432"></path></g></g><g transform="matrix(0.9972372055053711,0.07428254187107086,-0.07428254187107086,0.9972372055053711,66.28400421142578,-89.138916015625)" opacity="1" style="display: block;"><g opacity="1" transform="matrix(1,0,0,1,1083.095947265625,907.0289916992188)"><path fill="rgb(255,255,255)" fill-opacity="1" d=" M-12.79699993133545,9.020000457763672 C-12.79699993133545,9.020000457763672 -10.984000205993652,-2.7760000228881836 -3.059999942779541,-7.248000144958496 C4.863999843597412,-11.720000267028809 15.89799976348877,-7.175000190734863 15.89799976348877,-7.175000190734863 C15.89799976348877,-7.175000190734863 14.086000442504883,4.620999813079834 6.1620001792907715,9.093000411987305 C-1.7619999647140503,13.5649995803833 -12.79699993133545,9.020000457763672 -12.79699993133545,9.020000457763672z"></path></g></g><g transform="matrix(0.9993993639945984,0.03465529903769493,-0.03465529903769493,0.9993993639945984,27.686939239501953,-48.693729400634766)" opacity="1" style="display: block;"><g opacity="1" transform="matrix(1,0,0,1,1064.5860595703125,918.2520141601562)"><path stroke-linecap="round" stroke-linejoin="round" fill-opacity="0" stroke="rgb(255,255,255)" stroke-opacity="1" stroke-width="2" d=" M-9.050000190734863,6.7769999504089355 C-9.050000190734863,6.7769999504089355 11.633000373840332,-5.823999881744385 11.633000373840332,-5.823999881744385"></path></g></g><g transform="matrix(0.9942185878753662,-0.10737469047307968,0.10737469047307968,0.9942185878753662,-99.34835815429688,106.32951354980469)" opacity="1" style="display: block;"><g opacity="1" transform="matrix(1,0,0,1,1023.5000610351562,925.0139770507812)"><path fill="rgb(255,255,255)" fill-opacity="1" d=" M-14.284000396728516,-6.271999835968018 C-14.284000396728516,-6.271999835968018 -4.091000080108643,-12.477999687194824 4.432000160217285,-9.293000221252441 C12.954999923706055,-6.107999801635742 16.58099937438965,5.26200008392334 16.58099937438965,5.26200008392334 C16.58099937438965,5.26200008392334 6.38700008392334,11.468000411987305 -2.135999917984009,8.282999992370605 C-10.659000396728516,5.0980000495910645 -14.284000396728516,-6.271999835968018 -14.284000396728516,-6.271999835968018z"></path></g></g><g transform="matrix(0.9918233156204224,-0.12761856615543365,0.12761856615543365,0.9918233156204224,-115.6891098022461,129.61192321777344)" opacity="1" style="display: block;"><g opacity="1" transform="matrix(1,0,0,1,1045.322021484375,934.280029296875)"><path stroke-linecap="round" stroke-linejoin="round" fill-opacity="0" stroke="rgb(255,255,255)" stroke-opacity="1" stroke-width="2" d=" M-7.328000068664551,-4.872000217437744 C-7.328000068664551,-4.872000217437744 9.163999557495117,4.89300012588501 9.163999557495117,4.89300012588501"></path></g></g></g><g transform="matrix(1,0,0,1,0,0)" opacity="1" style="display: block;"><g opacity="1" transform="matrix(1,0,0,1,873.552001953125,951.9869384765625)"><path fill="rgb(132,132,250)" fill-opacity="1" d=" M-74.37699890136719,283.47198486328125 C-74.37699890136719,283.47198486328125 74.37699890136719,283.47198486328125 74.37699890136719,283.47198486328125 C74.37699890136719,283.47198486328125 74.37699890136719,-283.47198486328125 74.37699890136719,-283.47198486328125 C74.37699890136719,-283.47198486328125 -74.37699890136719,-283.47198486328125 -74.37699890136719,-283.47198486328125 C-74.37699890136719,-283.47198486328125 -74.37699890136719,283.47198486328125 -74.37699890136719,283.47198486328125z"></path><path stroke-linecap="round" stroke-linejoin="round" fill-opacity="0" stroke="rgb(32,40,112)" stroke-opacity="1" stroke-width="2" d=" M-74.37699890136719,283.47198486328125 C-74.37699890136719,283.47198486328125 74.37699890136719,283.47198486328125 74.37699890136719,283.47198486328125 C74.37699890136719,283.47198486328125 74.37699890136719,-283.47198486328125 74.37699890136719,-283.47198486328125 C74.37699890136719,-283.47198486328125 -74.37699890136719,-283.47198486328125 -74.37699890136719,-283.47198486328125 C-74.37699890136719,-283.47198486328125 -74.37699890136719,283.47198486328125 -74.37699890136719,283.47198486328125z"></path></g><g opacity="1" transform="matrix(1,0,0,1,873.552001953125,1177.2120361328125)"><path fill="rgb(249,74,130)" fill-opacity="1" d=" M-74.37699890136719,58.24700164794922 C-74.37699890136719,58.24700164794922 74.37699890136719,58.24700164794922 74.37699890136719,58.24700164794922 C74.37699890136719,58.24700164794922 74.37699890136719,-58.24700164794922 74.37699890136719,-58.24700164794922 C74.37699890136719,-58.24700164794922 -74.37699890136719,-58.24700164794922 -74.37699890136719,-58.24700164794922 C-74.37699890136719,-58.24700164794922 -74.37699890136719,58.24700164794922 -74.37699890136719,58.24700164794922z"></path><path stroke-linecap="round" stroke-linejoin="round" fill-opacity="0" stroke="rgb(32,40,112)" stroke-opacity="1" stroke-width="2" d=" M-74.37699890136719,58.24700164794922 C-74.37699890136719,58.24700164794922 74.37699890136719,58.24700164794922 74.37699890136719,58.24700164794922 C74.37699890136719,58.24700164794922 74.37699890136719,-58.24700164794922 74.37699890136719,-58.24700164794922 C74.37699890136719,-58.24700164794922 -74.37699890136719,-58.24700164794922 -74.37699890136719,-58.24700164794922 C-74.37699890136719,-58.24700164794922 -74.37699890136719,58.24700164794922 -74.37699890136719,58.24700164794922z"></path></g></g><g transform="matrix(1,0,0,1,690.155029296875,1011.9860229492188)" opacity="1" style="display: block;"><g opacity="1" transform="matrix(1,0,0,1,0,0)"><path fill="rgb(132,132,250)" fill-opacity="1" d=" M-74.37699890136719,223.4720001220703 C-74.37699890136719,223.4720001220703 74.37699890136719,223.4720001220703 74.37699890136719,223.4720001220703 C74.37699890136719,223.4720001220703 74.37699890136719,-223.4720001220703 74.37699890136719,-223.4720001220703 C74.37699890136719,-223.4720001220703 -74.37699890136719,-223.4720001220703 -74.37699890136719,-223.4720001220703 C-74.37699890136719,-223.4720001220703 -74.37699890136719,223.4720001220703 -74.37699890136719,223.4720001220703z"></path><path stroke-linecap="round" stroke-linejoin="round" fill-opacity="0" stroke="rgb(32,40,112)" stroke-opacity="1" stroke-width="2" d=" M-74.37699890136719,223.4720001220703 C-74.37699890136719,223.4720001220703 74.37699890136719,223.4720001220703 74.37699890136719,223.4720001220703 C74.37699890136719,223.4720001220703 74.37699890136719,-223.4720001220703 74.37699890136719,-223.4720001220703 C74.37699890136719,-223.4720001220703 -74.37699890136719,-223.4720001220703 -74.37699890136719,-223.4720001220703 C-74.37699890136719,-223.4720001220703 -74.37699890136719,223.4720001220703 -74.37699890136719,223.4720001220703z"></path></g></g><g transform="matrix(0.9999883770942688,-0.00481708999723196,0.00481708999723196,0.9999883770942688,-5.5635986328125,3.549072265625)" opacity="1" style="display: block;"><g opacity="1" transform="matrix(1,0,0,1,409.86199951171875,1156.717041015625)"><path fill="rgb(132,132,250)" fill-opacity="1" d=" M78.3239974975586,-0.3330000042915344 C78.50800323486328,42.92399978637695 43.59000015258789,78.13999938964844 0.3330000042915344,78.3239974975586 C-42.92399978637695,78.50800323486328 -78.13999938964844,43.59000015258789 -78.3239974975586,0.3330000042915344 C-78.50800323486328,-42.92399978637695 -43.59000015258789,-78.13999938964844 -0.3330000042915344,-78.3239974975586 C42.92399978637695,-78.50800323486328 78.13999938964844,-43.59000015258789 78.3239974975586,-0.3330000042915344z"></path><path stroke-linecap="round" stroke-linejoin="round" fill-opacity="0" stroke="rgb(32,40,112)" stroke-opacity="1" stroke-width="2" d=" M78.3239974975586,-0.3330000042915344 C78.50800323486328,42.92399978637695 43.59000015258789,78.13999938964844 0.3330000042915344,78.3239974975586 C-42.92399978637695,78.50800323486328 -78.13999938964844,43.59000015258789 -78.3239974975586,0.3330000042915344 C-78.50800323486328,-42.92399978637695 -43.59000015258789,-78.13999938964844 -0.3330000042915344,-78.3239974975586 C42.92399978637695,-78.50800323486328 78.13999938964844,-43.59000015258789 78.3239974975586,-0.3330000042915344z"></path></g><g opacity="1" transform="matrix(1,0,0,1,303.7430114746094,1156.1490478515625)"><path fill="rgb(132,132,250)" fill-opacity="1" d=" M102.85399627685547,78.90699768066406 C102.85399627685547,78.90699768066406 -109.88500213623047,79.81300354003906 -109.88500213623047,79.81300354003906 C-109.88500213623047,79.81300354003906 -109.88500213623047,79.81300354003906 -109.88500213623047,79.81300354003906 C-120.26699829101562,34.01599884033203 -95.78299713134766,-12.527000427246094 -52.16299819946289,-29.91699981689453 C-52.16299819946289,-29.91699981689453 42.76499938964844,-77.15699768066406 42.76499938964844,-77.15699768066406 C47.604000091552734,-79.08599853515625 52.79199981689453,-79.98200225830078 57.99700164794922,-79.78700256347656 C57.99700164794922,-79.78700256347656 112.25800323486328,-78.75499725341797 112.25800323486328,-78.75499725341797"></path><path stroke-linecap="round" stroke-linejoin="round" fill-opacity="0" stroke="rgb(32,40,112)" stroke-opacity="1" stroke-width="2" d=" M102.85399627685547,78.90699768066406 C102.85399627685547,78.90699768066406 -109.88500213623047,79.81300354003906 -109.88500213623047,79.81300354003906 C-109.88500213623047,79.81300354003906 -109.88500213623047,79.81300354003906 -109.88500213623047,79.81300354003906 C-120.26699829101562,34.01599884033203 -95.78299713134766,-12.527000427246094 -52.16299819946289,-29.91699981689453 C-52.16299819946289,-29.91699981689453 42.76499938964844,-77.15699768066406 42.76499938964844,-77.15699768066406 C47.604000091552734,-79.08599853515625 52.79199981689453,-79.98200225830078 57.99700164794922,-79.78700256347656 C57.99700164794922,-79.78700256347656 112.25800323486328,-78.75499725341797 112.25800323486328,-78.75499725341797"></path></g><g opacity="1" transform="matrix(1,0,0,1,298.7149963378906,1155.487060546875)"><path fill="rgb(132,132,250)" fill-opacity="1" d=" M-83.80500030517578,78.70099639892578 C-83.80500030517578,78.70099639892578 -88.23500061035156,27.33300018310547 -55.479000091552734,4.448999881744385 C-19.343000411987305,-20.79599952697754 84.00599670410156,-78.70099639892578 84.00599670410156,-78.70099639892578"></path><path stroke-linecap="round" stroke-linejoin="round" fill-opacity="0" stroke="rgb(32,40,112)" stroke-opacity="1" stroke-width="2" d=" M-83.80500030517578,78.70099639892578 C-83.80500030517578,78.70099639892578 -88.23500061035156,27.33300018310547 -55.479000091552734,4.448999881744385 C-19.343000411987305,-20.79599952697754 84.00599670410156,-78.70099639892578 84.00599670410156,-78.70099639892578"></path></g><g opacity="1" transform="matrix(1,0,0,1,328.635009765625,1184.633056640625)"><path fill="rgb(132,132,250)" fill-opacity="1" d=" M-41.90599822998047,0.8100000023841858 C-41.90599822998047,0.8100000023841858 41.90599822998047,-0.8100000023841858 41.90599822998047,-0.8100000023841858"></path><path stroke-linecap="round" stroke-linejoin="round" fill-opacity="0" stroke="rgb(32,40,112)" stroke-opacity="1" stroke-width="2" d=" M-41.90599822998047,0.8100000023841858 C-41.90599822998047,0.8100000023841858 41.90599822998047,-0.8100000023841858 41.90599822998047,-0.8100000023841858"></path></g><g opacity="1" transform="matrix(1,0,0,1,284.3949890136719,1201.14697265625)"><path stroke-linecap="round" stroke-linejoin="round" fill-opacity="0" stroke="rgb(32,40,112)" stroke-opacity="1" stroke-width="2" d=" M0.1509999930858612,-33.805999755859375 C0.1509999930858612,-33.805999755859375 5.750999927520752,-4.3460001945495605 -2.0889999866485596,33.805999755859375"></path></g></g><g transform="matrix(0.9999883770942688,-0.00481708999723196,0.00481708999723196,0.9999883770942688,-5.5635986328125,3.549072265625)" opacity="1" style="display: block;"><g opacity="1" transform="matrix(1,0,0,1,733.9879760742188,1156.7449951171875)"><path fill="rgb(32,40,112)" fill-opacity="1" d=" M-0.29499998688697815,79.66999816894531 C-44.29499816894531,79.50700378417969 -79.83300018310547,43.70500183105469 -79.66999816894531,-0.29499998688697815 C-79.50700378417969,-44.29499816894531 -43.70500183105469,-79.83300018310547 0.29499998688697815,-79.66999816894531 C44.29499816894531,-79.50700378417969 79.83300018310547,-43.70500183105469 79.66999816894531,0.29499998688697815 C79.50700378417969,44.29499816894531 43.70500183105469,79.83300018310547 -0.29499998688697815,79.66999816894531z"></path></g><g opacity="1" transform="matrix(1,0,0,1,558.3790283203125,1156.717041015625)"><path fill="rgb(32,40,112)" fill-opacity="1" d=" M178.8260040283203,79.44400024414062 C178.8260040283203,79.44400024414062 -163.6529998779297,80.45600128173828 -163.6529998779297,80.45600128173828 C-163.6529998779297,80.45600128173828 -130.1269989013672,52.319000244140625 -156.35299682617188,28.68000030517578 C-208.9530029296875,-18.731000900268555 -152.7239990234375,-80.45600128173828 -152.7239990234375,-80.45600128173828 C-152.7239990234375,-80.45600128173828 177.45799255371094,-79.59400177001953 177.45799255371094,-79.59400177001953 C177.45799255371094,-79.59400177001953 178.8260040283203,79.44400024414062 178.8260040283203,79.44400024414062z"></path></g></g><g transform="matrix(1,0,0,1,0,0)" opacity="1" style="display: block;"><g opacity="1" transform="matrix(1,0,0,1,540.2659912109375,907.385009765625)"><path fill="rgb(32,40,112)" fill-opacity="1" d=" M62.027000427246094,-53.42499923706055 C91.53299713134766,-19.16900062561035 87.68099975585938,32.520999908447266 53.42499923706055,62.027000427246094 C19.16900062561035,91.53299713134766 -32.520999908447266,87.68099975585938 -62.027000427246094,53.42499923706055 C-91.53299713134766,19.16900062561035 -87.68099975585938,-32.520999908447266 -53.42499923706055,-62.027000427246094 C-19.16900062561035,-91.53299713134766 32.520999908447266,-87.68099975585938 62.027000427246094,-53.42499923706055z"></path></g><g opacity="1" transform="matrix(1,0,0,1,637.10400390625,1031.8160400390625)"><path fill="rgb(32,40,112)" fill-opacity="1" d=" M-37.058998107910156,-180.81399536132812 C-37.058998107910156,-180.81399536132812 163.51300048828125,75.73400115966797 163.51300048828125,75.73400115966797 C163.51300048828125,75.73400115966797 44.09400177001953,180.81399536132812 44.09400177001953,180.81399536132812 C44.09400177001953,180.81399536132812 -163.51300048828125,-77.18399810791016 -163.51300048828125,-77.18399810791016 C-163.51300048828125,-77.18399810791016 -37.058998107910156,-180.81399536132812 -37.058998107910156,-180.81399536132812z"></path></g><g opacity="1" transform="matrix(1,0,0,1,590.4530029296875,864.1339721679688)"><path fill="rgb(132,132,250)" fill-opacity="1" d=" M0,0"></path><path stroke-linecap="round" stroke-linejoin="round" fill-opacity="0" stroke="rgb(132,132,250)" stroke-opacity="1" stroke-width="2" d=" M0,0"></path></g></g><g transform="matrix(1,0,0,1,0,0)" opacity="1" style="display: block;"><g opacity="1" transform="matrix(1,0,0,1,320.9729919433594,1156.717041015625)"><path fill="rgb(132,132,250)" fill-opacity="1" d=" M78.3239974975586,-0.3330000042915344 C78.50800323486328,42.92399978637695 43.59000015258789,78.13999938964844 0.3330000042915344,78.3239974975586 C-42.92399978637695,78.50800323486328 -78.13999938964844,43.59000015258789 -78.3239974975586,0.3330000042915344 C-78.50800323486328,-42.92399978637695 -43.59000015258789,-78.13999938964844 -0.3330000042915344,-78.3239974975586 C42.92399978637695,-78.50800323486328 78.13999938964844,-43.59000015258789 78.3239974975586,-0.3330000042915344z"></path><path stroke-linecap="round" stroke-linejoin="round" fill-opacity="0" stroke="rgb(32,40,112)" stroke-opacity="1" stroke-width="2" d=" M78.3239974975586,-0.3330000042915344 C78.50800323486328,42.92399978637695 43.59000015258789,78.13999938964844 0.3330000042915344,78.3239974975586 C-42.92399978637695,78.50800323486328 -78.13999938964844,43.59000015258789 -78.3239974975586,0.3330000042915344 C-78.50800323486328,-42.92399978637695 -43.59000015258789,-78.13999938964844 -0.3330000042915344,-78.3239974975586 C42.92399978637695,-78.50800323486328 78.13999938964844,-43.59000015258789 78.3239974975586,-0.3330000042915344z"></path></g><g opacity="1" transform="matrix(1,0,0,1,214.85400390625,1156.1490478515625)"><path fill="rgb(132,132,250)" fill-opacity="1" d=" M102.85399627685547,78.90699768066406 C102.85399627685547,78.90699768066406 -109.88500213623047,79.81300354003906 -109.88500213623047,79.81300354003906 C-109.88500213623047,79.81300354003906 -109.88500213623047,79.81300354003906 -109.88500213623047,79.81300354003906 C-120.26699829101562,34.01599884033203 -95.78299713134766,-12.527000427246094 -52.16299819946289,-29.91699981689453 C-52.16299819946289,-29.91699981689453 42.76499938964844,-77.15699768066406 42.76499938964844,-77.15699768066406 C47.604000091552734,-79.08599853515625 52.79199981689453,-79.98200225830078 57.99700164794922,-79.78700256347656 C57.99700164794922,-79.78700256347656 112.25800323486328,-78.75499725341797 112.25800323486328,-78.75499725341797"></path><path stroke-linecap="round" stroke-linejoin="round" fill-opacity="0" stroke="rgb(32,40,112)" stroke-opacity="1" stroke-width="2" d=" M102.85399627685547,78.90699768066406 C102.85399627685547,78.90699768066406 -109.88500213623047,79.81300354003906 -109.88500213623047,79.81300354003906 C-109.88500213623047,79.81300354003906 -109.88500213623047,79.81300354003906 -109.88500213623047,79.81300354003906 C-120.26699829101562,34.01599884033203 -95.78299713134766,-12.527000427246094 -52.16299819946289,-29.91699981689453 C-52.16299819946289,-29.91699981689453 42.76499938964844,-77.15699768066406 42.76499938964844,-77.15699768066406 C47.604000091552734,-79.08599853515625 52.79199981689453,-79.98200225830078 57.99700164794922,-79.78700256347656 C57.99700164794922,-79.78700256347656 112.25800323486328,-78.75499725341797 112.25800323486328,-78.75499725341797"></path></g><g opacity="1" transform="matrix(1,0,0,1,209.82699584960938,1155.487060546875)"><path fill="rgb(132,132,250)" fill-opacity="1" d=" M-83.80500030517578,78.70099639892578 C-83.80500030517578,78.70099639892578 -88.23500061035156,27.33300018310547 -55.479000091552734,4.448999881744385 C-19.343000411987305,-20.79599952697754 84.00599670410156,-78.70099639892578 84.00599670410156,-78.70099639892578"></path><path stroke-linecap="round" stroke-linejoin="round" fill-opacity="0" stroke="rgb(32,40,112)" stroke-opacity="1" stroke-width="2" d=" M-83.80500030517578,78.70099639892578 C-83.80500030517578,78.70099639892578 -88.23500061035156,27.33300018310547 -55.479000091552734,4.448999881744385 C-19.343000411987305,-20.79599952697754 84.00599670410156,-78.70099639892578 84.00599670410156,-78.70099639892578"></path></g><g opacity="1" transform="matrix(1,0,0,1,239.74600219726562,1184.633056640625)"><path fill="rgb(132,132,250)" fill-opacity="1" d=" M-41.90599822998047,0.8100000023841858 C-41.90599822998047,0.8100000023841858 41.90599822998047,-0.8100000023841858 41.90599822998047,-0.8100000023841858"></path><path stroke-linecap="round" stroke-linejoin="round" fill-opacity="0" stroke="rgb(32,40,112)" stroke-opacity="1" stroke-width="2" d=" M-41.90599822998047,0.8100000023841858 C-41.90599822998047,0.8100000023841858 41.90599822998047,-0.8100000023841858 41.90599822998047,-0.8100000023841858"></path></g><g opacity="1" transform="matrix(1,0,0,1,195.50599670410156,1201.14697265625)"><path stroke-linecap="round" stroke-linejoin="round" fill-opacity="0" stroke="rgb(32,40,112)" stroke-opacity="1" stroke-width="2" d=" M0.1509999930858612,-33.805999755859375 C0.1509999930858612,-33.805999755859375 5.750999927520752,-4.3460001945495605 -2.0889999866485596,33.805999755859375"></path></g></g><g transform="matrix(1,0,0,1,0,0)" opacity="1" style="display: block;"><g opacity="1" transform="matrix(1,0,0,1,648.9619750976562,1156.6099853515625)"><path fill="rgb(32,40,112)" fill-opacity="1" d=" M-0.29499998688697815,79.66999816894531 C-44.29499816894531,79.50700378417969 -79.83300018310547,43.70500183105469 -79.66999816894531,-0.29499998688697815 C-79.50700378417969,-44.29499816894531 -43.70500183105469,-79.83300018310547 0.29499998688697815,-79.66999816894531 C44.29499816894531,-79.50700378417969 79.83300018310547,-43.70500183105469 79.66999816894531,0.29499998688697815 C79.50700378417969,44.29499816894531 43.70500183105469,79.83300018310547 -0.29499998688697815,79.66999816894531z"></path></g><g opacity="1" transform="matrix(1,0,0,1,688.6500244140625,1156.6099853515625)"><path stroke-linecap="round" stroke-linejoin="round" fill-opacity="0" stroke="rgb(255,255,255)" stroke-opacity="1" stroke-width="2" d=" M-39.393001556396484,-79.66999816894531 C4.60699987411499,-79.50700378417969 40.14500045776367,-43.70600128173828 39.981998443603516,0.2939999997615814 C39.819000244140625,44.29399871826172 4.01800012588501,79.83200073242188 -39.981998443603516,79.66899871826172"></path></g><g opacity="1" transform="matrix(1,0,0,1,473.35400390625,1156.5810546875)"><path fill="rgb(32,40,112)" fill-opacity="1" d=" M178.8260040283203,79.44400024414062 C178.8260040283203,79.44400024414062 -163.6529998779297,80.45600128173828 -163.6529998779297,80.45600128173828 C-163.6529998779297,80.45600128173828 -130.1269989013672,52.319000244140625 -156.35299682617188,28.68000030517578 C-208.9530029296875,-18.731000900268555 -152.7239990234375,-80.45600128173828 -152.7239990234375,-80.45600128173828 C-152.7239990234375,-80.45600128173828 177.45799255371094,-79.59400177001953 177.45799255371094,-79.59400177001953 C177.45799255371094,-79.59400177001953 178.8260040283203,79.44400024414062 178.8260040283203,79.44400024414062z"></path></g></g><g transform="matrix(1,0,0,1,0,0)" opacity="1" style="display: block;"><g opacity="1" transform="matrix(1,0,0,1,451.37701416015625,907.385009765625)"><path fill="rgb(32,40,112)" fill-opacity="1" d=" M62.027000427246094,-53.42499923706055 C91.53299713134766,-19.16900062561035 87.68099975585938,32.520999908447266 53.42499923706055,62.027000427246094 C19.16900062561035,91.53299713134766 -32.520999908447266,87.68099975585938 -62.027000427246094,53.42499923706055 C-91.53299713134766,19.16900062561035 -87.68099975585938,-32.520999908447266 -53.42499923706055,-62.027000427246094 C-19.16900062561035,-91.53299713134766 32.520999908447266,-87.68099975585938 62.027000427246094,-53.42499923706055z"></path></g><g opacity="1" transform="matrix(1,0,0,1,548.2150268554688,1031.8160400390625)"><path fill="rgb(32,40,112)" fill-opacity="1" d=" M-37.058998107910156,-180.81399536132812 C-37.058998107910156,-180.81399536132812 163.51300048828125,75.73400115966797 163.51300048828125,75.73400115966797 C163.51300048828125,75.73400115966797 44.09400177001953,180.81399536132812 44.09400177001953,180.81399536132812 C44.09400177001953,180.81399536132812 -163.51300048828125,-77.18399810791016 -163.51300048828125,-77.18399810791016 C-163.51300048828125,-77.18399810791016 -37.058998107910156,-180.81399536132812 -37.058998107910156,-180.81399536132812z"></path></g><g opacity="1" transform="matrix(1,0,0,1,611.4420166015625,979.2760009765625)"><path stroke-linecap="round" stroke-linejoin="round" fill-opacity="0" stroke="rgb(255,255,255)" stroke-opacity="1" stroke-width="2" d=" M-100.28600311279297,-128.2740020751953 C-100.28600311279297,-128.2740020751953 100.28600311279297,128.2740020751953 100.28600311279297,128.2740020751953"></path></g><g opacity="1" transform="matrix(1,0,0,1,501.5639953613281,864.1339721679688)"><path fill="rgb(132,132,250)" fill-opacity="1" d=" M0,0"></path><path stroke-linecap="round" stroke-linejoin="round" fill-opacity="0" stroke="rgb(132,132,250)" stroke-opacity="1" stroke-width="2" d=" M0,0"></path></g><g opacity="1" transform="matrix(1,0,0,1,559.8369750976562,911.5009765625)"><path stroke-linecap="round" stroke-linejoin="round" fill-opacity="0" stroke="rgb(255,255,255)" stroke-opacity="1" stroke-width="2" d=" M-41.132999420166016,-51.35900115966797 C-41.132999420166016,-51.35900115966797 41.132999420166016,51.35900115966797 41.132999420166016,51.35900115966797"></path></g></g><g transform="matrix(0.9986295104026794,0.0523359552025795,-0.0523359552025795,0.9986295104026794,33.67459487915039,-54.924903869628906)" opacity="1" style="display: block;"><g opacity="1" transform="matrix(1,0,0,1,1067.6209716796875,1007.8049926757812)"><path stroke-linecap="round" stroke-linejoin="round" fill-opacity="0" stroke-dasharray=" 12 10" stroke-dashoffset="0" stroke="rgb(255,255,255)" stroke-opacity="1" stroke-width="2" d=" M-36.4739990234375,-26.024999618530273 C-36.4739990234375,-26.024999618530273 0.859000027179718,-54.46900177001953 23.969999313354492,-11.210000038146973 C30.76099967956543,1.5010000467300415 34.53300094604492,18.099000930786133 36.4739990234375,35.20399856567383"></path></g><g opacity="1" transform="matrix(1,0,0,1,1074.5450439453125,1001.7780151367188)"><path stroke-linecap="round" stroke-linejoin="round" fill-opacity="0" stroke-dasharray=" 12 10" stroke-dashoffset="0" stroke="rgb(255,255,255)" stroke-opacity="1" stroke-width="2" d=" M-47.547000885009766,-24.73900032043457 C-47.547000885009766,-24.73900032043457 10.527999877929688,-70.36900329589844 36.00899887084961,-11.70199966430664 C42.4379997253418,3.0999999046325684 45.85599899291992,22.405000686645508 47.547000885009766,41.645999908447266"></path></g><g opacity="1" transform="matrix(1,0,0,1,937.7239990234375,958.0050048828125)"><path fill="rgb(32,40,112)" fill-opacity="1" d=" M86.33000183105469,15.800000190734863 C86.33000183105469,15.800000190734863 20.98900032043457,35.61800003051758 20.98900032043457,35.61800003051758 C20.98900032043457,35.61800003051758 68.13899993896484,-23.11400032043457 68.13899993896484,-23.11400032043457 C68.13899993896484,-23.11400032043457 6.0970001220703125,-81.0979995727539 6.0970001220703125,-81.0979995727539 C-15.395999908447266,-99.39299774169922 -47.12900161743164,-99.125 -68.30400085449219,-80.34500122070312 C-68.30400085449219,-80.34500122070312 -73.7969970703125,-75.4729995727539 -73.7969970703125,-75.4729995727539 C-95.8010025024414,-55.95600128173828 -98.76200103759766,-23.61400032043457 -82.71499633789062,-0.6230000257492065 C-82.71499633789062,-0.6230000257492065 -82.71499633789062,-0.6230000257492065 -82.71499633789062,-0.6230000257492065 C-82.71499633789062,-0.6230000257492065 -82.71499633789062,-0.6230000257492065 -82.71499633789062,-0.6230000257492065 C-100.24400329589844,15.26099967956543 -100.51000213623047,42.71500015258789 -83.29100036621094,58.935001373291016 C-83.29100036621094,58.935001373291016 -57.11199951171875,83.59500122070312 -57.11199951171875,83.59500122070312 C-43.80400085449219,96.13099670410156 -23.753000259399414,98.20899963378906 -8.156000137329102,88.66999816894531 C-8.156000137329102,88.66999816894531 96.03600311279297,24.941999435424805 96.03600311279297,24.941999435424805 C96.03600311279297,24.941999435424805 86.33000183105469,15.800000190734863 86.33000183105469,15.800000190734863z M-77.91100311279297,-33.02799987792969 C-77.91100311279297,-44.9640007019043 -72.79100036621094,-56.35200119018555 -63.861000061035156,-64.27200317382812 C-63.861000061035156,-64.27200317382812 -58.36800003051758,-69.14399719238281 -58.36800003051758,-69.14399719238281 C-44.00699996948242,-81.88200378417969 -22.89699935913086,-83.0250015258789 -7.322000026702881,-72.53199768066406 C-7.322000026702881,-72.53199768066406 -72.39099884033203,-12.288000106811523 -72.39099884033203,-12.288000106811523 C-75.96800231933594,-18.538999557495117 -77.91000366210938,-25.68000030517578 -77.91100311279297,-33.02799987792969z"></path></g></g><g transform="matrix(1,0,0,1,0,0)" opacity="1" style="display: block;"><g opacity="1" transform="matrix(1,0,0,1,0,0)"><g opacity="1" transform="matrix(1,0,0,1,0,0)"><g opacity="1" transform="matrix(1,0,0,1,1056.6500244140625,1139.3349609375)"><path fill="rgb(249,74,130)" fill-opacity="1" d=" M74.25800323486328,95.9260025024414 C74.25800323486328,95.9260025024414 -74.25800323486328,95.9260025024414 -74.25800323486328,95.9260025024414 C-74.25800323486328,95.9260025024414 -74.09700012207031,-95.9260025024414 -74.09700012207031,-95.9260025024414 C-74.09700012207031,-95.9260025024414 74.06900024414062,-95.9260025024414 74.06900024414062,-95.9260025024414 C74.06900024414062,-95.9260025024414 74.25800323486328,95.9260025024414 74.25800323486328,95.9260025024414z"></path><path stroke-linecap="round" stroke-linejoin="round" fill-opacity="0" stroke="rgb(32,40,112)" stroke-opacity="1" stroke-width="2" d=" M74.25800323486328,95.9260025024414 C74.25800323486328,95.9260025024414 -74.25800323486328,95.9260025024414 -74.25800323486328,95.9260025024414 C-74.25800323486328,95.9260025024414 -74.09700012207031,-95.9260025024414 -74.09700012207031,-95.9260025024414 C-74.09700012207031,-95.9260025024414 74.06900024414062,-95.9260025024414 74.06900024414062,-95.9260025024414 C74.06900024414062,-95.9260025024414 74.25800323486328,95.9260025024414 74.25800323486328,95.9260025024414z"></path></g></g></g></g><g transform="matrix(1,0,0,1,0,0)" opacity="1" style="display: block;"><g opacity="1" transform="matrix(1,0,0,1,0,0)"><g opacity="1" transform="matrix(1,0,0,1,1056.6490478515625,1139.3349609375)"><g opacity="1" transform="matrix(1,0,0,1,0,0)"><path fill="rgb(255,255,255)" fill-opacity="1" d=" M54.53900146484375,0.4259999990463257 C54.30400085449219,30.547000885009766 29.69499969482422,54.77399826049805 -0.4259999990463257,54.53900146484375 C-30.547000885009766,54.30400085449219 -54.77399826049805,29.69499969482422 -54.53900146484375,-0.4259999990463257 C-54.30400085449219,-30.547000885009766 -29.69499969482422,-54.77399826049805 0.4259999990463257,-54.53900146484375 C30.547000885009766,-54.30400085449219 54.77399826049805,-29.69499969482422 54.53900146484375,0.4259999990463257z"></path><path stroke-linecap="round" stroke-linejoin="round" fill-opacity="0" stroke="rgb(32,40,112)" stroke-opacity="1" stroke-width="2" d=" M54.53900146484375,0.4259999990463257 C54.30400085449219,30.547000885009766 29.69499969482422,54.77399826049805 -0.4259999990463257,54.53900146484375 C-30.547000885009766,54.30400085449219 -54.77399826049805,29.69499969482422 -54.53900146484375,-0.4259999990463257 C-54.30400085449219,-30.547000885009766 -29.69499969482422,-54.77399826049805 0.4259999990463257,-54.53900146484375 C30.547000885009766,-54.30400085449219 54.77399826049805,-29.69499969482422 54.53900146484375,0.4259999990463257z"></path></g></g><g opacity="1" transform="matrix(1,0,0,1,1056.6490478515625,1139.3349609375)"><g opacity="1" transform="matrix(1,0,0,1,0,0)"><path fill="rgb(249,74,130)" fill-opacity="1" d=" M16.847999572753906,10.322999954223633 C16.868000030517578,14.286999702453613 15.623000144958496,17.503000259399414 13.11299991607666,19.97100067138672 C10.602999687194824,22.440000534057617 7.322999954223633,23.92799949645996 3.2720000743865967,24.44499969482422 C3.2720000743865967,24.44499969482422 3.302000045776367,30.392000198364258 3.302000045776367,30.392000198364258 C3.302000045776367,30.392000198364258 -1.225000023841858,30.415000915527344 -1.225000023841858,30.415000915527344 C-1.225000023841858,30.415000915527344 -1.2549999952316284,24.535999298095703 -1.2549999952316284,24.535999298095703 C-5.039999961853027,24.285999298095703 -8.288000106811523,23.243999481201172 -11,21.410999298095703 C-13.711999893188477,19.577999114990234 -15.66100025177002,17.08799934387207 -16.847999572753906,13.940999984741211 C-16.847999572753906,13.940999984741211 -8.833000183105469,9.23799991607666 -8.833000183105469,9.23799991607666 C-7.374000072479248,12.835000038146973 -4.861999988555908,14.871000289916992 -1.3020000457763672,15.347999572753906 C-1.3020000457763672,15.347999572753906 -1.3609999418258667,3.6600000858306885 -1.3609999418258667,3.6600000858306885 C-1.3609999418258667,3.6600000858306885 -1.4279999732971191,3.6610000133514404 -1.4279999732971191,3.6610000133514404 C-1.4279999732971191,3.6610000133514404 -1.5640000104904175,3.5929999351501465 -1.5640000104904175,3.5929999351501465 C-3.1440000534057617,3.0169999599456787 -4.431000232696533,2.505000114440918 -5.423999786376953,2.059999942779541 C-6.416999816894531,1.6150000095367432 -7.578999996185303,0.9670000076293945 -8.911999702453613,0.11800000071525574 C-10.246000289916992,-0.7300000190734863 -11.28600025177002,-1.6160000562667847 -12.034000396728516,-2.5350000858306885 C-12.781999588012695,-3.4539999961853027 -13.442000389099121,-4.631999969482422 -14.01099967956543,-6.072000026702881 C-14.581999778747559,-7.510000228881836 -14.869999885559082,-9.085000038146973 -14.878999710083008,-10.79699993133545 C-14.89900016784668,-14.760000228881836 -13.621999740600586,-17.94300079345703 -11.043000221252441,-20.3439998626709 C-8.465999603271484,-22.743999481201172 -5.285999774932861,-24.132999420166016 -1.5049999952316284,-24.51300048828125 C-1.5049999952316284,-24.51300048828125 -1.534999966621399,-30.392000198364258 -1.534999966621399,-30.392000198364258 C-1.534999966621399,-30.392000198364258 2.993000030517578,-30.415000915527344 2.993000030517578,-30.415000915527344 C2.993000030517578,-30.415000915527344 3.0230000019073486,-24.400999069213867 3.0230000019073486,-24.400999069213867 C9.152000427246094,-23.711000442504883 13.493000030517578,-20.55699920654297 16.04400062561035,-14.9399995803833 C16.04400062561035,-14.9399995803833 8.229999542236328,-10.307000160217285 8.229999542236328,-10.307000160217285 C7.135000228881836,-13.003999710083008 5.413000106811523,-14.638999938964844 3.069000005722046,-15.213000297546387 C3.069000005722046,-15.213000297546387 3.127000093460083,-3.930000066757202 3.127000093460083,-3.930000066757202 C7.323999881744385,-2.2850000858306885 10.145999908447266,-0.968999981880188 11.593000411987305,0.014000000432133675 C15.074000358581543,2.4739999771118164 16.825000762939453,5.909999847412109 16.847999572753906,10.322999954223633z M-5.624000072479248,-10.777000427246094 C-5.618000030517578,-9.78600025177002 -5.298999786376953,-8.920000076293945 -4.664000034332275,-8.180999755859375 C-4.03000020980835,-7.440999984741211 -2.944999933242798,-6.690999984741211 -1.409999966621399,-5.934000015258789 C-1.409999966621399,-5.934000015258789 -1.4579999446868896,-15.392999649047852 -1.4579999446868896,-15.392999649047852 C-2.808000087738037,-15.116000175476074 -3.8420000076293945,-14.569000244140625 -4.557000160217285,-13.755000114440918 C-5.27400016784668,-12.940999984741211 -5.630000114440918,-11.947999954223633 -5.624000072479248,-10.777000427246094z M3.2239999771118164,15.1899995803833 C6.103000164031982,14.545000076293945 7.5370001792907715,12.961999893188477 7.52400016784668,10.439000129699707 C7.51800012588501,9.314000129699707 7.164000034332275,8.369999885559082 6.4629998207092285,7.60699987411499 C5.760000228881836,6.84499979019165 4.664999961853027,6.129000186920166 3.174999952316284,5.460999965667725 C3.174999952316284,5.460999965667725 3.2239999771118164,15.1899995803833 3.2239999771118164,15.1899995803833z"></path></g></g></g></g><g transform="matrix(1,0,0,1,1,0)" opacity="1" style="display: block;"><g opacity="1" transform="matrix(1,0,0,1,575.5850219726562,632.6409912109375)"><path fill="rgb(255,255,255)" fill-opacity="1" d=" M35.71699905395508,17.39699935913086 C26.108999252319336,37.12300109863281 2.3289999961853027,45.32500076293945 -17.39699935913086,35.71699905395508 C-37.12300109863281,26.108999252319336 -45.32500076293945,2.3289999961853027 -35.71699905395508,-17.39699935913086 C-26.108999252319336,-37.12300109863281 -2.3289999961853027,-45.32500076293945 17.39699935913086,-35.71699905395508 C37.12300109863281,-26.108999252319336 45.32500076293945,-2.3289999961853027 35.71699905395508,17.39699935913086z"></path><path stroke-linecap="round" stroke-linejoin="round" fill-opacity="0" stroke="rgb(32,40,112)" stroke-opacity="1" stroke-width="2" d=" M35.71699905395508,17.39699935913086 C26.108999252319336,37.12300109863281 2.3289999961853027,45.32500076293945 -17.39699935913086,35.71699905395508 C-37.12300109863281,26.108999252319336 -45.32500076293945,2.3289999961853027 -35.71699905395508,-17.39699935913086 C-26.108999252319336,-37.12300109863281 -2.3289999961853027,-45.32500076293945 17.39699935913086,-35.71699905395508 C37.12300109863281,-26.108999252319336 45.32500076293945,-2.3289999961853027 35.71699905395508,17.39699935913086z"></path></g><g opacity="1" transform="matrix(1,0,0,1,610.3560180664062,603.2420043945312)"><path fill="rgb(255,255,255)" fill-opacity="1" d=" M-6.872000217437744,57.683998107910156 C-6.872000217437744,57.683998107910156 60.9630012512207,1.378000020980835 60.9630012512207,1.378000020980835 C60.9630012512207,1.378000020980835 32.19300079345703,-30.566999435424805 32.19300079345703,-30.566999435424805 C32.19300079345703,-30.566999435424805 7.769999980926514,-57.683998107910156 7.769999980926514,-57.683998107910156 C7.769999980926514,-57.683998107910156 -60.9630012512207,-0.48500001430511475 -60.9630012512207,-0.48500001430511475"></path></g><g opacity="1" transform="matrix(1,0,0,1,583.760009765625,574.156982421875)"><path fill="rgb(255,255,255)" fill-opacity="1" d=" M34.367000579833984,-28.599000930786133 C34.367000579833984,-28.599000930786133 -34.367000579833984,28.599000930786133 -34.367000579833984,28.599000930786133"></path><path stroke-linecap="round" stroke-linejoin="round" fill-opacity="0" stroke="rgb(32,40,112)" stroke-opacity="1" stroke-width="2" d=" M34.367000579833984,-28.599000930786133 C34.367000579833984,-28.599000930786133 -34.367000579833984,28.599000930786133 -34.367000579833984,28.599000930786133"></path></g><g opacity="1" transform="matrix(1,0,0,1,637.4010009765625,632.77197265625)"><path fill="rgb(255,255,255)" fill-opacity="1" d=" M-33.917999267578125,28.152999877929688 C-33.917999267578125,28.152999877929688 33.917999267578125,-28.152999877929688 33.917999267578125,-28.152999877929688"></path><path stroke-linecap="round" stroke-linejoin="round" fill-opacity="0" stroke="rgb(32,40,112)" stroke-opacity="1" stroke-width="2" d=" M-33.917999267578125,28.152999877929688 C-33.917999267578125,28.152999877929688 33.917999267578125,-28.152999877929688 33.917999267578125,-28.152999877929688"></path></g></g><g transform="matrix(1,0,0,1,1,0)" opacity="1" style="display: block;"><g opacity="1" transform="matrix(1,0,0,1,0,0)"><g opacity="1" transform="matrix(1,0,0,1,723.3690185546875,580.18701171875)"><path stroke-linecap="round" stroke-linejoin="round" fill-opacity="0" stroke="rgb(32,40,112)" stroke-opacity="1" stroke-width="2" d=" M5.607999801635742,2.694999933242798 C2.0199999809265137,10.161999702453613 -3.4000000953674316,15.008000373840332 -6.497000217437744,13.520000457763672 C-9.593999862670898,12.031999588012695 -9.196000099182129,4.771999835968018 -5.607999801635742,-2.694999933242798 C-2.0199999809265137,-10.161999702453613 3.4000000953674316,-15.008000373840332 6.497000217437744,-13.520000457763672 C9.593999862670898,-12.031999588012695 9.196000099182129,-4.771999835968018 5.607999801635742,2.694999933242798z"></path></g><g opacity="1" transform="matrix(1,0,0,1,674.7839965820312,553.7540283203125)"><path fill="rgb(255,255,255)" fill-opacity="1" d=" M-58.23899841308594,31.14299964904785 C-49.43299865722656,61.63999938964844 -14.35200023651123,84.87200164794922 9.694999694824219,77.4729995727539 C33.742000579833984,70.0739974975586 42.18299865722656,26.684999465942383 45.16699981689453,21.89900016784668 C62.60300064086914,-6.064000129699707 65.72799682617188,-17.816999435424805 63.935001373291016,-30.47599983215332 C59.58000183105469,-61.21900177001953 3.4230000972747803,-91.65599822998047 -26.996999740600586,-73.2979965209961 C-54.73400115966797,-56.558998107910156 -64.37899780273438,-5.697000026702881 -64.37899780273438,-5.697000026702881"></path></g><g opacity="1" transform="matrix(1,0,0,1,674.7839965820312,553.8359985351562)"><path stroke-linecap="round" stroke-linejoin="round" fill-opacity="0" stroke="rgb(32,40,112)" stroke-opacity="1" stroke-width="2" d=" M-27.086999893188477,70.38999938964844 C-14.612000465393066,78.3219985961914 -1.815999984741211,80.93199920654297 9.694999694824219,77.38999938964844 C33.742000579833984,69.99099731445312 42.18299865722656,26.601999282836914 45.16699981689453,21.81599998474121 C62.60300064086914,-6.146999835968018 65.72799682617188,-17.899999618530273 63.935001373291016,-30.55900001525879 C59.58000183105469,-61.301998138427734 3.4230000972747803,-91.73899841308594 -26.996999740600586,-73.38099670410156 C-54.73400115966797,-56.641998291015625 -64.37899780273438,-5.7789998054504395 -64.37899780273438,-5.7789998054504395"></path></g><g opacity="1" transform="matrix(1,0,0,1,715.8499755859375,568.7739868164062)"><path fill="rgb(32,40,112)" fill-opacity="1" d=" M6.966000080108643,4.086999893188477 C5.709000110626221,6.289999961853027 2.9560000896453857,4.307000160217285 -1.0260000228881836,2.0309998989105225 C-5.007999897003174,-0.24500000476837158 -8.343999862670898,-1.2280000448226929 -7.086999893188477,-3.430999994277954 C-5.829999923706055,-5.633999824523926 -1.5829999446868896,-5.573999881744385 2.3989999294281006,-3.2980000972747803 C6.38100004196167,-1.0219999551773071 8.222999572753906,1.8839999437332153 6.966000080108643,4.086999893188477z"></path></g><g opacity="1" transform="matrix(1,0,0,1,657.219970703125,620.2769775390625)"><path fill="rgb(32,40,112)" fill-opacity="1" d=" M10.406999588012695,12.164999961853027 C10.406999588012695,12.164999961853027 7.349999904632568,8.052000045776367 7.110000133514404,-12.164999961853027 C7.110000133514404,-12.164999961853027 -10.406999588012695,3.3540000915527344 -10.406999588012695,3.3540000915527344 C-10.406999588012695,3.3540000915527344 -2.5,8.21500015258789 10.406999588012695,12.164999961853027z"></path></g><g opacity="1" transform="matrix(1,0,0,1,708.8690185546875,573.68701171875)"><path stroke-linecap="round" stroke-linejoin="round" fill-opacity="0" stroke="rgb(32,40,112)" stroke-opacity="1" stroke-width="2" d=" M-20.055999755859375,-7.943999767303467 C-20.055999755859375,-7.943999767303467 20.055999755859375,7.943999767303467 20.055999755859375,7.943999767303467"></path></g></g><g opacity="1" transform="matrix(1,0,0,1,669.1610107421875,528.218994140625)"><path fill="rgb(32,40,112)" fill-opacity="1" d=" M21.027000427246094,32.277000427246094 C21.027000427246094,32.277000427246094 20.6299991607666,38.611000061035156 20.6299991607666,38.611000061035156 C20.6299991607666,38.611000061035156 30.573999404907227,41.141998291015625 30.573999404907227,41.141998291015625 C30.573999404907227,41.141998291015625 39.19900131225586,18.06100082397461 46.16299819946289,20.624000549316406 C55.86800003051758,24.19499969482422 66.85099792480469,22.219999313354492 66.85099792480469,22.219999313354492 C66.85099792480469,22.219999313354492 75.75900268554688,15.538000106811523 77.30799865722656,8.581000328063965 C80.54499816894531,-5.954999923706055 72.18900299072266,-22.7549991607666 40.65399932861328,-45.52199935913086 C2.7219998836517334,-72.90699768066406 -27.58799934387207,-58.95199966430664 -38.020999908447266,-45.54899978637695 C-63.60300064086914,-12.684000015258789 -77.95700073242188,39.53900146484375 -77.95700073242188,39.53900146484375 C-77.95700073242188,39.53900146484375 -56.34400177001953,61.21900177001953 -37.34299850463867,61.25400161743164 C-14.753000259399414,61.29600143432617 21.027000427246094,32.277000427246094 21.027000427246094,32.277000427246094z"></path></g><g opacity="1" transform="matrix(1,0,0,1,0,0)"><g opacity="1" transform="matrix(1,0,0,1,671.5120239257812,561.4249877929688)"><path fill="rgb(255,255,255)" fill-opacity="1" d=" M17.770999908447266,3.26200008392334 C17.770999908447266,3.26200008392334 21.253000259399414,-15.413000106811523 9.982000350952148,-21.32699966430664 C-2.0380001068115234,-27.632999420166016 -10.67199993133545,-21.097999572753906 -16.242000579833984,-7.664999961853027 C-22.131999969482422,6.539999961853027 -13.663000106811523,20.009000778198242 -10.765000343322754,21.784000396728516 C-5.229000091552734,25.174999237060547 0.8259999752044678,23.93000030517578 3.953000068664551,19.899999618530273"></path><path stroke-linecap="round" stroke-linejoin="round" fill-opacity="0" stroke="rgb(32,40,112)" stroke-opacity="1" stroke-width="2" d=" M17.770999908447266,3.26200008392334 C17.770999908447266,3.26200008392334 21.253000259399414,-15.413000106811523 9.982000350952148,-21.32699966430664 C-2.0380001068115234,-27.632999420166016 -10.67199993133545,-21.097999572753906 -16.242000579833984,-7.664999961853027 C-22.131999969482422,6.539999961853027 -13.663000106811523,20.009000778198242 -10.765000343322754,21.784000396728516 C-5.229000091552734,25.174999237060547 0.8259999752044678,23.93000030517578 3.953000068664551,19.899999618530273"></path></g><g opacity="1" transform="matrix(1,0,0,1,673.198974609375,555.5369873046875)"><path fill="rgb(255,255,255)" fill-opacity="1" d=" M-4.053999900817871,-7.150000095367432 C-4.053999900817871,-7.150000095367432 5.877999782562256,-9.322999954223633 4.3460001945495605,7.24399995803833 C4.3460001945495605,7.24399995803833 0.3330000042915344,0.8220000267028809 -4.50600004196167,1.1610000133514404"></path><path stroke-linecap="round" stroke-linejoin="round" fill-opacity="0" stroke="rgb(32,40,112)" stroke-opacity="1" stroke-width="2" d=" M-4.053999900817871,-7.150000095367432 C-4.053999900817871,-7.150000095367432 5.877999782562256,-9.322999954223633 4.3460001945495605,7.24399995803833 C4.3460001945495605,7.24399995803833 0.3330000042915344,0.8220000267028809 -4.50600004196167,1.1610000133514404"></path></g></g></g><g transform="matrix(1,0,0,1,0,0)" opacity="1" style="display: block;"><g opacity="1" transform="matrix(1,0,0,1,467.10699462890625,885.3989868164062)"><path fill="rgb(32,40,112)" fill-opacity="1" d=" M96.56600189208984,43.58700180053711 C72.49400329589844,96.91899871826172 9.744999885559082,120.63800048828125 -43.58700180053711,96.56600189208984 C-96.91899871826172,72.49400329589844 -120.63800048828125,9.744999885559082 -96.56600189208984,-43.58700180053711 C-72.49400329589844,-96.91899871826172 -9.744999885559082,-120.63800048828125 43.58700180053711,-96.56600189208984 C96.91899871826172,-72.49400329589844 120.63800048828125,-9.744999885559082 96.56600189208984,43.58700180053711z"></path><path stroke-linecap="round" stroke-linejoin="round" fill-opacity="0" stroke="rgb(32,40,112)" stroke-opacity="1" stroke-width="2" d=" M96.56600189208984,43.58700180053711 C72.49400329589844,96.91899871826172 9.744999885559082,120.63800048828125 -43.58700180053711,96.56600189208984 C-96.91899871826172,72.49400329589844 -120.63800048828125,9.744999885559082 -96.56600189208984,-43.58700180053711 C-72.49400329589844,-96.91899871826172 -9.744999885559082,-120.63800048828125 43.58700180053711,-96.56600189208984 C96.91899871826172,-72.49400329589844 120.63800048828125,-9.744999885559082 96.56600189208984,43.58700180053711z"></path></g></g><g transform="matrix(1,0,0,1,1,0)" opacity="1" style="display: block;"><g opacity="1" transform="matrix(1,0,0,1,491.8869934082031,766.5360107421875)"><path fill="rgb(132,132,250)" fill-opacity="1" d=" M-121.5469970703125,75.72100067138672 C-121.5469970703125,75.72100067138672 -21.152999877929688,-184.58799743652344 59.91400146484375,-157.5050048828125 C188.48699951171875,-114.5510025024414 75.99600219726562,159.4810028076172 75.99600219726562,159.4810028076172 C75.99600219726562,159.4810028076172 14.937000274658203,156.95199584960938 -34.75600051879883,131.76400756835938 C-84.4489974975586,106.57599639892578 -121.5469970703125,75.72100067138672 -121.5469970703125,75.72100067138672z"></path><path stroke-linecap="round" stroke-linejoin="round" fill-opacity="0" stroke="rgb(32,40,112)" stroke-opacity="1" stroke-width="2" d=" M-121.5469970703125,75.72100067138672 C-121.5469970703125,75.72100067138672 -21.152999877929688,-184.58799743652344 59.91400146484375,-157.5050048828125 C188.48699951171875,-114.5510025024414 75.99600219726562,159.4810028076172 75.99600219726562,159.4810028076172 C75.99600219726562,159.4810028076172 14.937000274658203,156.95199584960938 -34.75600051879883,131.76400756835938 C-84.4489974975586,106.57599639892578 -121.5469970703125,75.72100067138672 -121.5469970703125,75.72100067138672z"></path></g></g><g transform="matrix(0.9987872838973999,0.04923328012228012,-0.04923328012228012,0.9987872838973999,36.25946044921875,-25.5662841796875)" opacity="1" style="display: block;"><g opacity="1" transform="matrix(1,0,0,1,550.9819946289062,804.0399780273438)"><path fill="rgb(255,255,255)" fill-opacity="1" d=" M76.3219985961914,-27.027000427246094 C76.3219985961914,-27.027000427246094 84.91699981689453,-9.67199993133545 66.84400177001953,-1.371000051498413 C48.770999908447266,6.929999828338623 -72.58899688720703,50.68199920654297 -76.88899993896484,23.481000900268555 C-81.18900299072266,-3.7200000286102295 -74.72200012207031,-13.95199966430664 -74.72200012207031,-13.95199966430664 C-74.72200012207031,-13.95199966430664 69.21900177001953,-32.28499984741211 69.21900177001953,-32.28499984741211"></path><path stroke-linecap="round" stroke-linejoin="round" fill-opacity="0" stroke="rgb(32,40,112)" stroke-opacity="1" stroke-width="2" d=" M76.3219985961914,-27.027000427246094 C76.3219985961914,-27.027000427246094 84.91699981689453,-9.67199993133545 66.84400177001953,-1.371000051498413 C48.770999908447266,6.929999828338623 -72.58899688720703,50.68199920654297 -76.88899993896484,23.481000900268555 C-81.18900299072266,-3.7200000286102295 -74.72200012207031,-13.95199966430664 -74.72200012207031,-13.95199966430664 C-74.72200012207031,-13.95199966430664 69.21900177001953,-32.28499984741211 69.21900177001953,-32.28499984741211"></path></g><g opacity="1" transform="matrix(1,0,0,1,569.4349975585938,930.7459716796875)"><path fill="rgb(255,255,255)" fill-opacity="1" d=" M-38.63600158691406,45.74100112915039 C-63.89799880981445,24.402999877929688 -67.0790023803711,-13.37399959564209 -45.74100112915039,-38.63600158691406 C-24.402999877929688,-63.89799880981445 13.37399959564209,-67.0790023803711 38.63600158691406,-45.74100112915039 C63.89799880981445,-24.402999877929688 67.0790023803711,13.37399959564209 45.74100112915039,38.63600158691406 C24.402999877929688,63.89799880981445 -13.37399959564209,67.0790023803711 -38.63600158691406,45.74100112915039z"></path><path stroke-linecap="round" stroke-linejoin="round" fill-opacity="0" stroke="rgb(32,40,112)" stroke-opacity="1" stroke-width="2" d=" M-38.63600158691406,45.74100112915039 C-63.89799880981445,24.402999877929688 -67.0790023803711,-13.37399959564209 -45.74100112915039,-38.63600158691406 C-24.402999877929688,-63.89799880981445 13.37399959564209,-67.0790023803711 38.63600158691406,-45.74100112915039 C63.89799880981445,-24.402999877929688 67.0790023803711,13.37399959564209 45.74100112915039,38.63600158691406 C24.402999877929688,63.89799880981445 -13.37399959564209,67.0790023803711 -38.63600158691406,45.74100112915039z"></path></g><g opacity="1" transform="matrix(1,0,0,1,549.155029296875,816.0900268554688)"><path fill="rgb(255,255,255)" fill-opacity="1" d=" M-38.59700012207031,125.65599822998047 C-38.59700012207031,125.65599822998047 77.10600280761719,101.33999633789062 77.10600280761719,101.33999633789062 C77.10600280761719,101.33999633789062 57.57600021362305,-28.084999084472656 57.57600021362305,-28.084999084472656 C57.57600021362305,-28.084999084472656 54.13100051879883,-50.94900131225586 54.13100051879883,-50.94900131225586 C54.13100051879883,-50.94900131225586 42.854000091552734,-125.65599822998047 42.854000091552734,-125.65599822998047 C42.854000091552734,-125.65599822998047 -77.10600280761719,-111.97000122070312 -77.10600280761719,-111.97000122070312 C-77.10600280761719,-111.97000122070312 -62.21200180053711,-20.097999572753906 -62.21200180053711,-20.097999572753906 C-62.21200180053711,-20.097999572753906 -55.814998626708984,19.39299964904785 -55.814998626708984,19.39299964904785 C-55.814998626708984,19.39299964904785 -38.59700012207031,125.65599822998047 -38.59700012207031,125.65599822998047z"></path></g><g opacity="1" transform="matrix(1,0,0,1,546.8369750976562,800.31201171875)"><path fill="rgb(32,40,112)" fill-opacity="1" d=" M-53.49700164794922,35.17100143432617 C-15.984999656677246,-1.1260000467300415 51.1879997253418,-11.133000373840332 59.89400100708008,-12.307000160217285 C59.89400100708008,-12.307000160217285 56.44900131225586,-35.17100143432617 56.44900131225586,-35.17100143432617 C56.44900131225586,-35.17100143432617 -56.058998107910156,-13.78499984741211 -56.058998107910156,-13.78499984741211 C-56.058998107910156,-13.78499984741211 -57.678001403808594,-9.991999626159668 -59.89400100708008,-4.320000171661377 C-59.89400100708008,-4.320000171661377 -53.49700164794922,35.17100143432617 -53.49700164794922,35.17100143432617z"></path></g><g opacity="1" transform="matrix(1,0,0,1,611.6890258789062,815.2680053710938)"><path fill="rgb(132,132,250)" fill-opacity="1" d=" M15.083999633789062,103.0790023803711 C15.083999633789062,103.0790023803711 -15.083999633789062,-103.0790023803711 -15.083999633789062,-103.0790023803711"></path><path stroke-linecap="round" stroke-linejoin="round" fill-opacity="0" stroke="rgb(32,40,112)" stroke-opacity="1" stroke-width="2" d=" M15.083999633789062,103.0790023803711 C15.083999633789062,103.0790023803711 -15.083999633789062,-103.0790023803711 -15.083999633789062,-103.0790023803711"></path></g><g opacity="1" transform="matrix(1,0,0,1,491.36199951171875,823.2739868164062)"><path fill="rgb(132,132,250)" fill-opacity="1" d=" M-19.31100082397461,-119.15899658203125 C-19.31100082397461,-119.15899658203125 19.31100082397461,119.15899658203125 19.31100082397461,119.15899658203125"></path><path stroke-linecap="round" stroke-linejoin="round" fill-opacity="0" stroke="rgb(32,40,112)" stroke-opacity="1" stroke-width="2" d=" M-19.31100082397461,-119.15899658203125 C-19.31100082397461,-119.15899658203125 19.31100082397461,119.15899658203125 19.31100082397461,119.15899658203125"></path></g><g opacity="1" transform="matrix(1,0,0,1,536.60302734375,702.9539794921875)"><path fill="rgb(255,255,255)" fill-opacity="1" d=" M-23.14299964904785,18.979000091552734 C-12.66100025177002,31.76099967956543 6.197000026702881,33.625 18.979000091552734,23.14299964904785 C31.76099967956543,12.66100025177002 33.625,-6.197000026702881 23.14299964904785,-18.979000091552734 C12.66100025177002,-31.76099967956543 -6.197000026702881,-33.625 -18.979000091552734,-23.14299964904785 C-31.76099967956543,-12.66100025177002 -33.625,6.197000026702881 -23.14299964904785,18.979000091552734z"></path></g><g opacity="1" transform="matrix(1,0,0,1,536.60302734375,702.9539794921875)"><path fill="rgb(132,132,250)" fill-opacity="1" d=" M-58.483001708984375,47.95899963378906 C-31.996000289916992,80.25800323486328 15.65999984741211,84.97000122070312 47.95899963378906,58.483001708984375 C80.25800323486328,31.996000289916992 84.97000122070312,-15.65999984741211 58.483001708984375,-47.95899963378906 C31.996000289916992,-80.25800323486328 -15.65999984741211,-84.97000122070312 -47.95899963378906,-58.483001708984375 C-80.25800323486328,-31.996000289916992 -84.97000122070312,15.65999984741211 -58.483001708984375,47.95899963378906z"></path></g><g opacity="1" transform="matrix(1,0,0,1,547.0339965820312,751.9650268554688)"><path fill="rgb(132,132,250)" fill-opacity="1" d=" M-68.06099700927734,-72.07099914550781 C-68.06099700927734,-72.07099914550781 -95.12200164794922,-23.822999954223633 -72.052001953125,74.4219970703125 C-72.052001953125,74.4219970703125 -44.992000579833984,27.900999069213867 81.36399841308594,28.999000549316406 C81.36399841308594,28.999000549316406 61.805999755859375,-74.4219970703125 61.805999755859375,-74.4219970703125"></path><path stroke-linecap="round" stroke-linejoin="round" fill-opacity="0" stroke="rgb(32,40,112)" stroke-opacity="1" stroke-width="2" d=" M-68.06099700927734,-72.07099914550781 C-68.06099700927734,-72.07099914550781 -95.12200164794922,-23.822999954223633 -72.052001953125,74.4219970703125 C-72.052001953125,74.4219970703125 -44.992000579833984,27.900999069213867 81.36399841308594,28.999000549316406 C81.36399841308594,28.999000549316406 61.805999755859375,-74.4219970703125 61.805999755859375,-74.4219970703125"></path></g></g><g transform="matrix(0.9986295104026794,0.0523359589278698,-0.0523359589278698,0.9986295104026794,33.673828125,-54.92470169067383)" opacity="1" style="display: block;"><g opacity="1" transform="matrix(1,0,0,1,786.1729736328125,890.3480224609375)"><path fill="rgb(255,255,255)" fill-opacity="1" d=" M40.02399826049805,-16.844999313354492 C49.32699966430664,5.260000228881836 38.95000076293945,30.72100067138672 16.844999313354492,40.02399826049805 C-5.260000228881836,49.32699966430664 -30.72100067138672,38.95000076293945 -40.02399826049805,16.844999313354492 C-49.32699966430664,-5.260000228881836 -38.95000076293945,-30.72100067138672 -16.844999313354492,-40.02399826049805 C5.260000228881836,-49.32699966430664 30.72100067138672,-38.95000076293945 40.02399826049805,-16.844999313354492z"></path><path stroke-linecap="round" stroke-linejoin="round" fill-opacity="0" stroke="rgb(32,40,112)" stroke-opacity="1" stroke-width="2" d=" M40.02399826049805,-16.844999313354492 C49.32699966430664,5.260000228881836 38.95000076293945,30.72100067138672 16.844999313354492,40.02399826049805 C-5.260000228881836,49.32699966430664 -30.72100067138672,38.95000076293945 -40.02399826049805,16.844999313354492 C-49.32699966430664,-5.260000228881836 -38.95000076293945,-30.72100067138672 -16.844999313354492,-40.02399826049805 C5.260000228881836,-49.32699966430664 30.72100067138672,-38.95000076293945 40.02399826049805,-16.844999313354492z"></path></g><g opacity="1" transform="matrix(1,0,0,1,0,0)"><g opacity="1" transform="matrix(1,0,0,1,870.3939819335938,853.3170166015625)"><path fill="rgb(255,255,255)" fill-opacity="1" d=" M-21.385000228881836,-5.732999801635742 C-21.385000228881836,-5.732999801635742 10.781000137329102,-7.913000106811523 16.03499984741211,-7.1620001792907715 C21.288999557495117,-6.410999774932861 22.812000274658203,-1.6200000047683716 19.986000061035156,1.0509999990463257 C17.15999984741211,3.7219998836517334 9.78499984741211,7.320000171661377 9.78499984741211,7.320000171661377"></path><path stroke-linecap="round" stroke-linejoin="round" fill-opacity="0" stroke="rgb(32,40,112)" stroke-opacity="1" stroke-width="2" d=" M-21.385000228881836,-5.732999801635742 C-21.385000228881836,-5.732999801635742 10.781000137329102,-7.913000106811523 16.03499984741211,-7.1620001792907715 C21.288999557495117,-6.410999774932861 22.812000274658203,-1.6200000047683716 19.986000061035156,1.0509999990463257 C17.15999984741211,3.7219998836517334 9.78499984741211,7.320000171661377 9.78499984741211,7.320000171661377"></path></g><g opacity="1" transform="matrix(1,0,0,1,839.5659790039062,893.1389770507812)"><path fill="rgb(255,255,255)" fill-opacity="1" d=" M-57.18299865722656,-46.09700012207031 C-57.18299865722656,-46.09700012207031 24.913999557495117,-53.672000885009766 47.777000427246094,-33.66600036621094 C69.26499938964844,-14.86400032043457 72.01300048828125,-4.238999843597412 65.52100372314453,1.4559999704360962 C65.52100372314453,1.4559999704360962 71.73400115966797,15.630000114440918 59.7239990234375,15.253000259399414 C59.7239990234375,15.253000259399414 62.36199951171875,19.389999389648438 61.88600158691406,22.738000869750977 C61.380001068115234,26.297000885009766 57.14099884033203,30.284000396728516 51.57600021362305,27.570999145507812 C34.180999755859375,19.090999603271484 15.26099967956543,15.20199966430664 15.26099967956543,15.20199966430664 C15.26099967956543,15.20199966430664 34.28900146484375,29.909000396728516 40.823001861572266,36.047000885009766 C47.78900146484375,42.590999603271484 40.7760009765625,52.36199951171875 29.649999618530273,44.69900131225586 C19.283000946044922,37.558998107910156 1.9459999799728394,31.66900062561035 1.9459999799728394,31.66900062561035 C1.9459999799728394,31.66900062561035 -38.57899856567383,50.94599914550781 -68.61299896240234,37.6619987487793"></path><path stroke-linecap="round" stroke-linejoin="round" fill-opacity="0" stroke="rgb(32,40,112)" stroke-opacity="1" stroke-width="2" d=" M-57.18299865722656,-46.09700012207031 C-57.18299865722656,-46.09700012207031 24.913999557495117,-53.672000885009766 47.777000427246094,-33.66600036621094 C69.26499938964844,-14.86400032043457 72.01300048828125,-4.238999843597412 65.52100372314453,1.4559999704360962 C65.52100372314453,1.4559999704360962 71.73400115966797,15.630000114440918 59.7239990234375,15.253000259399414 C59.7239990234375,15.253000259399414 62.36199951171875,19.389999389648438 61.88600158691406,22.738000869750977 C61.380001068115234,26.297000885009766 57.14099884033203,30.284000396728516 51.57600021362305,27.570999145507812 C34.180999755859375,19.090999603271484 15.26099967956543,15.20199966430664 15.26099967956543,15.20199966430664 C15.26099967956543,15.20199966430664 34.28900146484375,29.909000396728516 40.823001861572266,36.047000885009766 C47.78900146484375,42.590999603271484 40.7760009765625,52.36199951171875 29.649999618530273,44.69900131225586 C19.283000946044922,37.558998107910156 1.9459999799728394,31.66900062561035 1.9459999799728394,31.66900062561035 C1.9459999799728394,31.66900062561035 -38.57899856567383,50.94599914550781 -68.61299896240234,37.6619987487793"></path></g><g opacity="1" transform="matrix(1,0,0,1,849.7830200195312,907.5009765625)"><path fill="rgb(255,255,255)" fill-opacity="1" d=" M7.008999824523926,1.9880000352859497 C7.008999824523926,1.9880000352859497 1.7109999656677246,-1.2139999866485596 -7.008999824523926,-1.9880000352859497"></path><path stroke-linecap="round" stroke-linejoin="round" fill-opacity="0" stroke="rgb(32,40,112)" stroke-opacity="1" stroke-width="2" d=" M7.008999824523926,1.9880000352859497 C7.008999824523926,1.9880000352859497 1.7109999656677246,-1.2139999866485596 -7.008999824523926,-1.9880000352859497"></path></g><g opacity="1" transform="matrix(1,0,0,1,874.0800170898438,897.6900024414062)"><path fill="rgb(255,255,255)" fill-opacity="1" d=" M25.209999084472656,10.70199966430664 C25.209999084472656,10.70199966430664 -0.9909999966621399,-12.836999893188477 -25.209999084472656,-10.545000076293945"></path><path stroke-linecap="round" stroke-linejoin="round" fill-opacity="0" stroke="rgb(32,40,112)" stroke-opacity="1" stroke-width="2" d=" M25.209999084472656,10.70199966430664 C25.209999084472656,10.70199966430664 -0.9909999966621399,-12.836999893188477 -25.209999084472656,-10.545000076293945"></path></g><g opacity="1" transform="matrix(1,0,0,1,879.2839965820312,882.1119995117188)"><path fill="rgb(255,255,255)" fill-opacity="1" d=" M27.226999282836914,14.105999946594238 C27.226999282836914,14.105999946594238 11.34000015258789,-5.75 -0.40400001406669617,-10.189000129699707 C-12.14799976348877,-14.628000259399414 -27.226999282836914,-14.085000038146973 -27.226999282836914,-14.085000038146973"></path><path stroke-linecap="round" stroke-linejoin="round" fill-opacity="0" stroke="rgb(32,40,112)" stroke-opacity="1" stroke-width="2" d=" M27.226999282836914,14.105999946594238 C27.226999282836914,14.105999946594238 11.34000015258789,-5.75 -0.40400001406669617,-10.189000129699707 C-12.14799976348877,-14.628000259399414 -27.226999282836914,-14.085000038146973 -27.226999282836914,-14.085000038146973"></path></g></g></g><g transform="matrix(0.9970808029174805,-0.07635357975959778,0.07635357975959778,0.9970808029174805,-79.68705749511719,47.626426696777344)" opacity="1" style="display: block;"><g opacity="0.46" transform="matrix(1,0,0,1,570.155029296875,930.9849853515625)"><path fill="rgb(255,255,255)" fill-opacity="1" d=" M-29.283000946044922,5.25600004196167 C-32.18600082397461,-10.916999816894531 -21.429000854492188,-26.3799991607666 -5.25600004196167,-29.283000946044922 C10.916999816894531,-32.18600082397461 26.3799991607666,-21.429000854492188 29.283000946044922,-5.25600004196167 C32.18600082397461,10.916999816894531 21.429000854492188,26.3799991607666 5.25600004196167,29.283000946044922 C-10.916999816894531,32.18600082397461 -26.3799991607666,21.429000854492188 -29.283000946044922,5.25600004196167z"></path></g><g opacity="1" transform="matrix(1,0,0,1,665.93701171875,918.5980224609375)"><path fill="rgb(255,255,255)" fill-opacity="1" d=" M113.052001953125,-71.0270004272461 C113.052001953125,-71.0270004272461 -113.052001953125,-46.62099838256836 -113.052001953125,-46.62099838256836 C-113.052001953125,-46.62099838256836 -83.68499755859375,71.0270004272461 -83.68499755859375,71.0270004272461 C-83.68499755859375,71.0270004272461 107.9469985961914,16.4950008392334 111.1259994506836,15.319999694824219"></path></g><g opacity="1" transform="matrix(1,0,0,1,680.2410278320312,961.8259887695312)"><path stroke-linecap="round" stroke-linejoin="round" fill-opacity="0" stroke="rgb(32,40,112)" stroke-opacity="1" stroke-width="2" d=" M-97.98899841308594,27.798999786376953 C-97.98899841308594,27.798999786376953 95.12699890136719,-27.163999557495117 97.98899841308594,-27.798999786376953"></path></g><g opacity="1" transform="matrix(1,0,0,1,699.6920166015625,856.7039794921875)"><path stroke-linecap="round" stroke-linejoin="round" fill-opacity="0" stroke="rgb(32,40,112)" stroke-opacity="1" stroke-width="2" d=" M79.2969970703125,-9.133000373840332 C79.2969970703125,-9.133000373840332 -79.2969970703125,9.133000373840332 -79.2969970703125,9.133000373840332"></path></g></g></g></svg>