<svg xmlns="http://www.w3.org/2000/svg" xmlns:xlink="http://www.w3.org/1999/xlink" viewBox="0 0 1600 1600" width="1600" height="1600" preserveAspectRatio="xMidYMid meet" style="width: 100%; height: 100%; transform: translate3d(0px, 0px, 0px); content-visibility: visible;"><defs><clipPath id="__lottie_element_2"><rect width="1600" height="1600" x="0" y="0"></rect></clipPath></defs><g clip-path="url(#__lottie_element_2)"><g transform="matrix(1,0,0,1,0,0)" opacity="1" style="display: block;"><g opacity="1" transform="matrix(1,0,0,1,0,0)"><g opacity="1" transform="matrix(1,0,0,1,358.31298828125,882.7780151367188)"><path fill="rgb(2,2,2)" fill-opacity="1" d=" M-18.59000015258789,-189.31300354003906 C-38.95000076293945,-185.8249969482422 -59.27799987792969,-182.04800415039062 -79.56900024414062,-177.9810028076172 C-36.28799819946289,-59.367000579833984 12.244999885559082,71.02999877929688 56.402000427246094,189.31300354003906 C64.10399627685547,186.2010040283203 71.82599639892578,183.13800048828125 79.56900024414062,180.12600708007812 C79.45600128173828,180.19900512695312 -1.0509999990463257,-65.77899932861328 -18.59000015258789,-189.31300354003906z"></path></g><g opacity="1" transform="matrix(1,0,0,1,323.3299865722656,861.094970703125)"><path fill="rgb(2,139,52)" fill-opacity="1" d=" M104.75399780273438,206.4029998779297 C104.62899780273438,206.44500732421875 63.89400100708008,74.94300079345703 -51.013999938964844,-218.3350067138672 C-69.02100372314453,-211.3260040283203 -86.93599700927734,-204.08399963378906 -104.75399780273438,-196.61199951171875 C35.35900115966797,109.44599914550781 74.9729995727539,218.48300170898438 75.302001953125,218.3350067138672 C85.08599853515625,214.2779998779297 94.90399932861328,210.3000030517578 104.75399780273438,206.4029998779297z"></path></g><g opacity="1" transform="matrix(1,0,0,1,299.70599365234375,886.9580078125)"><path fill="rgb(2,139,52)" fill-opacity="1" d=" M-114.75599670410156,-153.00999450683594 C-99.927001953125,-167.0970001220703 -84.88200378417969,-181.0030059814453 -69.62300109863281,-194.72500610351562 C-35.65599822998047,-153.4949951171875 -1.3389999866485596,-89.7020034790039 28.327999114990234,-26.086999893188477 C77.77300262451172,79.93900299072266 114.3010025024414,185.4720001220703 114.75599670410156,185.23599243164062 C107.05400085449219,188.35000610351562 99.37300109863281,191.51199340820312 91.71099853515625,194.72500610351562 C91.6780014038086,194.83700561523438 -25.843000411987305,-58.0890007019043 -114.75599670410156,-153.00999450683594z"></path></g><g opacity="1" transform="matrix(1,0,0,1,322.2720031738281,882.2130126953125)"><path stroke-linecap="round" stroke-linejoin="round" fill-opacity="0" stroke="rgb(2,2,2)" stroke-opacity="1" stroke-width="1.7" d=" M-92.19000244140625,-189.9810028076172 C-58.222999572753906,-148.75100708007812 -23.905000686645508,-84.95800018310547 5.76200008392334,-21.343000411987305 C55.207000732421875,84.68299865722656 91.73500061035156,190.21600341796875 92.19000244140625,189.97999572753906"></path></g><g opacity="1" transform="matrix(1,0,0,1,432.1940002441406,1124.407958984375)"><path fill="rgb(2,139,52)" fill-opacity="1" d=" M40.777000427246094,43.48699951171875 C27.687999725341797,48.625999450683594 14.659000396728516,53.91600036621094 1.6890000104904175,59.35499954223633 C-14.071000099182129,21.347000122070312 -25.01799964904785,-4.7170000076293945 -40.777000427246094,-42.724998474121094 C-27.184999465942383,-48.42499923706055 -13.531000137329102,-53.96900177001953 0.18799999356269836,-59.35499954223633 C15.321000099182129,-21.091999053955078 25.643999099731445,5.223999977111816 40.777000427246094,43.48699951171875z"></path></g><g opacity="1" transform="matrix(1,0,0,1,279.32000732421875,933.7579956054688)"><path fill="rgb(2,139,52)" fill-opacity="1" d=" M135.06900024414062,156.46299743652344 C134.5919952392578,156.9080047607422 110.45700073242188,102.40799713134766 64.28199768066406,31.808000564575195 C25.43600082397461,-27.584999084472656 -29.007999420166016,-98.37200164794922 -98.08899688720703,-157.4250030517578 C-110.6449966430664,-141.76800537109375 -122.9729995727539,-125.97599792480469 -135.06900024414062,-110.05500030517578 C24.523000717163086,11.861000061035156 95.74299621582031,155.4199981689453 96.5770034790039,154.51400756835938 C106.31199645996094,150.3300018310547 125.26799774169922,160.48399353027344 135.06900024414062,156.46299743652344z"></path></g><g opacity="1" transform="matrix(1,0,0,1,297.80999755859375,933.2780151367188)"><path stroke-linecap="round" stroke-linejoin="round" fill-opacity="0" stroke="rgb(2,2,2)" stroke-opacity="1" stroke-width="1.7" d=" M116.5790023803711,156.94200134277344 C116.10199737548828,157.38699340820312 91.96700286865234,102.88800048828125 45.79199981689453,32.28799819946289 C6.946000099182129,-27.104999542236328 -47.49800109863281,-97.89199829101562 -116.5790023803711,-156.94500732421875"></path></g><g opacity="1" transform="matrix(1,0,0,1,433.07598876953125,1136.094970703125)"><path fill="rgb(239,228,181)" fill-opacity="1" d=" M20.799999237060547,-79.33300018310547 C11.244000434875488,-75.71299743652344 1.715000033378601,-72.01499938964844 -7.78000020980835,-68.24299621582031 C-3.378000020980835,-46.946998596191406 -1.496999979019165,-34.194000244140625 3.0810000896453857,-12.944999694824219 C-8.034000396728516,-31.55299949645996 -7.427999973297119,-27.344999313354492 -18.687000274658203,-45.875 C-28.488000869750977,-41.85300064086914 -47.44499969482422,-52.00699996948242 -57.18000030517578,-47.823001861572266 C-57.18000030517578,-47.823001861572266 -34.138999938964844,16.052000045776367 -34.138999938964844,16.052000045776367 C-15.520999908447266,59.5359992980957 21.549999237060547,79.24400329589844 21.485000610351562,79.33300018310547 C26.632999420166016,77.197998046875 31.790000915527344,75.08599853515625 36.957000732421875,72.99800109863281 C42.124000549316406,70.91000366210938 47.30099868774414,68.84600067138672 52.48699951171875,66.80599975585938 C52.37699890136719,66.78700256347656 65.37200164794922,26.850000381469727 48.58100128173828,-17.374000549316406 C48.58100128173828,-17.374000549316406 20.809999465942383,-79.33799743652344 20.799999237060547,-79.33300018310547z"></path></g><g opacity="1" transform="matrix(1,0,0,1,413.78900146484375,886.1909790039062)"><path fill="rgb(2,139,52)" fill-opacity="1" d=" M15.522000312805176,201.89599609375 C15.817000389099121,201.968994140625 -3.7279999256134033,140.3300018310547 -19.732999801635742,59.01900100708008 C-35.737998962402344,-22.29199981689453 -48.20399856567383,-123.2770004272461 -33.750999450683594,-201.89599609375 C-14.894000053405762,-200.50399780273438 3.9149999618530273,-198.87899780273438 22.670000076293945,-197.0240020751953 C-22.242000579833984,21.166000366210938 41.98099899291992,170.6510009765625 40.08700180053711,170.5709991455078 C30.5310001373291,174.1909942626953 25.017000198364258,198.12399291992188 15.522000312805176,201.89599609375z"></path></g><g opacity="1" transform="matrix(1,0,0,1,401.4880065917969,886.1909790039062)"><path stroke-linecap="round" stroke-linejoin="round" fill-opacity="0" stroke="rgb(2,2,2)" stroke-opacity="1" stroke-width="1.7" d=" M27.822999954223633,201.89599609375 C28.118000030517578,201.968994140625 8.572999954223633,140.3300018310547 -7.432000160217285,59.01900100708008 C-23.437000274658203,-22.29199981689453 -35.90299987792969,-123.2770004272461 -21.450000762939453,-201.89599609375"></path></g></g><g opacity="1" transform="matrix(1,0,0,1,463.3949890136719,1142.7149658203125)"><path fill="rgb(239,228,181)" fill-opacity="1" d=" M22.062999725341797,60.268001556396484 C22.062999725341797,60.268001556396484 21.860000610351562,60.30799865722656 21.860000610351562,60.30799865722656 C21.964000701904297,60.268001556396484 22.065000534057617,60.224998474121094 22.167999267578125,60.185001373291016 C22.058000564575195,60.16600036621094 35.053001403808594,20.229999542236328 18.261999130249023,-23.993999481201172 C18.261999130249023,-23.993999481201172 -9.519000053405762,-85.9540023803711 -9.519000053405762,-85.9540023803711 C-19.075000762939453,-82.33300018310547 -24.58799934387207,-58.4010009765625 -34.08399963378906,-54.62900161743164 C-27.989999771118164,-24.52199935913086 -24.52899932861328,-4.718999862670898 -20.52400016784668,16.360000610351562 C-17.43600082397461,32.6150016784668 -14.024999618530273,49.62799835205078 -8.833999633789062,72.71199798583984 C-8.833999633789062,72.71199798583984 -13.795999526977539,76.95099639892578 -12.776000022888184,85.9540023803711 C-12.776000022888184,85.9540023803711 -6.6519999504089355,73.31999969482422 -1.3589999675750732,73.07099914550781 C-1.3589999675750732,73.07099914550781 3.6029999256134033,84.34700012207031 3.6029999256134033,84.34700012207031 C3.6029999256134033,84.34700012207031 5.294000148773193,71.64700317382812 8.218000411987305,70.46900177001953 C11.142000198364258,69.29100036621094 21.163000106811523,77.27400207519531 21.163000106811523,77.27400207519531 C21.163000106811523,77.27400207519531 16.924999237060547,65.70700073242188 16.924999237060547,65.70700073242188 C20.91200065612793,62.21799850463867 34.08399963378906,67.08000183105469 34.08399963378906,67.08000183105469 C28.57900047302246,59.882999420166016 22.062999725341797,60.268001556396484 22.062999725341797,60.268001556396484z"></path></g></g><g transform="matrix(1,0,0,1,0,0)" opacity="1" style="display: block;"><g opacity="1" transform="matrix(1,0,0,1,505.635009765625,835.6220092773438)"><path stroke-linecap="round" stroke-linejoin="round" fill-opacity="0" stroke="rgb(2,2,2)" stroke-opacity="1" stroke-width="1.7" d=" M159.0500030517578,40.143001556396484 C159.0500030517578,40.143001556396484 159.0500030517578,377.6180114746094 159.0500030517578,377.6180114746094 C159.0500030517578,388.8869934082031 150.0590057373047,397.87701416015625 138.78900146484375,397.87701416015625 C138.78900146484375,397.87701416015625 -138.78799438476562,397.87701416015625 -138.78799438476562,397.87701416015625 C-149.9320068359375,397.87701416015625 -159.0500030517578,388.8869934082031 -159.0500030517578,377.6180114746094 C-159.0500030517578,377.6180114746094 -159.0500030517578,40.143001556396484 -159.0500030517578,40.143001556396484 C-159.0500030517578,8.357999801635742 -146.13400268554688,-20.51300048828125 -125.23899841308594,-41.409000396728516 C-104.34500122070312,-62.301998138427734 -75.4729995727539,-75.21900177001953 -43.5620002746582,-75.21900177001953 C-43.5620002746582,-75.21900177001953 -43.5620002746582,-397.87701416015625 -43.5620002746582,-397.87701416015625 C-43.5620002746582,-397.87701416015625 43.6879997253418,-397.87701416015625 43.6879997253418,-397.87701416015625 C43.6879997253418,-397.87701416015625 43.6879997253418,-75.21900177001953 43.6879997253418,-75.21900177001953 C107.38400268554688,-75.21900177001953 159.0500030517578,-23.55299949645996 159.0500030517578,40.143001556396484z"></path></g><g opacity="1" transform="matrix(1,0,0,1,503.69500732421875,428.1510009765625)"><path fill="rgb(2,2,2)" fill-opacity="1" d=" M0,67.1760025024414 C0,67.1760025024414 0,67.1760025024414 0,67.1760025024414 C-18.415000915527344,67.1760025024414 -33.34299850463867,52.24800109863281 -33.34299850463867,33.83300018310547 C-33.34299850463867,33.83300018310547 -33.34299850463867,-33.83300018310547 -33.34299850463867,-33.83300018310547 C-33.34299850463867,-52.24800109863281 -18.415000915527344,-67.1760025024414 0,-67.1760025024414 C0,-67.1760025024414 0,-67.1760025024414 0,-67.1760025024414 C18.415000915527344,-67.1760025024414 33.34299850463867,-52.24800109863281 33.34299850463867,-33.83300018310547 C33.34299850463867,-33.83300018310547 33.34299850463867,33.83300018310547 33.34299850463867,33.83300018310547 C33.34299850463867,52.24800109863281 18.415000915527344,67.1760025024414 0,67.1760025024414z"></path></g><g opacity="1" transform="matrix(1,0,0,1,505.656005859375,428.1510009765625)"><path fill="rgb(255,255,255)" fill-opacity="1" d=" M54.060001373291016,9.562000274658203 C54.060001373291016,9.562000274658203 -54.060001373291016,9.562000274658203 -54.060001373291016,9.562000274658203 C-59.340999603271484,9.562000274658203 -63.62099838256836,5.281000137329102 -63.62099838256836,0 C-63.62099838256836,0 -63.62099838256836,0 -63.62099838256836,0 C-63.62099838256836,-5.281000137329102 -59.340999603271484,-9.562000274658203 -54.060001373291016,-9.562000274658203 C-54.060001373291016,-9.562000274658203 54.060001373291016,-9.562000274658203 54.060001373291016,-9.562000274658203 C59.340999603271484,-9.562000274658203 63.62099838256836,-5.281000137329102 63.62099838256836,0 C63.62099838256836,0 63.62099838256836,0 63.62099838256836,0 C63.62099838256836,5.281000137329102 59.340999603271484,9.562000274658203 54.060001373291016,9.562000274658203z"></path><path stroke-linecap="round" stroke-linejoin="round" fill-opacity="0" stroke="rgb(2,2,2)" stroke-opacity="1" stroke-width="1.7" d=" M54.060001373291016,9.562000274658203 C54.060001373291016,9.562000274658203 -54.060001373291016,9.562000274658203 -54.060001373291016,9.562000274658203 C-59.340999603271484,9.562000274658203 -63.62099838256836,5.281000137329102 -63.62099838256836,0 C-63.62099838256836,0 -63.62099838256836,0 -63.62099838256836,0 C-63.62099838256836,-5.281000137329102 -59.340999603271484,-9.562000274658203 -54.060001373291016,-9.562000274658203 C-54.060001373291016,-9.562000274658203 54.060001373291016,-9.562000274658203 54.060001373291016,-9.562000274658203 C59.340999603271484,-9.562000274658203 63.62099838256836,-5.281000137329102 63.62099838256836,0 C63.62099838256836,0 63.62099838256836,0 63.62099838256836,0 C63.62099838256836,5.281000137329102 59.340999603271484,9.562000274658203 54.060001373291016,9.562000274658203z"></path></g><g opacity="1" transform="matrix(1,0,0,1,505.656005859375,1000.1950073242188)"><path fill="rgb(255,192,68)" fill-opacity="1" d=" M125.03600311279297,211.1909942626953 C125.03600311279297,211.1909942626953 -125.03600311279297,211.1909942626953 -125.03600311279297,211.1909942626953 C-125.03600311279297,211.1909942626953 -125.03600311279297,-122.9260025024414 -125.03600311279297,-122.9260025024414 C-125.03600311279297,-171.67300415039062 -85.51899719238281,-211.1909942626953 -36.77199935913086,-211.1909942626953 C-36.77199935913086,-211.1909942626953 36.77199935913086,-211.1909942626953 36.77199935913086,-211.1909942626953 C85.51899719238281,-211.1909942626953 125.03600311279297,-171.67300415039062 125.03600311279297,-122.9260025024414 C125.03600311279297,-122.9260025024414 125.03600311279297,211.1909942626953 125.03600311279297,211.1909942626953z"></path></g><g opacity="1" transform="matrix(1,0,0,1,503.69500732421875,943.8619995117188)"><path fill="rgb(239,228,181)" fill-opacity="1" d=" M99.29299926757812,49.64699935913086 C99.29299926757812,49.64699935913086 -99.29299926757812,49.64699935913086 -99.29299926757812,49.64699935913086 C-99.29299926757812,49.64699935913086 -99.29299926757812,-49.64699935913086 -99.29299926757812,-49.64699935913086 C-99.29299926757812,-49.64699935913086 99.29299926757812,-49.64699935913086 99.29299926757812,-49.64699935913086 C99.29299926757812,-49.64699935913086 99.29299926757812,49.64699935913086 99.29299926757812,49.64699935913086z"></path></g><g opacity="1" transform="matrix(1,0,0,1,499.7720031738281,943.8619995117188)"><path stroke-linecap="round" stroke-linejoin="round" fill-opacity="0" stroke="rgb(2,2,2)" stroke-opacity="1" stroke-width="1.7" d=" M-73.05999755859375,0 C-73.05999755859375,0 73.05999755859375,0 73.05999755859375,0"></path></g></g><g transform="matrix(1,0,0,1,0,0)" opacity="1" style="display: block;"><g opacity="1" transform="matrix(1,0,0,1,320.864990234375,1120.4859619140625)"><path fill="rgb(254,52,86)" fill-opacity="1" d=" M23.38800048828125,-111.0459976196289 C84.71700286865234,-98.12899780273438 123.96299743652344,-37.941001892089844 111.0459976196289,23.38800048828125 C98.12899780273438,84.71700286865234 37.941001892089844,123.96299743652344 -23.38800048828125,111.0459976196289 C-84.71700286865234,98.12899780273438 -123.96299743652344,37.941001892089844 -111.0459976196289,-23.38800048828125 C-98.12899780273438,-84.71700286865234 -37.941001892089844,-123.96299743652344 23.38800048828125,-111.0459976196289z"></path></g><g opacity="1" transform="matrix(1,0,0,1,0,0)"><g opacity="1" transform="matrix(1,0,0,1,182.27000427246094,1110.0469970703125)"><path fill="rgb(2,139,52)" fill-opacity="1" d=" M-5.11299991607666,-9.329999923706055 C10.550999641418457,-17.913999557495117 28.363000869750977,-15.543000221252441 28.363000869750977,-15.543000221252441 C28.363000869750977,-15.543000221252441 20.777000427246094,0.7459999918937683 5.11299991607666,9.329999923706055 C-10.550999641418457,17.913999557495117 -28.363000869750977,15.543000221252441 -28.363000869750977,15.543000221252441 C-28.363000869750977,15.543000221252441 -20.777000427246094,-0.7459999918937683 -5.11299991607666,-9.329999923706055z"></path></g><g opacity="1" transform="matrix(1,0,0,1,205.7570037841797,1129.8719482421875)"><path fill="rgb(2,139,52)" fill-opacity="1" d=" M4.395999908447266,-35.8120002746582 C4.395999908447266,-35.8120002746582 18.591999053955078,-19.3700008392334 12.204999923706055,4.940999984741211 C6.053999900817871,28.354000091552734 -13.855999946594238,35.8120002746582 -13.855999946594238,35.8120002746582 C-13.855999946594238,35.8120002746582 4.395999908447266,-35.8120002746582 4.395999908447266,-35.8120002746582z"></path></g><g opacity="1" transform="matrix(1,0,0,1,224.33099365234375,1058.3719482421875)"><path fill="rgb(2,139,52)" fill-opacity="1" d=" M-14.178000450134277,35.6879997253418 C-14.178000450134277,35.6879997253418 6.25600004196167,28.315000534057617 12.605999946594238,3.99399995803833 C18.722000122070312,-19.429000854492188 5.0229997634887695,-35.6879997253418 5.0229997634887695,-35.6879997253418 C5.0229997634887695,-35.6879997253418 -14.178000450134277,35.6879997253418 -14.178000450134277,35.6879997253418z"></path></g><g opacity="1" transform="matrix(1,0,0,1,194.27699279785156,1066.60302734375)"><path fill="rgb(2,139,52)" fill-opacity="1" d=" M9.178000450134277,-5.380000114440918 C18.211000442504883,10.029999732971191 16.356000900268555,27.902000427246094 16.356000900268555,27.902000427246094 C16.356000900268555,27.902000427246094 -0.14499999582767487,20.790000915527344 -9.178000450134277,5.380000114440918 C-18.211000442504883,-10.029999732971191 -16.356000900268555,-27.902000427246094 -16.356000900268555,-27.902000427246094 C-16.356000900268555,-27.902000427246094 0.14499999582767487,-20.790000915527344 9.178000450134277,-5.380000114440918z"></path></g><g opacity="1" transform="matrix(1,0,0,1,233.97300720214844,1100.2740478515625)"><path fill="rgb(2,139,52)" fill-opacity="1" d=" M-2.0439999103546143,7.835000038146973 C-15.199000358581543,4.4029998779296875 -23.819000244140625,-6.214000225067139 -23.819000244140625,-6.214000225067139 C-23.819000244140625,-6.214000225067139 -11.111000061035156,-11.267000198364258 2.0439999103546143,-7.835000038146973 C15.199000358581543,-4.4029998779296875 23.819000244140625,6.214000225067139 23.819000244140625,6.214000225067139 C23.819000244140625,6.214000225067139 11.111000061035156,11.267000198364258 -2.0439999103546143,7.835000038146973z"></path></g><g opacity="1" transform="matrix(1,0,0,1,186.08200073242188,1087.4630126953125)"><path stroke-linecap="round" stroke-linejoin="round" fill-opacity="0" stroke="rgb(2,2,2)" stroke-opacity="1" stroke-width="1.7" d=" M24.593000411987305,6.703999996185303 C24.593000411987305,6.703999996185303 -24.593000411987305,-6.703999996185303 -24.593000411987305,-6.703999996185303"></path></g></g></g><g transform="matrix(1,0,0,1,570.0910034179688,1091.7359619140625)" opacity="1" style="display: block;"><g opacity="1" transform="matrix(1,0,0,1,0,0)"><path fill="rgb(2,2,2)" fill-opacity="1" d=" M94.59400177001953,-122.76899719238281 C94.59400177001953,-122.76899719238281 94.59400177001953,121.50499725341797 94.59400177001953,121.50499725341797 C94.59400177001953,132.7740020751953 85.60299682617188,141.76400756835938 74.33300018310547,141.76400756835938 C74.33300018310547,141.76400756835938 -94.59400177001953,141.76400756835938 -94.59400177001953,141.76400756835938 C-94.59400177001953,141.76400756835938 8.864999771118164,-145.01400756835938 8.864999771118164,-145.01400756835938 C8.864999771118164,-145.01400756835938 94.59400177001953,-122.76899719238281 94.59400177001953,-122.76899719238281z"></path></g></g><g transform="matrix(1,0,0,1,0,-4)" opacity="1" style="display: block;"><g opacity="1" transform="matrix(1,0,0,1,880.9869995117188,947.0670166015625)"><path fill="rgb(239,228,181)" fill-opacity="1" d=" M-277.0060119628906,44.10200119018555 C-276.1180114746094,30.96299934387207 -274.8160095214844,17.85099983215332 -273.1029968261719,4.793000221252441 C-271.47100830078125,-7.64900016784668 -268.89898681640625,-21.113000869750977 -259.44500732421875,-29.364999771118164 C-253.8990020751953,-34.20600128173828 -246.64599609375,-36.59000015258789 -239.4770050048828,-38.25899887084961 C-227.375,-41.07699966430664 -214.3990020751953,-42.14099884033203 -202.73199462890625,-37.8650016784668 C-185.0030059814453,-31.367000579833984 -173.86199951171875,-14.182000160217285 -164,1.9210000038146973 C-155.76699829101562,-8.75 -146.0189971923828,-20.302000045776367 -132.60899353027344,-21.6560001373291 C-117.78900146484375,-23.152000427246094 -105.19300079345703,-11.635000228881836 -94.79299926757812,-0.9710000157356262 C-86.27799987792969,-22.423999786376953 -88.00599670410156,-46.74100112915039 -80.49400329589844,-68.56600189208984 C-77.55799865722656,-77.0979995727539 -72.67900085449219,-85.68199920654297 -64.48899841308594,-89.46800231933594 C-60.000999450683594,-91.54299926757812 -54.946998596191406,-91.96900177001953 -50.0099983215332,-92.23799896240234 C-39.314998626708984,-92.82099914550781 -28.589000701904297,-92.81199645996094 -17.895000457763672,-92.21099853515625 C-7.928999900817871,-91.6510009765625 2.2790000438690186,-90.49800109863281 11.144000053405762,-85.91000366210938 C20.009000778198242,-81.3219985961914 27.347000122070312,-72.61299896240234 27.698999404907227,-62.63800048828125 C45.21699905395508,-77.43599700927734 70.23300170898438,-82.84200286865234 92.2979965209961,-76.5979995727539 C114.36299896240234,-70.35399627685547 132.83700561523438,-52.64099884033203 140.0030059814453,-30.857999801635742 C144.6479949951172,-37.93600082397461 152.66400146484375,-42.11399841308594 160.77000427246094,-44.55699920654297 C190.2050018310547,-53.428001403808594 223.55599975585938,-41.99100112915039 244.8800048828125,-19.847000122070312 C266.2040100097656,2.296999931335449 276.3340148925781,33.599998474121094 277.0060119628906,64.33499908447266 C214.51600646972656,81.46099853515625 149.44200134277344,86.82499694824219 84.7229995727539,89.9530029296875 C-16.10300064086914,94.82599639892578 -117.6989974975586,94.41600036621094 -217.2949981689453,77.9739990234375 C-232.0679931640625,75.53500366210938 -247.31900024414062,72.52400207519531 -259.4739990234375,63.78099822998047 C-271.6289978027344,55.03799819946289 -279.7900085449219,38.95399856567383 -274.8299865722656,24.82699966430664"></path></g><g opacity="1" transform="matrix(1,0,0,1,875.1580200195312,1094.4759521484375)"><path fill="rgb(70,131,236)" fill-opacity="1" d=" M-27.26300048828125,144.5489959716797 C-27.26300048828125,144.5489959716797 27.26300048828125,144.5489959716797 27.26300048828125,144.5489959716797 C175.79600524902344,144.5489959716797 296.20599365234375,24.139999389648438 296.20599365234375,-124.39299774169922 C296.20599365234375,-124.39299774169922 296.20599365234375,-144.5489959716797 296.20599365234375,-144.5489959716797 C296.20599365234375,-144.5489959716797 -296.20599365234375,-144.5489959716797 -296.20599365234375,-144.5489959716797 C-296.20599365234375,-144.5489959716797 -296.20599365234375,-124.39299774169922 -296.20599365234375,-124.39299774169922 C-296.20599365234375,24.139999389648438 -175.79600524902344,144.5489959716797 -27.26300048828125,144.5489959716797z"></path></g></g><g transform="matrix(1,0,0,1,0,0)" opacity="1" style="display: block;"><g opacity="1" transform="matrix(1,0,0,1,979.7689819335938,1118.56103515625)"><path fill="rgb(254,52,86)" fill-opacity="1" d=" M116.3479995727539,11.088000297546387 C110.2239990234375,75.34500122070312 53.16899871826172,122.47200012207031 -11.088000297546387,116.3479995727539 C-75.34500122070312,110.2239990234375 -122.47200012207031,53.16899871826172 -116.3479995727539,-11.088000297546387 C-110.2239990234375,-75.34500122070312 -53.16899871826172,-122.47200012207031 11.088000297546387,-116.3479995727539 C75.34500122070312,-110.2239990234375 122.47200012207031,-53.16899871826172 116.3479995727539,11.088000297546387z"></path></g><g opacity="1" transform="matrix(1,0,0,1,0,0)"><g opacity="1" transform="matrix(1,0,0,1,974.4180297851562,975.5180053710938)"><path fill="rgb(2,139,52)" fill-opacity="1" d=" M8.956999778747559,-6.311999797821045 C19.554000854492188,8.72599983215332 19.187000274658203,27.22800064086914 19.187000274658203,27.22800064086914 C19.187000274658203,27.22800064086914 1.6399999856948853,21.350000381469727 -8.956999778747559,6.311999797821045 C-19.554000854492188,-8.72599983215332 -19.187000274658203,-27.22800064086914 -19.187000274658203,-27.22800064086914 C-19.187000274658203,-27.22800064086914 -1.6399999856948853,-21.350000381469727 8.956999778747559,-6.311999797821045z"></path></g><g opacity="1" transform="matrix(1,0,0,1,956.2999877929688,1003.635009765625)"><path fill="rgb(2,139,52)" fill-opacity="1" d=" M37.70500183105469,-1.430999994277954 C37.70500183105469,-1.430999994277954 22.520999908447266,14.99899959564209 -3.0980000495910645,11.274999618530273 C-27.770000457763672,7.688000202178955 -37.70500183105469,-11.824000358581543 -37.70500183105469,-11.824000358581543 C-37.70500183105469,-11.824000358581543 37.70500183105469,-1.430999994277954 37.70500183105469,-1.430999994277954z"></path></g><g opacity="1" transform="matrix(1,0,0,1,1031.637939453125,1014.333984375)"><path fill="rgb(2,139,52)" fill-opacity="1" d=" M-37.632999420166016,-12.130000114440918 C-37.632999420166016,-12.130000114440918 -27.724000930786133,7.927999973297119 -2.0999999046325684,11.61299991607666 C22.577999114990234,15.161999702453613 37.632999420166016,-0.7369999885559082 37.632999420166016,-0.7369999885559082 C37.632999420166016,-0.7369999885559082 -37.632999420166016,-12.130000114440918 -37.632999420166016,-12.130000114440918z"></path></g><g opacity="1" transform="matrix(1,0,0,1,1020.2680053710938,982.780029296875)"><path fill="rgb(2,139,52)" fill-opacity="1" d=" M6.567999839782715,8.770000457763672 C-8.156999588012695,19.797000885009766 -26.66200065612793,19.965999603271484 -26.66200065612793,19.965999603271484 C-26.66200065612793,19.965999603271484 -21.292999267578125,2.256999969482422 -6.567999839782715,-8.770000457763672 C8.156999588012695,-19.797000885009766 26.66200065612793,-19.965999603271484 26.66200065612793,-19.965999603271484 C26.66200065612793,-19.965999603271484 21.292999267578125,-2.256999969482422 6.567999839782715,8.770000457763672z"></path></g><g opacity="1" transform="matrix(1,0,0,1,990.4010009765625,1027.2989501953125)"><path fill="rgb(2,139,52)" fill-opacity="1" d=" M-8.255000114440918,-1.184999942779541 C-6.264999866485596,-15.045000076293945 3.6040000915527344,-25.094999313354492 3.6040000915527344,-25.094999313354492 C3.6040000915527344,-25.094999313354492 10.244999885559082,-12.675000190734863 8.255000114440918,1.184999942779541 C6.264999866485596,15.045000076293945 -3.6040000915527344,25.094999313354492 -3.6040000915527344,25.094999313354492 C-3.6040000915527344,25.094999313354492 -10.244999885559082,12.675000190734863 -8.255000114440918,-1.184999942779541z"></path></g><g opacity="1" transform="matrix(1,0,0,1,997.9710083007812,976.8070068359375)"><path stroke-linecap="round" stroke-linejoin="round" fill-opacity="0" stroke="rgb(2,2,2)" stroke-opacity="1" stroke-width="1.7" d=" M-4.014999866485596,25.944000244140625 C-4.014999866485596,25.944000244140625 4.014999866485596,-25.944000244140625 4.014999866485596,-25.944000244140625"></path></g></g></g><g transform="matrix(1,0,0,1,0,0)" opacity="1" style="display: block;"><g opacity="1" transform="matrix(1,0,0,1,1150.9630126953125,1147.449951171875)"><path fill="rgb(2,139,52)" fill-opacity="1" d=" M-91.43599700927734,52.71500015258789 C-85.23500061035156,58.77899932861328 -80.90799713134766,64.91699981689453 -77.5469970703125,72.95500183105469 C-74.46399688720703,80.3280029296875 -73.09500122070312,86.5719985961914 -64.32599639892578,87.30799865722656 C-64.31199645996094,87.30899810791016 -64.2979965209961,87.31099700927734 -64.28399658203125,87.31199645996094 C-61.76599884033203,87.51899719238281 -59.27000045776367,86.69499969482422 -57.25899887084961,85.16600036621094 C-57.25899887084961,85.16600036621094 95.13200378417969,-30.707000732421875 95.13200378417969,-30.707000732421875 C101.8219985961914,-35.79199981689453 103.12300109863281,-45.34199905395508 98.03600311279297,-52.03900146484375 C98.03600311279297,-52.03900146484375 75.76200103759766,-81.33300018310547 75.76200103759766,-81.33300018310547 C70.66699981689453,-88.02899932861328 61.11899948120117,-89.322998046875 54.42900085449219,-84.23799896240234 C54.42900085449219,-84.23799896240234 -97.06500244140625,30.94499969482422 -97.06500244140625,30.94499969482422 C-101.83499908447266,34.571998596191406 -102.5530014038086,41.547000885009766 -98.50399780273438,45.96500015258789 C-96.16300201416016,48.52000045776367 -93.39800262451172,50.79600143432617 -91.43599700927734,52.71500015258789z"></path></g><g opacity="1" transform="matrix(1,0,0,1,1185.93505859375,1116.885009765625)"><path fill="rgb(2,2,2)" fill-opacity="1" d=" M-56.016998291015625,36.2869987487793 C-45.65700149536133,45.89799880981445 -34.6619987487793,54.94499969482422 -23.066999435424805,63.12099838256836 C-23.066999435424805,63.12099838256836 68.47699737548828,-6.485000133514404 68.47699737548828,-6.485000133514404 C75.16699981689453,-11.569999694824219 76.46800231933594,-21.1200008392334 71.38099670410156,-27.816999435424805 C71.38099670410156,-27.816999435424805 49.10599899291992,-57.11199951171875 49.10599899291992,-57.11199951171875 C44.012001037597656,-63.80799865722656 34.4640007019043,-65.10099792480469 27.77400016784668,-60.01599884033203 C27.77400016784668,-60.01599884033203 -74.48500061035156,17.732999801635742 -74.48500061035156,17.732999801635742 C-68.58399963378906,24.187000274658203 -62.39500045776367,30.3700008392334 -56.016998291015625,36.2869987487793z"></path></g><g opacity="1" transform="matrix(1,0,0,1,1177.9320068359375,1047.2320556640625)"><path fill="rgb(2,139,52)" fill-opacity="1" d=" M50.551998138427734,66.48100280761719 C13.833999633789062,94.40399932861328 -38.569000244140625,87.26799774169922 -66.48400115966797,50.54800033569336 C-94.40599822998047,13.829000473022461 -87.26899719238281,-38.566001892089844 -50.54899978637695,-66.48100280761719 C-13.831000328063965,-94.40399932861328 38.56399917602539,-87.26699829101562 66.48699951171875,-50.54899978637695 C94.40299987792969,-13.829000473022461 87.2699966430664,38.558998107910156 50.551998138427734,66.48100280761719z"></path></g><g opacity="1" transform="matrix(1,0,0,1,1261.97705078125,1134.5899658203125)"><path fill="rgb(2,139,52)" fill-opacity="1" d=" M60.46500015258789,79.5250015258789 C16.541000366210938,112.91699981689453 -46.12699890136719,104.38300323486328 -79.51799774169922,60.459999084472656 C-97.84500122070312,36.361000061035156 -103.5459976196289,6.614999771118164 -97.69999694824219,-20.843000411987305 C-92.89299774169922,-43.42100143432617 -80.27899932861328,-64.45099639892578 -60.459999084472656,-79.52200317382812 C-16.54599952697754,-112.91999816894531 46.13100051879883,-104.37999725341797 79.52100372314453,-60.4640007019043 C112.91100311279297,-16.54800033569336 104.38600158691406,46.125999450683594 60.46500015258789,79.5250015258789z"></path></g><g opacity="1" transform="matrix(1,0,0,1,1181.7960205078125,1125.0589599609375)"><path stroke-linecap="round" stroke-linejoin="round" fill-opacity="0" stroke="rgb(2,2,2)" stroke-opacity="1" stroke-width="1.7" d=" M0.6629999876022339,69.99099731445312 C-17.663999557495117,45.891998291015625 -23.36400032043457,16.145999908447266 -17.51799964904785,-11.312000274658203 C-12.711000442504883,-33.88999938964844 -0.09799999743700027,-54.91999816894531 19.72100067138672,-69.99099731445312"></path></g><g opacity="1" transform="matrix(1,0,0,1,1267.1929931640625,1027.1710205078125)"><path fill="rgb(2,139,52)" fill-opacity="1" d=" M35.194000244140625,46.292999267578125 C9.630000114440918,65.7239990234375 -26.84600067138672,60.750999450683594 -46.28300094604492,35.18899917602539 C-65.72100067138672,9.626999855041504 -60.75600051879883,-26.847000122070312 -35.194000244140625,-46.284000396728516 C-9.630999565124512,-65.72200012207031 26.850000381469727,-60.7599983215332 46.28900146484375,-35.189998626708984 C56.95000076293945,-21.166000366210938 60.266998291015625,-3.8529999256134033 56.86600112915039,12.130000114440918 C55.479000091552734,18.64699935913086 52.97700119018555,24.941999435424805 49.39899826049805,30.702999114990234 C45.7599983215332,36.5620002746582 41.0099983215332,41.86899948120117 35.194000244140625,46.292999267578125z"></path></g><g opacity="1" transform="matrix(1,0,0,1,1313.2239990234375,1056.383056640625)"><path stroke-linecap="round" stroke-linejoin="round" fill-opacity="0" stroke="rgb(2,2,2)" stroke-opacity="1" stroke-width="1.7" d=" M10.836000442504883,-17.082000732421875 C9.449000358581543,-10.5649995803833 6.946000099182129,-4.269999980926514 3.368000030517578,1.4910000562667847 C-0.2709999978542328,7.349999904632568 -5.019999980926514,12.657999992370605 -10.836000442504883,17.082000732421875"></path></g></g><g transform="matrix(1,0,0,1,819.010009765625,1235.4439697265625)" opacity="1" style="display: block;"><g opacity="1" transform="matrix(1,0,0,1,0,0)"><path fill="rgb(255,255,255)" fill-opacity="1" d=" M636.739990234375,0 C636.739990234375,0 -636.739990234375,0 -636.739990234375,0"></path><path stroke-linecap="round" stroke-linejoin="round" fill-opacity="0" stroke="rgb(2,2,2)" stroke-opacity="1" stroke-width="1.7" d=" M636.739990234375,0 C636.739990234375,0 -636.739990234375,0 -636.739990234375,0"></path></g></g></g></svg>