<svg xmlns="http://www.w3.org/2000/svg" xmlns:xlink="http://www.w3.org/1999/xlink" viewBox="0 0 1600 1600" width="1600" height="1600" preserveAspectRatio="xMidYMid meet" style="width: 100%; height: 100%; transform: translate3d(0px, 0px, 0px); content-visibility: visible;"><defs><clipPath id="__lottie_element_2"><rect width="1600" height="1600" x="0" y="0"></rect></clipPath><g id="__lottie_element_6"><g transform="matrix(1,0,0,1,800,800)" opacity="1" style="display: block;"><g opacity="1" transform="matrix(1,0,0,1,188,429.5)"><path fill="rgb(132,132,250)" fill-opacity="1" d=" M30,-141.5 C30,-141.5 30,141.5 30,141.5 C30,141.5 -46,141.5 -46,141.5 C-46,141.5 -46,-141.5 -46,-141.5 C-46,-141.5 30,-141.5 30,-141.5z"></path></g></g></g><g id="__lottie_element_12"><g transform="matrix(1,0,0,1,881,800)" opacity="1" style="display: block;"><g opacity="1" transform="matrix(1,0,0,1,188,429.5)"><path fill="rgb(132,132,250)" fill-opacity="1" d=" M30,-141.5 C30,-141.5 30,141.5 30,141.5 C30,141.5 -39,141.5 -39,141.5 C-39,141.5 -39,-141.5 -39,-141.5 C-39,-141.5 30,-141.5 30,-141.5z"></path></g></g></g><g id="__lottie_element_21"><g clip-path="url(#__lottie_element_22)" transform="matrix(1,0,0,1,0,0)" opacity="1" style="display: block;"><g mask="url(#__lottie_element_25_2)" style="display: block;"><g transform="matrix(1,0,0,1,0,0)" opacity="1"><g opacity="1" transform="matrix(1,0,0,1,630.2940063476562,828.1110229492188)"><path fill="rgb(132,132,250)" fill-opacity="1" d=" M113.37200164794922,-133.7779998779297 C113.37200164794922,-133.7779998779297 -113.37200164794922,-133.7779998779297 -113.37200164794922,-133.7779998779297 C-113.37200164794922,-133.7779998779297 -113.37200164794922,133.7779998779297 -113.37200164794922,133.7779998779297 C-113.37200164794922,133.7779998779297 113.37200164794922,133.7779998779297 113.37200164794922,133.7779998779297 C113.37200164794922,133.7779998779297 113.37200164794922,-133.7779998779297 113.37200164794922,-133.7779998779297z"></path></g><g opacity="1" transform="matrix(1,0,0,1,630.2940063476562,700.3330078125)"><path fill="rgb(255,255,255)" fill-opacity="1" d=" M101.37200164794922,6 C101.37200164794922,6 -101.37200164794922,6 -101.37200164794922,6 C-101.37200164794922,6 -113.37200164794922,-6 -113.37200164794922,-6 C-113.37200164794922,-6 113.37200164794922,-6 113.37200164794922,-6 C113.37200164794922,-6 101.37200164794922,6 101.37200164794922,6z"></path><path stroke-linecap="round" stroke-linejoin="round" fill-opacity="0" stroke="rgb(32,40,112)" stroke-opacity="1" stroke-width="2" d=" M101.37200164794922,6 C101.37200164794922,6 -101.37200164794922,6 -101.37200164794922,6 C-101.37200164794922,6 -113.37200164794922,-6 -113.37200164794922,-6 C-113.37200164794922,-6 113.37200164794922,-6 113.37200164794922,-6 C113.37200164794922,-6 101.37200164794922,6 101.37200164794922,6z"></path></g><g opacity="1" transform="matrix(1,0,0,1,737.6669921875,828.1110229492188)"><path fill="rgb(255,255,255)" fill-opacity="1" d=" M-6,133.7779998779297 C-6,133.7779998779297 -6,-121.77799987792969 -6,-121.77799987792969 C-6,-121.77799987792969 6,-133.7779998779297 6,-133.7779998779297 C6,-133.7779998779297 6,133.7779998779297 6,133.7779998779297 C6,133.7779998779297 -6,133.7779998779297 -6,133.7779998779297z"></path><path stroke-linecap="round" stroke-linejoin="round" fill-opacity="0" stroke="rgb(32,40,112)" stroke-opacity="1" stroke-width="2" d=" M-6,133.7779998779297 C-6,133.7779998779297 -6,-121.77799987792969 -6,-121.77799987792969 C-6,-121.77799987792969 6,-133.7779998779297 6,-133.7779998779297 C6,-133.7779998779297 6,133.7779998779297 6,133.7779998779297 C6,133.7779998779297 -6,133.7779998779297 -6,133.7779998779297z"></path></g><g opacity="1" transform="matrix(1,0,0,1,630.2940063476562,834.1110229492188)"><path fill="rgb(255,255,255)" fill-opacity="1" d=" M-6,127.77799987792969 C-6,127.77799987792969 -6,-127.77799987792969 -6,-127.77799987792969 C-6,-127.77799987792969 6,-127.77799987792969 6,-127.77799987792969 C6,-127.77799987792969 6,127.77799987792969 6,127.77799987792969 C6,127.77799987792969 -6,127.77799987792969 -6,127.77799987792969z"></path><path stroke-linecap="round" stroke-linejoin="round" fill-opacity="0" stroke="rgb(32,40,112)" stroke-opacity="1" stroke-width="2" d=" M-6,127.77799987792969 C-6,127.77799987792969 -6,-127.77799987792969 -6,-127.77799987792969 C-6,-127.77799987792969 6,-127.77799987792969 6,-127.77799987792969 C6,-127.77799987792969 6,127.77799987792969 6,127.77799987792969 C6,127.77799987792969 -6,127.77799987792969 -6,127.77799987792969z"></path></g></g></g></g></g><clipPath id="__lottie_element_22"><path d="M0,0 L1600,0 L1600,1600 L0,1600z"></path></clipPath><g id="__lottie_element_25"><g transform="matrix(1,0,0,1,800,800)" opacity="1" style="display: block;"><g opacity="1" transform="matrix(1,0,0,1,-228,27.5)"><path fill="rgb(132,132,250)" fill-opacity="1" d=" M51.125,-136.25 C51.125,-136.25 50.75,137 50.75,137 C50.75,137 -61.25,136 -61.25,136 C-61.25,136 -62.5,-136.25 -62.5,-136.25 C-62.5,-136.25 51.125,-136.25 51.125,-136.25z"></path></g></g></g><filter id="__lottie_element_31" filterUnits="objectBoundingBox" x="0%" y="0%" width="100%" height="100%"><feComponentTransfer in="SourceGraphic"><feFuncA type="table" tableValues="1.0 0.0"></feFuncA></feComponentTransfer></filter><mask id="__lottie_element_25_2" mask-type="alpha"><g filter="url(#__lottie_element_31)"><rect width="1600" height="1600" x="0" y="0" fill="#ffffff" opacity="0"></rect><use xlink:href="#__lottie_element_25"></use></g></mask><mask id="__lottie_element_21_1" mask-type="alpha"><use xlink:href="#__lottie_element_21"></use></mask><clipPath id="__lottie_element_36"><path d="M0,0 L1600,0 L1600,1600 L0,1600z"></path></clipPath><g id="__lottie_element_39"><g transform="matrix(1,0,0,1,800,800)" opacity="1" style="display: block;"><g opacity="1" transform="matrix(1,0,0,1,-228,27.5)"><path fill="rgb(132,132,250)" fill-opacity="1" d=" M51.125,-136.25 C51.125,-136.25 50.75,137 50.75,137 C50.75,137 -61.25,136 -61.25,136 C-61.25,136 -62.5,-136.25 -62.5,-136.25 C-62.5,-136.25 51.125,-136.25 51.125,-136.25z"></path></g></g></g><filter id="__lottie_element_45" filterUnits="objectBoundingBox" x="0%" y="0%" width="100%" height="100%"><feComponentTransfer in="SourceGraphic"><feFuncA type="table" tableValues="1.0 0.0"></feFuncA></feComponentTransfer></filter><mask id="__lottie_element_39_2" mask-type="alpha"><g filter="url(#__lottie_element_45)"><rect width="1600" height="1600" x="0" y="0" fill="#ffffff" opacity="0"></rect><use xlink:href="#__lottie_element_39"></use></g></mask><g id="__lottie_element_46"><g clip-path="url(#__lottie_element_47)" transform="matrix(1,0,0,1,0,0)" opacity="1" style="display: block;"><g mask="url(#__lottie_element_50_2)" style="display: block;"><g transform="matrix(1,0,0,1,0,0)" opacity="1"><g opacity="1" transform="matrix(1,0,0,1,630.2940063476562,828.1110229492188)"><path fill="rgb(132,132,250)" fill-opacity="1" d=" M113.37200164794922,-133.7779998779297 C113.37200164794922,-133.7779998779297 -113.37200164794922,-133.7779998779297 -113.37200164794922,-133.7779998779297 C-113.37200164794922,-133.7779998779297 -113.37200164794922,133.7779998779297 -113.37200164794922,133.7779998779297 C-113.37200164794922,133.7779998779297 113.37200164794922,133.7779998779297 113.37200164794922,133.7779998779297 C113.37200164794922,133.7779998779297 113.37200164794922,-133.7779998779297 113.37200164794922,-133.7779998779297z"></path></g><g opacity="1" transform="matrix(1,0,0,1,630.2940063476562,700.3330078125)"><path fill="rgb(255,255,255)" fill-opacity="1" d=" M101.37200164794922,6 C101.37200164794922,6 -101.37200164794922,6 -101.37200164794922,6 C-101.37200164794922,6 -113.37200164794922,-6 -113.37200164794922,-6 C-113.37200164794922,-6 113.37200164794922,-6 113.37200164794922,-6 C113.37200164794922,-6 101.37200164794922,6 101.37200164794922,6z"></path><path stroke-linecap="round" stroke-linejoin="round" fill-opacity="0" stroke="rgb(32,40,112)" stroke-opacity="1" stroke-width="2" d=" M101.37200164794922,6 C101.37200164794922,6 -101.37200164794922,6 -101.37200164794922,6 C-101.37200164794922,6 -113.37200164794922,-6 -113.37200164794922,-6 C-113.37200164794922,-6 113.37200164794922,-6 113.37200164794922,-6 C113.37200164794922,-6 101.37200164794922,6 101.37200164794922,6z"></path></g><g opacity="1" transform="matrix(1,0,0,1,522.9219970703125,828.1110229492188)"><path fill="rgb(255,255,255)" fill-opacity="1" d=" M6,133.7779998779297 C6,133.7779998779297 6,-121.77799987792969 6,-121.77799987792969 C6,-121.77799987792969 -6,-133.7779998779297 -6,-133.7779998779297 C-6,-133.7779998779297 -6,133.7779998779297 -6,133.7779998779297 C-6,133.7779998779297 6,133.7779998779297 6,133.7779998779297z"></path><path stroke-linecap="round" stroke-linejoin="round" fill-opacity="0" stroke="rgb(32,40,112)" stroke-opacity="1" stroke-width="2" d=" M6,133.7779998779297 C6,133.7779998779297 6,-121.77799987792969 6,-121.77799987792969 C6,-121.77799987792969 -6,-133.7779998779297 -6,-133.7779998779297 C-6,-133.7779998779297 -6,133.7779998779297 -6,133.7779998779297 C-6,133.7779998779297 6,133.7779998779297 6,133.7779998779297z"></path></g><g opacity="1" transform="matrix(1,0,0,1,630.2940063476562,834.1110229492188)"><path fill="rgb(255,255,255)" fill-opacity="1" d=" M-6,127.77799987792969 C-6,127.77799987792969 -6,-127.77799987792969 -6,-127.77799987792969 C-6,-127.77799987792969 6,-127.77799987792969 6,-127.77799987792969 C6,-127.77799987792969 6,127.77799987792969 6,127.77799987792969 C6,127.77799987792969 -6,127.77799987792969 -6,127.77799987792969z"></path><path stroke-linecap="round" stroke-linejoin="round" fill-opacity="0" stroke="rgb(32,40,112)" stroke-opacity="1" stroke-width="2" d=" M-6,127.77799987792969 C-6,127.77799987792969 -6,-127.77799987792969 -6,-127.77799987792969 C-6,-127.77799987792969 6,-127.77799987792969 6,-127.77799987792969 C6,-127.77799987792969 6,127.77799987792969 6,127.77799987792969 C6,127.77799987792969 -6,127.77799987792969 -6,127.77799987792969z"></path></g></g></g></g></g><clipPath id="__lottie_element_47"><path d="M0,0 L1600,0 L1600,1600 L0,1600z"></path></clipPath><g id="__lottie_element_50"><g transform="matrix(1,0,0,1,928.25,800)" opacity="1" style="display: block;"><g opacity="1" transform="matrix(1,0,0,1,-228,27.5)"><path fill="rgb(132,132,250)" fill-opacity="1" d=" M51.125,-136.25 C51.125,-136.25 50.75,137 50.75,137 C50.75,137 -62.875,136 -62.875,136 C-62.875,136 -63.375,-136.25 -63.375,-136.25 C-63.375,-136.25 51.125,-136.25 51.125,-136.25z"></path></g></g></g><filter id="__lottie_element_56" filterUnits="objectBoundingBox" x="0%" y="0%" width="100%" height="100%"><feComponentTransfer in="SourceGraphic"><feFuncA type="table" tableValues="1.0 0.0"></feFuncA></feComponentTransfer></filter><mask id="__lottie_element_50_2" mask-type="alpha"><g filter="url(#__lottie_element_56)"><rect width="1600" height="1600" x="0" y="0" fill="#ffffff" opacity="0"></rect><use xlink:href="#__lottie_element_50"></use></g></mask><mask id="__lottie_element_46_1" mask-type="alpha"><use xlink:href="#__lottie_element_46"></use></mask><clipPath id="__lottie_element_61"><path d="M0,0 L1600,0 L1600,1600 L0,1600z"></path></clipPath><g id="__lottie_element_64"><g transform="matrix(1,0,0,1,928.25,800)" opacity="1" style="display: block;"><g opacity="1" transform="matrix(1,0,0,1,-228,27.5)"><path fill="rgb(132,132,250)" fill-opacity="1" d=" M51.125,-136.25 C51.125,-136.25 50.75,137 50.75,137 C50.75,137 -62.875,136 -62.875,136 C-62.875,136 -63.375,-136.25 -63.375,-136.25 C-63.375,-136.25 51.125,-136.25 51.125,-136.25z"></path></g></g></g><filter id="__lottie_element_70" filterUnits="objectBoundingBox" x="0%" y="0%" width="100%" height="100%"><feComponentTransfer in="SourceGraphic"><feFuncA type="table" tableValues="1.0 0.0"></feFuncA></feComponentTransfer></filter><mask id="__lottie_element_64_2" mask-type="alpha"><g filter="url(#__lottie_element_70)"><rect width="1600" height="1600" x="0" y="0" fill="#ffffff" opacity="0"></rect><use xlink:href="#__lottie_element_64"></use></g></mask><filter id="__lottie_element_95" filterUnits="objectBoundingBox" x="0%" y="0%" width="100%" height="100%"><feComponentTransfer in="SourceGraphic"><feFuncA type="table" tableValues="1.0 0.0"></feFuncA></feComponentTransfer></filter><mask id="__lottie_element_12_2" mask-type="alpha"><g filter="url(#__lottie_element_95)"><rect width="1600" height="1600" x="0" y="0" fill="#ffffff" opacity="0"></rect><use xlink:href="#__lottie_element_12"></use></g></mask><filter id="__lottie_element_96" filterUnits="objectBoundingBox" x="0%" y="0%" width="100%" height="100%"><feComponentTransfer in="SourceGraphic"><feFuncA type="table" tableValues="1.0 0.0"></feFuncA></feComponentTransfer></filter><mask id="__lottie_element_6_2" mask-type="alpha"><g filter="url(#__lottie_element_96)"><rect width="1600" height="1600" x="0" y="0" fill="#ffffff" opacity="0"></rect><use xlink:href="#__lottie_element_6"></use></g></mask></defs><g clip-path="url(#__lottie_element_2)"><g transform="matrix(1,0,0,1,1239.5699462890625,1283.4310302734375)" opacity="1" style="display: block;"><g opacity="1" transform="matrix(1,0,0,1,0,0)"><path fill="rgb(249,74,130)" fill-opacity="1" d=" M-49.236000061035156,86.61299896240234 C-49.236000061035156,86.61299896240234 68.68900299072266,86.61299896240234 98.31900024414062,86.61299896240234 C127.9489974975586,86.61299896240234 113.72699737548828,35.494998931884766 84.09700012207031,48.53200149536133 C89.43000030517578,4.0879998207092285 63.356998443603516,-3.0230000019073486 40.8380012512207,6.458000183105469 C45.57899856567383,-38.57899856567383 15.949000358581543,-105.54199981689453 -52.79199981689453,-68.20899963378906 C-93.08799743652344,-106.13500213623047 -117.38500213623047,-79.46800231933594 -114.4219970703125,-42.1349983215332 C-111.45899963378906,-4.802000045776367 -98.4219970703125,86.61299896240234 -98.4219970703125,86.61299896240234 C-98.4219970703125,86.61299896240234 -49.236000061035156,86.61299896240234 -49.236000061035156,86.61299896240234z"></path></g></g><g transform="matrix(1,0,0,1,323.3030090332031,1270.5799560546875)" opacity="1" style="display: block;"><g opacity="1" transform="matrix(1,0,0,1,0,0)"><path fill="rgb(249,74,130)" fill-opacity="1" d=" M-24.524999618530273,99.41999816894531 C-24.524999618530273,99.41999816894531 -97.85900115966797,99.41999816894531 -97.85900115966797,99.41999816894531 C-124.97000122070312,99.41999816894531 -111.63700103759766,46.8650016784668 -73.85900115966797,66.60199737548828 C-103.19200134277344,42.89799880981445 -105.85800170898438,-0.7749999761581421 -61.41400146484375,9.194999694824219 C-112.16000366210938,-69.06199645996094 -63.93299865722656,-151.35800170898438 9.251999855041504,-57.58000183105469 C43.91899871826172,-97.13600158691406 140.80799865722656,-53.13600158691406 103.91899871826172,4.642000198364258 C67.02999877929688,62.41999816894531 52.80799865722656,99.41999816894531 52.80799865722656,99.41999816894531 C52.80799865722656,99.41999816894531 -24.524999618530273,99.41999816894531 -24.524999618530273,99.41999816894531z"></path></g></g><g transform="matrix(1,0,0,1,0,0)" opacity="1" style="display: block;"><g opacity="1" transform="matrix(1,0,0,1,0,0)"><g opacity="1" transform="matrix(1,0,0,1,1050.39697265625,1189.9439697265625)"><path fill="rgb(132,132,250)" fill-opacity="1" d=" M148.8249969482422,-180.05599975585938 C148.8249969482422,-180.05599975585938 -148.8249969482422,-180.05599975585938 -148.8249969482422,-180.05599975585938 C-148.8249969482422,-180.05599975585938 -148.8249969482422,180.05599975585938 -148.8249969482422,180.05599975585938 C-148.8249969482422,180.05599975585938 148.8249969482422,180.05599975585938 148.8249969482422,180.05599975585938 C148.8249969482422,180.05599975585938 148.8249969482422,-180.05599975585938 148.8249969482422,-180.05599975585938z"></path></g><g opacity="1" transform="matrix(1,0,0,1,959.9530029296875,1189.9659423828125)"><path fill="rgb(32,40,112)" fill-opacity="1" d=" M-58.380001068115234,-180.0780029296875 C-58.380001068115234,-180.0780029296875 -58.380001068115234,180.03399658203125 -58.380001068115234,180.03399658203125 C-58.380001068115234,180.03399658203125 58.380001068115234,180.0780029296875 58.380001068115234,180.0780029296875 C58.380001068115234,180.0780029296875 -1.2139999866485596,-180.0780029296875 -1.2139999866485596,-180.0780029296875 C-1.2139999866485596,-180.0780029296875 -58.380001068115234,-180.0780029296875 -58.380001068115234,-180.0780029296875z"></path></g></g><g opacity="1" transform="matrix(1,0,0,1,0,0)"><g opacity="1" transform="matrix(1,0,0,1,0,0)"><g opacity="1" transform="matrix(1,0,0,1,0,0)"><g opacity="1" transform="matrix(1,0,0,1,1061.3170166015625,896.5560302734375)"><path fill="rgb(32,40,112)" fill-opacity="1" d=" M120.72000122070312,7.556000232696533 C120.72000122070312,7.556000232696533 -120.72000122070312,7.556000232696533 -120.72000122070312,7.556000232696533 C-120.72000122070312,7.556000232696533 -120.72000122070312,-7.556000232696533 -120.72000122070312,-7.556000232696533 C-120.72000122070312,-7.556000232696533 120.72000122070312,-7.556000232696533 120.72000122070312,-7.556000232696533 C120.72000122070312,-7.556000232696533 120.72000122070312,7.556000232696533 120.72000122070312,7.556000232696533z"></path></g><g opacity="1" transform="matrix(1,0,0,1,987.094970703125,938.1849975585938)"><path fill="rgb(32,40,112)" fill-opacity="1" d=" M-7.556000232696533,34.07400131225586 C-7.556000232696533,34.07400131225586 -7.556000232696533,-34.07400131225586 -7.556000232696533,-34.07400131225586 C-7.556000232696533,-34.07400131225586 7.556000232696533,-34.07400131225586 7.556000232696533,-34.07400131225586 C7.556000232696533,-34.07400131225586 7.556000232696533,34.07400131225586 7.556000232696533,34.07400131225586 C7.556000232696533,34.07400131225586 -7.556000232696533,34.07400131225586 -7.556000232696533,34.07400131225586z"></path></g><g opacity="1" transform="matrix(1,0,0,1,1079.7509765625,938.1849975585938)"><path fill="rgb(32,40,112)" fill-opacity="1" d=" M-7.556000232696533,34.07400131225586 C-7.556000232696533,34.07400131225586 -7.556000232696533,-34.07400131225586 -7.556000232696533,-34.07400131225586 C-7.556000232696533,-34.07400131225586 7.556000232696533,-34.07400131225586 7.556000232696533,-34.07400131225586 C7.556000232696533,-34.07400131225586 7.556000232696533,34.07400131225586 7.556000232696533,34.07400131225586 C7.556000232696533,34.07400131225586 -7.556000232696533,34.07400131225586 -7.556000232696533,34.07400131225586z"></path></g></g><g opacity="1" transform="matrix(1,0,0,1,1077.9100341796875,991.073974609375)"><path fill="rgb(32,40,112)" fill-opacity="1" d=" M137.31199645996094,-18.815000534057617 C137.31199645996094,-18.815000534057617 -137.31199645996094,-18.815000534057617 -137.31199645996094,-18.815000534057617 C-137.31199645996094,-18.815000534057617 -137.31199645996094,18.815000534057617 -137.31199645996094,18.815000534057617 C-137.31199645996094,18.815000534057617 137.31199645996094,18.815000534057617 137.31199645996094,18.815000534057617 C137.31199645996094,18.815000534057617 137.31199645996094,-18.815000534057617 137.31199645996094,-18.815000534057617z"></path></g></g><g opacity="1" transform="matrix(1,0,0,1,1182.0369873046875,1117.6669921875)"><path fill="rgb(132,132,250)" fill-opacity="1" d=" M-17.184999465942383,-252.33299255371094 C-17.184999465942383,-252.33299255371094 17.184999465942383,-252.33299255371094 17.184999465942383,-252.33299255371094 C17.184999465942383,-252.33299255371094 17.184999465942383,252.33299255371094 17.184999465942383,252.33299255371094 C17.184999465942383,252.33299255371094 -17.184999465942383,252.33299255371094 -17.184999465942383,252.33299255371094 C-17.184999465942383,252.33299255371094 -17.184999465942383,-252.33299255371094 -17.184999465942383,-252.33299255371094z"></path><path stroke-linecap="butt" stroke-linejoin="miter" fill-opacity="0" stroke-miterlimit="10" stroke="rgb(255,255,255)" stroke-opacity="1" stroke-width="2" d=" M-17.184999465942383,-252.33299255371094 C-17.184999465942383,-252.33299255371094 17.184999465942383,-252.33299255371094 17.184999465942383,-252.33299255371094 C17.184999465942383,-252.33299255371094 17.184999465942383,252.33299255371094 17.184999465942383,252.33299255371094 C17.184999465942383,252.33299255371094 -17.184999465942383,252.33299255371094 -17.184999465942383,252.33299255371094 C-17.184999465942383,252.33299255371094 -17.184999465942383,-252.33299255371094 -17.184999465942383,-252.33299255371094z"></path></g></g></g><g transform="matrix(1,0,0,1,0,0)" opacity="1" style="display: block;"><g opacity="1" transform="matrix(1,0,0,1,630.2940063476562,978.489990234375)"><path fill="rgb(132,132,250)" fill-opacity="1" d=" M310.3030090332031,391.5539855957031 C310.3030090332031,391.5539855957031 -310.3030090332031,391.5539855957031 -310.3030090332031,391.5539855957031 C-310.3030090332031,391.5539855957031 -310.3030090332031,-391.5539855957031 -310.3030090332031,-391.5539855957031 C-310.3030090332031,-391.5539855957031 310.3030090332031,-391.5539855957031 310.3030090332031,-391.5539855957031 C310.3030090332031,-391.5539855957031 310.3030090332031,391.5539855957031 310.3030090332031,391.5539855957031z"></path></g><g opacity="1" transform="matrix(1,0,0,1,630.2940063476562,978.489990234375)"><path fill="rgb(32,40,112)" fill-opacity="1" d=" M191.30299377441406,391.5539855957031 C191.30299377441406,391.5539855957031 -191.30299377441406,391.5539855957031 -191.30299377441406,391.5539855957031 C-191.30299377441406,391.5539855957031 -191.30299377441406,-391.5539855957031 -191.30299377441406,-391.5539855957031 C-191.30299377441406,-391.5539855957031 191.30299377441406,-391.5539855957031 191.30299377441406,-391.5539855957031 C191.30299377441406,-391.5539855957031 191.30299377441406,391.5539855957031 191.30299377441406,391.5539855957031z"></path></g><g opacity="1" transform="matrix(1,0,0,1,0,0)"><g opacity="1" transform="matrix(1,0,0,1,0,0)"><g opacity="1" transform="matrix(1,0,0,1,702.7410278320312,1121.3699951171875)"><path fill="rgb(132,132,250)" fill-opacity="1" d=" M54,72.37000274658203 C54,72.37000274658203 -54,72.37000274658203 -54,72.37000274658203 C-54,72.37000274658203 -54,-72.37000274658203 -54,-72.37000274658203 C-54,-72.37000274658203 54,-72.37000274658203 54,-72.37000274658203 C54,-72.37000274658203 54,72.37000274658203 54,72.37000274658203z"></path></g><g opacity="1" transform="matrix(1,0,0,1,0,0)"><g opacity="1" transform="matrix(1,0,0,1,0,0)"><g opacity="1" transform="matrix(1,0,0,1,702.7410278320312,1043)"><path fill="rgb(255,255,255)" fill-opacity="1" d=" M66,6 C66,6 -54,6 -54,6 C-54,6 -66,-6 -66,-6 C-66,-6 66,-6 66,-6 C66,-6 66,6 66,6z"></path><path stroke-linecap="round" stroke-linejoin="round" fill-opacity="0" stroke="rgb(32,40,112)" stroke-opacity="1" stroke-width="2" d=" M66,6 C66,6 -54,6 -54,6 C-54,6 -66,-6 -66,-6 C-66,-6 66,-6 66,-6 C66,-6 66,6 66,6z"></path></g><g opacity="1" transform="matrix(1,0,0,1,642.7410278320312,1121.3699951171875)"><path fill="rgb(255,255,255)" fill-opacity="1" d=" M-6,84.37000274658203 C-6,84.37000274658203 -6,-84.37000274658203 -6,-84.37000274658203 C-6,-84.37000274658203 6,-72.37000274658203 6,-72.37000274658203 C6,-72.37000274658203 6,84.37000274658203 6,84.37000274658203 C6,84.37000274658203 -6,84.37000274658203 -6,84.37000274658203z"></path><path stroke-linecap="round" stroke-linejoin="round" fill-opacity="0" stroke="rgb(32,40,112)" stroke-opacity="1" stroke-width="2" d=" M-6,84.37000274658203 C-6,84.37000274658203 -6,-84.37000274658203 -6,-84.37000274658203 C-6,-84.37000274658203 6,-72.37000274658203 6,-72.37000274658203 C6,-72.37000274658203 6,84.37000274658203 6,84.37000274658203 C6,84.37000274658203 -6,84.37000274658203 -6,84.37000274658203z"></path></g><g opacity="1" transform="matrix(1,0,0,1,702.7410278320312,1199.740966796875)"><path fill="rgb(255,255,255)" fill-opacity="1" d=" M-54,-6 C-54,-6 54,-6 54,-6 C54,-6 66,6 66,6 C66,6 -66,6 -66,6 C-66,6 -54,-6 -54,-6z"></path><path stroke-linecap="round" stroke-linejoin="round" fill-opacity="0" stroke="rgb(32,40,112)" stroke-opacity="1" stroke-width="2" d=" M-54,-6 C-54,-6 54,-6 54,-6 C54,-6 66,6 66,6 C66,6 -66,6 -66,6 C-66,6 -54,-6 -54,-6z"></path></g><g opacity="1" transform="matrix(1,0,0,1,762.7410278320312,1121.3699951171875)"><path fill="rgb(255,255,255)" fill-opacity="1" d=" M6,-84.37000274658203 C6,-84.37000274658203 6,84.37000274658203 6,84.37000274658203 C6,84.37000274658203 -6,72.37000274658203 -6,72.37000274658203 C-6,72.37000274658203 -6,-72.37000274658203 -6,-72.37000274658203 C-6,-72.37000274658203 6,-84.37000274658203 6,-84.37000274658203z"></path><path stroke-linecap="round" stroke-linejoin="round" fill-opacity="0" stroke="rgb(32,40,112)" stroke-opacity="1" stroke-width="2" d=" M6,-84.37000274658203 C6,-84.37000274658203 6,84.37000274658203 6,84.37000274658203 C6,84.37000274658203 -6,72.37000274658203 -6,72.37000274658203 C-6,72.37000274658203 -6,-72.37000274658203 -6,-72.37000274658203 C-6,-72.37000274658203 6,-84.37000274658203 6,-84.37000274658203z"></path></g></g><g opacity="1" transform="matrix(1,0,0,1,702.7410278320312,1121.3699951171875)"><path fill="rgb(255,255,255)" fill-opacity="1" d=" M3.555999994277954,72.37000274658203 C3.555999994277954,72.37000274658203 -3.555999994277954,72.37000274658203 -3.555999994277954,72.37000274658203 C-3.555999994277954,72.37000274658203 -3.555999994277954,-72.37000274658203 -3.555999994277954,-72.37000274658203 C-3.555999994277954,-72.37000274658203 3.555999994277954,-72.37000274658203 3.555999994277954,-72.37000274658203 C3.555999994277954,-72.37000274658203 3.555999994277954,72.37000274658203 3.555999994277954,72.37000274658203z"></path><path stroke-linecap="round" stroke-linejoin="round" fill-opacity="0" stroke="rgb(32,40,112)" stroke-opacity="1" stroke-width="2" d=" M3.555999994277954,72.37000274658203 C3.555999994277954,72.37000274658203 -3.555999994277954,72.37000274658203 -3.555999994277954,72.37000274658203 C-3.555999994277954,72.37000274658203 -3.555999994277954,-72.37000274658203 -3.555999994277954,-72.37000274658203 C-3.555999994277954,-72.37000274658203 3.555999994277954,-72.37000274658203 3.555999994277954,-72.37000274658203 C3.555999994277954,-72.37000274658203 3.555999994277954,72.37000274658203 3.555999994277954,72.37000274658203z"></path></g></g></g></g><g opacity="1" transform="matrix(1,0,0,1,0,0)"><g opacity="1" transform="matrix(1,0,0,1,0,0)"><g opacity="1" transform="matrix(1,0,0,1,630.2940063476562,465.8500061035156)"><path fill="rgb(132,132,250)" fill-opacity="1" d=" M372.32598876953125,120.43399810791016 C372.32598876953125,120.43399810791016 0,-120.43399810791016 0,-120.43399810791016 C0,-120.43399810791016 -372.32598876953125,120.43399810791016 -372.32598876953125,120.43399810791016 C-372.32598876953125,120.43399810791016 372.32598876953125,120.43399810791016 372.32598876953125,120.43399810791016z"></path><path stroke-linecap="butt" stroke-linejoin="miter" fill-opacity="0" stroke-miterlimit="10" stroke="rgb(32,40,112)" stroke-opacity="1" stroke-width="2" d=" M372.32598876953125,120.43399810791016 C372.32598876953125,120.43399810791016 0,-120.43399810791016 0,-120.43399810791016 C0,-120.43399810791016 -372.32598876953125,120.43399810791016 -372.32598876953125,120.43399810791016 C-372.32598876953125,120.43399810791016 372.32598876953125,120.43399810791016 372.32598876953125,120.43399810791016z"></path></g><g opacity="1" transform="matrix(1,0,0,1,630.2949829101562,488.7099914550781)"><path stroke-linecap="butt" stroke-linejoin="miter" fill-opacity="0" stroke-miterlimit="10" stroke="rgb(32,40,112)" stroke-opacity="1" stroke-width="2" d=" M-301.635009765625,97.56999969482422 C-301.635009765625,97.56999969482422 -0.004999999888241291,-97.56999969482422 -0.004999999888241291,-97.56999969482422 C-0.004999999888241291,-97.56999969482422 301.635009765625,97.56999969482422 301.635009765625,97.56999969482422"></path></g></g><g opacity="1" transform="matrix(1,0,0,1,630.2940063476562,498.3330078125)"><path fill="rgb(32,40,112)" fill-opacity="1" d=" M32.48400115966797,0 C32.48400115966797,-17.940000534057617 17.940000534057617,-32.48400115966797 0,-32.48400115966797 C-17.940000534057617,-32.48400115966797 -32.48400115966797,-17.940000534057617 -32.48400115966797,0 C-32.48400115966797,17.940000534057617 -17.940000534057617,32.48400115966797 0,32.48400115966797 C17.940000534057617,32.48400115966797 32.48400115966797,17.940000534057617 32.48400115966797,0z"></path></g></g></g><g transform="matrix(1,0,0,1,522.7780151367188,1227.9439697265625)" opacity="1" style="display: block;"><g opacity="1" transform="matrix(1,0,0,1,0,0)"><path fill="rgb(32,40,112)" fill-opacity="1" d=" M-68.59300231933594,142.05599975585938 C-68.59300231933594,142.05599975585938 -68.59300231933594,-142.05599975585938 -68.59300231933594,-142.05599975585938 C-68.59300231933594,-142.05599975585938 68.59300231933594,-142.05599975585938 68.59300231933594,-142.05599975585938 C68.59300231933594,-142.05599975585938 68.59300231933594,142.05599975585938 68.59300231933594,142.05599975585938"></path></g></g><g transform="matrix(1,0,0,1,522.7780151367188,1232.4630126953125)" opacity="1" style="display: block;"><g opacity="1" transform="matrix(1,0,0,1,0,0)"><path fill="rgb(132,132,250)" fill-opacity="1" d=" M-59.555999755859375,137.53700256347656 C-59.555999755859375,137.53700256347656 -59.555999755859375,-137.53700256347656 -59.555999755859375,-137.53700256347656 C-59.555999755859375,-137.53700256347656 59.555999755859375,-137.53700256347656 59.555999755859375,-137.53700256347656 C59.555999755859375,-137.53700256347656 59.555999755859375,137.53700256347656 59.555999755859375,137.53700256347656"></path></g></g><g transform="matrix(1,0,0,1,0,0)" opacity="1" style="display: block;"><g opacity="1" transform="matrix(1,0,0,1,522.7780151367188,1232.4630126953125)"><path fill="rgb(132,132,250)" fill-opacity="1" d=" M-59.555999755859375,137.53700256347656 C-59.555999755859375,137.53700256347656 -59.555999755859375,-137.53700256347656 -59.555999755859375,-137.53700256347656 C-59.555999755859375,-137.53700256347656 59.555999755859375,-137.53700256347656 59.555999755859375,-137.53700256347656 C59.555999755859375,-137.53700256347656 59.555999755859375,137.53700256347656 59.555999755859375,137.53700256347656"></path><path stroke-linecap="butt" stroke-linejoin="miter" fill-opacity="0" stroke-miterlimit="10" stroke="rgb(255,255,255)" stroke-opacity="1" stroke-width="2" d=" M-59.555999755859375,137.53700256347656 C-59.555999755859375,137.53700256347656 -59.555999755859375,-137.53700256347656 -59.555999755859375,-137.53700256347656 C-59.555999755859375,-137.53700256347656 59.555999755859375,-137.53700256347656 59.555999755859375,-137.53700256347656 C59.555999755859375,-137.53700256347656 59.555999755859375,137.53700256347656 59.555999755859375,137.53700256347656"></path></g><g opacity="1" transform="matrix(1,0,0,1,522.7780151367188,1146)"><path fill="rgb(32,40,112)" fill-opacity="1" d=" M3.2219998836517334,0 C3.2219998836517334,-1.7799999713897705 1.7799999713897705,-3.2219998836517334 0,-3.2219998836517334 C-1.7799999713897705,-3.2219998836517334 -3.2219998836517334,-1.7799999713897705 -3.2219998836517334,0 C-3.2219998836517334,1.7799999713897705 -1.7799999713897705,3.2219998836517334 0,3.2219998836517334 C1.7799999713897705,3.2219998836517334 3.2219998836517334,1.7799999713897705 3.2219998836517334,0z"></path></g><g opacity="1" transform="matrix(1,0,0,1,563.0089721679688,1232.4630126953125)"><path fill="rgb(32,40,112)" fill-opacity="1" d=" M9.638999938964844,-3.3889999389648438 C9.638999938964844,-3.3889999389648438 -9.638999938964844,-3.3889999389648438 -9.638999938964844,-3.3889999389648438 C-11.51099967956543,-3.3889999389648438 -13.027999877929688,-1.871999979019165 -13.027999877929688,0 C-13.027999877929688,0 -13.027999877929688,0 -13.027999877929688,0 C-13.027999877929688,1.871999979019165 -11.51099967956543,3.3889999389648438 -9.638999938964844,3.3889999389648438 C-9.638999938964844,3.3889999389648438 9.638999938964844,3.3889999389648438 9.638999938964844,3.3889999389648438 C11.51099967956543,3.3889999389648438 13.027999877929688,1.871999979019165 13.027999877929688,0 C13.027999877929688,0 13.027999877929688,0 13.027999877929688,0 C13.027999877929688,-1.871999979019165 11.51099967956543,-3.3889999389648438 9.638999938964844,-3.3889999389648438z"></path></g></g><g transform="matrix(1,0,0,1,630.2940063476562,828.1110229492188)" opacity="1" style="display: block;"><g opacity="1" transform="matrix(1,0,0,1,0,0)"><path fill="rgb(132,132,250)" fill-opacity="1" d=" M113.37200164794922,-133.7779998779297 C113.37200164794922,-133.7779998779297 -113.37200164794922,-133.7779998779297 -113.37200164794922,-133.7779998779297 C-113.37200164794922,-133.7779998779297 -113.37200164794922,133.7779998779297 -113.37200164794922,133.7779998779297 C-113.37200164794922,133.7779998779297 113.37200164794922,133.7779998779297 113.37200164794922,133.7779998779297 C113.37200164794922,133.7779998779297 113.37200164794922,-133.7779998779297 113.37200164794922,-133.7779998779297z"></path></g></g><g clip-path="url(#__lottie_element_61)" transform="matrix(1,0,0,1,0,0)" opacity="1" style="display: block;"><g mask="url(#__lottie_element_64_2)" style="display: block;"><g transform="matrix(1,0,0,1,0,0)" opacity="1"><g opacity="1" transform="matrix(1,0,0,1,630.2940063476562,828.1110229492188)"><path fill="rgb(132,132,250)" fill-opacity="1" d=" M113.37200164794922,-133.7779998779297 C113.37200164794922,-133.7779998779297 -113.37200164794922,-133.7779998779297 -113.37200164794922,-133.7779998779297 C-113.37200164794922,-133.7779998779297 -113.37200164794922,133.7779998779297 -113.37200164794922,133.7779998779297 C-113.37200164794922,133.7779998779297 113.37200164794922,133.7779998779297 113.37200164794922,133.7779998779297 C113.37200164794922,133.7779998779297 113.37200164794922,-133.7779998779297 113.37200164794922,-133.7779998779297z"></path></g><g opacity="1" transform="matrix(1,0,0,1,630.2940063476562,700.3330078125)"><path fill="rgb(255,255,255)" fill-opacity="1" d=" M101.37200164794922,6 C101.37200164794922,6 -101.37200164794922,6 -101.37200164794922,6 C-101.37200164794922,6 -113.37200164794922,-6 -113.37200164794922,-6 C-113.37200164794922,-6 113.37200164794922,-6 113.37200164794922,-6 C113.37200164794922,-6 101.37200164794922,6 101.37200164794922,6z"></path><path stroke-linecap="round" stroke-linejoin="round" fill-opacity="0" stroke="rgb(32,40,112)" stroke-opacity="1" stroke-width="2" d=" M101.37200164794922,6 C101.37200164794922,6 -101.37200164794922,6 -101.37200164794922,6 C-101.37200164794922,6 -113.37200164794922,-6 -113.37200164794922,-6 C-113.37200164794922,-6 113.37200164794922,-6 113.37200164794922,-6 C113.37200164794922,-6 101.37200164794922,6 101.37200164794922,6z"></path></g><g opacity="1" transform="matrix(1,0,0,1,522.9219970703125,828.1110229492188)"><path fill="rgb(255,255,255)" fill-opacity="1" d=" M6,133.7779998779297 C6,133.7779998779297 6,-121.77799987792969 6,-121.77799987792969 C6,-121.77799987792969 -6,-133.7779998779297 -6,-133.7779998779297 C-6,-133.7779998779297 -6,133.7779998779297 -6,133.7779998779297 C-6,133.7779998779297 6,133.7779998779297 6,133.7779998779297z"></path><path stroke-linecap="round" stroke-linejoin="round" fill-opacity="0" stroke="rgb(32,40,112)" stroke-opacity="1" stroke-width="2" d=" M6,133.7779998779297 C6,133.7779998779297 6,-121.77799987792969 6,-121.77799987792969 C6,-121.77799987792969 -6,-133.7779998779297 -6,-133.7779998779297 C-6,-133.7779998779297 -6,133.7779998779297 -6,133.7779998779297 C-6,133.7779998779297 6,133.7779998779297 6,133.7779998779297z"></path></g><g opacity="1" transform="matrix(1,0,0,1,630.2940063476562,834.1110229492188)"><path fill="rgb(255,255,255)" fill-opacity="1" d=" M-6,127.77799987792969 C-6,127.77799987792969 -6,-127.77799987792969 -6,-127.77799987792969 C-6,-127.77799987792969 6,-127.77799987792969 6,-127.77799987792969 C6,-127.77799987792969 6,127.77799987792969 6,127.77799987792969 C6,127.77799987792969 -6,127.77799987792969 -6,127.77799987792969z"></path><path stroke-linecap="round" stroke-linejoin="round" fill-opacity="0" stroke="rgb(32,40,112)" stroke-opacity="1" stroke-width="2" d=" M-6,127.77799987792969 C-6,127.77799987792969 -6,-127.77799987792969 -6,-127.77799987792969 C-6,-127.77799987792969 6,-127.77799987792969 6,-127.77799987792969 C6,-127.77799987792969 6,127.77799987792969 6,127.77799987792969 C6,127.77799987792969 -6,127.77799987792969 -6,127.77799987792969z"></path></g></g></g></g><g mask="url(#__lottie_element_46_1)" style="display: block;"><g transform="matrix(1,0,0,1,918,815.5)" opacity="0.8"><g opacity="1" transform="matrix(1,0,0,1,0,0)"><path fill="rgb(255,255,255)" fill-opacity="1" d=" M-284,-242 C-284,-242 -536,-92 -536,-92 C-536,-92 -517,-63 -517,-63 C-517,-63 -268,-211 -268,-211 C-268,-211 -284,-242 -284,-242z"></path></g></g></g><g clip-path="url(#__lottie_element_36)" transform="matrix(1,0,0,1,0,0)" opacity="1" style="display: block;"><g mask="url(#__lottie_element_39_2)" style="display: block;"><g transform="matrix(1,0,0,1,0,0)" opacity="1"><g opacity="1" transform="matrix(1,0,0,1,630.2940063476562,828.1110229492188)"><path fill="rgb(132,132,250)" fill-opacity="1" d=" M113.37200164794922,-133.7779998779297 C113.37200164794922,-133.7779998779297 -113.37200164794922,-133.7779998779297 -113.37200164794922,-133.7779998779297 C-113.37200164794922,-133.7779998779297 -113.37200164794922,133.7779998779297 -113.37200164794922,133.7779998779297 C-113.37200164794922,133.7779998779297 113.37200164794922,133.7779998779297 113.37200164794922,133.7779998779297 C113.37200164794922,133.7779998779297 113.37200164794922,-133.7779998779297 113.37200164794922,-133.7779998779297z"></path></g><g opacity="1" transform="matrix(1,0,0,1,630.2940063476562,700.3330078125)"><path fill="rgb(255,255,255)" fill-opacity="1" d=" M101.37200164794922,6 C101.37200164794922,6 -101.37200164794922,6 -101.37200164794922,6 C-101.37200164794922,6 -113.37200164794922,-6 -113.37200164794922,-6 C-113.37200164794922,-6 113.37200164794922,-6 113.37200164794922,-6 C113.37200164794922,-6 101.37200164794922,6 101.37200164794922,6z"></path><path stroke-linecap="round" stroke-linejoin="round" fill-opacity="0" stroke="rgb(32,40,112)" stroke-opacity="1" stroke-width="2" d=" M101.37200164794922,6 C101.37200164794922,6 -101.37200164794922,6 -101.37200164794922,6 C-101.37200164794922,6 -113.37200164794922,-6 -113.37200164794922,-6 C-113.37200164794922,-6 113.37200164794922,-6 113.37200164794922,-6 C113.37200164794922,-6 101.37200164794922,6 101.37200164794922,6z"></path></g><g opacity="1" transform="matrix(1,0,0,1,737.6669921875,828.1110229492188)"><path fill="rgb(255,255,255)" fill-opacity="1" d=" M-6,133.7779998779297 C-6,133.7779998779297 -6,-121.77799987792969 -6,-121.77799987792969 C-6,-121.77799987792969 6,-133.7779998779297 6,-133.7779998779297 C6,-133.7779998779297 6,133.7779998779297 6,133.7779998779297 C6,133.7779998779297 -6,133.7779998779297 -6,133.7779998779297z"></path><path stroke-linecap="round" stroke-linejoin="round" fill-opacity="0" stroke="rgb(32,40,112)" stroke-opacity="1" stroke-width="2" d=" M-6,133.7779998779297 C-6,133.7779998779297 -6,-121.77799987792969 -6,-121.77799987792969 C-6,-121.77799987792969 6,-133.7779998779297 6,-133.7779998779297 C6,-133.7779998779297 6,133.7779998779297 6,133.7779998779297 C6,133.7779998779297 -6,133.7779998779297 -6,133.7779998779297z"></path></g><g opacity="1" transform="matrix(1,0,0,1,630.2940063476562,834.1110229492188)"><path fill="rgb(255,255,255)" fill-opacity="1" d=" M-6,127.77799987792969 C-6,127.77799987792969 -6,-127.77799987792969 -6,-127.77799987792969 C-6,-127.77799987792969 6,-127.77799987792969 6,-127.77799987792969 C6,-127.77799987792969 6,127.77799987792969 6,127.77799987792969 C6,127.77799987792969 -6,127.77799987792969 -6,127.77799987792969z"></path><path stroke-linecap="round" stroke-linejoin="round" fill-opacity="0" stroke="rgb(32,40,112)" stroke-opacity="1" stroke-width="2" d=" M-6,127.77799987792969 C-6,127.77799987792969 -6,-127.77799987792969 -6,-127.77799987792969 C-6,-127.77799987792969 6,-127.77799987792969 6,-127.77799987792969 C6,-127.77799987792969 6,127.77799987792969 6,127.77799987792969 C6,127.77799987792969 -6,127.77799987792969 -6,127.77799987792969z"></path></g></g></g></g><g mask="url(#__lottie_element_21_1)" style="display: block;"><g transform="matrix(1,0,0,1,1053,801.5)" opacity="0.8"><g opacity="1" transform="matrix(1,0,0,1,0,0)"><path fill="rgb(255,255,255)" fill-opacity="1" d=" M-284,-242 C-284,-242 -536,-92 -536,-92 C-536,-92 -517,-63 -517,-63 C-517,-63 -268,-211 -268,-211 C-268,-211 -284,-242 -284,-242z"></path></g></g></g><g transform="matrix(1,0,0,1,1023.8839721679688,1237.5)" opacity="1" style="display: block;"><g opacity="1" transform="matrix(1,0,0,1,0,0)"><path fill="rgb(32,40,112)" fill-opacity="1" d=" M72.18099975585938,132.5 C72.18099975585938,132.5 -63.930999755859375,132.5 -63.930999755859375,132.5 C-63.930999755859375,132.5 -63.930999755859375,-132.5 -63.930999755859375,-132.5 C-63.930999755859375,-132.5 72.18099975585938,-132.5 72.18099975585938,-132.5 C72.18099975585938,-132.5 72.18099975585938,132.5 72.18099975585938,132.5z"></path></g></g><g mask="url(#__lottie_element_12_2)" style="display: block;"><g transform="matrix(1,0,0,1,0,0)" opacity="1"><g opacity="1" transform="matrix(1,0,0,1,1024.1109619140625,1237.5)"><path fill="rgb(255,255,255)" fill-opacity="1" d=" M-5.0370001792907715,132.5 C-5.0370001792907715,132.5 -5.0370001792907715,-132.5 -5.0370001792907715,-132.5 C-5.0370001792907715,-132.5 5.0370001792907715,-132.5 5.0370001792907715,-132.5 C5.0370001792907715,-132.5 5.0370001792907715,132.5 5.0370001792907715,132.5"></path><path stroke-linecap="round" stroke-linejoin="round" fill-opacity="0" stroke="rgb(32,40,112)" stroke-opacity="1" stroke-width="2" d=" M-5.0370001792907715,132.5 C-5.0370001792907715,132.5 -5.0370001792907715,-132.5 -5.0370001792907715,-132.5 C-5.0370001792907715,-132.5 5.0370001792907715,-132.5 5.0370001792907715,-132.5 C5.0370001792907715,-132.5 5.0370001792907715,132.5 5.0370001792907715,132.5"></path></g><g opacity="1" transform="matrix(1,0,0,1,955.3699951171875,1237.5)"><path fill="rgb(255,255,255)" fill-opacity="1" d=" M-5.0370001792907715,132.5 C-5.0370001792907715,132.5 -5.0370001792907715,-132.5 -5.0370001792907715,-132.5 C-5.0370001792907715,-132.5 5.0370001792907715,-132.5 5.0370001792907715,-132.5 C5.0370001792907715,-132.5 5.0370001792907715,132.5 5.0370001792907715,132.5"></path><path stroke-linecap="round" stroke-linejoin="round" fill-opacity="0" stroke="rgb(32,40,112)" stroke-opacity="1" stroke-width="2" d=" M-5.0370001792907715,132.5 C-5.0370001792907715,132.5 -5.0370001792907715,-132.5 -5.0370001792907715,-132.5 C-5.0370001792907715,-132.5 5.0370001792907715,-132.5 5.0370001792907715,-132.5 C5.0370001792907715,-132.5 5.0370001792907715,132.5 5.0370001792907715,132.5"></path></g><g opacity="1" transform="matrix(1,0,0,1,1092.85205078125,1237.5)"><path fill="rgb(255,255,255)" fill-opacity="1" d=" M-5.0370001792907715,132.5 C-5.0370001792907715,132.5 -5.0370001792907715,-132.5 -5.0370001792907715,-132.5 C-5.0370001792907715,-132.5 5.0370001792907715,-132.5 5.0370001792907715,-132.5 C5.0370001792907715,-132.5 5.0370001792907715,132.5 5.0370001792907715,132.5"></path><path stroke-linecap="round" stroke-linejoin="round" fill-opacity="0" stroke="rgb(32,40,112)" stroke-opacity="1" stroke-width="2" d=" M-5.0370001792907715,132.5 C-5.0370001792907715,132.5 -5.0370001792907715,-132.5 -5.0370001792907715,-132.5 C-5.0370001792907715,-132.5 5.0370001792907715,-132.5 5.0370001792907715,-132.5 C5.0370001792907715,-132.5 5.0370001792907715,132.5 5.0370001792907715,132.5"></path></g><g opacity="1" transform="matrix(1,0,0,1,1024.1109619140625,1099.9630126953125)"><path fill="rgb(255,255,255)" fill-opacity="1" d=" M73.77799987792969,5.0370001792907715 C73.77799987792969,5.0370001792907715 -73.77799987792969,5.0370001792907715 -73.77799987792969,5.0370001792907715 C-73.77799987792969,5.0370001792907715 -73.77799987792969,-5.0370001792907715 -73.77799987792969,-5.0370001792907715 C-73.77799987792969,-5.0370001792907715 73.77799987792969,-5.0370001792907715 73.77799987792969,-5.0370001792907715 C73.77799987792969,-5.0370001792907715 73.77799987792969,5.0370001792907715 73.77799987792969,5.0370001792907715z"></path><path stroke-linecap="round" stroke-linejoin="round" fill-opacity="0" stroke="rgb(32,40,112)" stroke-opacity="1" stroke-width="2" d=" M73.77799987792969,5.0370001792907715 C73.77799987792969,5.0370001792907715 -73.77799987792969,5.0370001792907715 -73.77799987792969,5.0370001792907715 C-73.77799987792969,5.0370001792907715 -73.77799987792969,-5.0370001792907715 -73.77799987792969,-5.0370001792907715 C-73.77799987792969,-5.0370001792907715 73.77799987792969,-5.0370001792907715 73.77799987792969,-5.0370001792907715 C73.77799987792969,-5.0370001792907715 73.77799987792969,5.0370001792907715 73.77799987792969,5.0370001792907715z"></path></g></g></g><g mask="url(#__lottie_element_6_2)" style="display: block;"><g transform="matrix(1,0,0,1,0,0)" opacity="1"><g opacity="1" transform="matrix(1,0,0,1,1024.1109619140625,1237.5)"><path fill="rgb(255,255,255)" fill-opacity="1" d=" M-5.0370001792907715,132.5 C-5.0370001792907715,132.5 -5.0370001792907715,-132.5 -5.0370001792907715,-132.5 C-5.0370001792907715,-132.5 5.0370001792907715,-132.5 5.0370001792907715,-132.5 C5.0370001792907715,-132.5 5.0370001792907715,132.5 5.0370001792907715,132.5"></path><path stroke-linecap="round" stroke-linejoin="round" fill-opacity="0" stroke="rgb(32,40,112)" stroke-opacity="1" stroke-width="2" d=" M-5.0370001792907715,132.5 C-5.0370001792907715,132.5 -5.0370001792907715,-132.5 -5.0370001792907715,-132.5 C-5.0370001792907715,-132.5 5.0370001792907715,-132.5 5.0370001792907715,-132.5 C5.0370001792907715,-132.5 5.0370001792907715,132.5 5.0370001792907715,132.5"></path></g><g opacity="1" transform="matrix(1,0,0,1,955.3699951171875,1237.5)"><path fill="rgb(255,255,255)" fill-opacity="1" d=" M-5.0370001792907715,132.5 C-5.0370001792907715,132.5 -5.0370001792907715,-132.5 -5.0370001792907715,-132.5 C-5.0370001792907715,-132.5 5.0370001792907715,-132.5 5.0370001792907715,-132.5 C5.0370001792907715,-132.5 5.0370001792907715,132.5 5.0370001792907715,132.5"></path><path stroke-linecap="round" stroke-linejoin="round" fill-opacity="0" stroke="rgb(32,40,112)" stroke-opacity="1" stroke-width="2" d=" M-5.0370001792907715,132.5 C-5.0370001792907715,132.5 -5.0370001792907715,-132.5 -5.0370001792907715,-132.5 C-5.0370001792907715,-132.5 5.0370001792907715,-132.5 5.0370001792907715,-132.5 C5.0370001792907715,-132.5 5.0370001792907715,132.5 5.0370001792907715,132.5"></path></g><g opacity="1" transform="matrix(1,0,0,1,1092.85205078125,1237.5)"><path fill="rgb(255,255,255)" fill-opacity="1" d=" M-5.0370001792907715,132.5 C-5.0370001792907715,132.5 -5.0370001792907715,-132.5 -5.0370001792907715,-132.5 C-5.0370001792907715,-132.5 5.0370001792907715,-132.5 5.0370001792907715,-132.5 C5.0370001792907715,-132.5 5.0370001792907715,132.5 5.0370001792907715,132.5"></path><path stroke-linecap="round" stroke-linejoin="round" fill-opacity="0" stroke="rgb(32,40,112)" stroke-opacity="1" stroke-width="2" d=" M-5.0370001792907715,132.5 C-5.0370001792907715,132.5 -5.0370001792907715,-132.5 -5.0370001792907715,-132.5 C-5.0370001792907715,-132.5 5.0370001792907715,-132.5 5.0370001792907715,-132.5 C5.0370001792907715,-132.5 5.0370001792907715,132.5 5.0370001792907715,132.5"></path></g><g opacity="1" transform="matrix(1,0,0,1,1024.1109619140625,1099.9630126953125)"><path fill="rgb(255,255,255)" fill-opacity="1" d=" M73.77799987792969,5.0370001792907715 C73.77799987792969,5.0370001792907715 -73.77799987792969,5.0370001792907715 -73.77799987792969,5.0370001792907715 C-73.77799987792969,5.0370001792907715 -73.77799987792969,-5.0370001792907715 -73.77799987792969,-5.0370001792907715 C-73.77799987792969,-5.0370001792907715 73.77799987792969,-5.0370001792907715 73.77799987792969,-5.0370001792907715 C73.77799987792969,-5.0370001792907715 73.77799987792969,5.0370001792907715 73.77799987792969,5.0370001792907715z"></path><path stroke-linecap="round" stroke-linejoin="round" fill-opacity="0" stroke="rgb(32,40,112)" stroke-opacity="1" stroke-width="2" d=" M73.77799987792969,5.0370001792907715 C73.77799987792969,5.0370001792907715 -73.77799987792969,5.0370001792907715 -73.77799987792969,5.0370001792907715 C-73.77799987792969,5.0370001792907715 -73.77799987792969,-5.0370001792907715 -73.77799987792969,-5.0370001792907715 C-73.77799987792969,-5.0370001792907715 73.77799987792969,-5.0370001792907715 73.77799987792969,-5.0370001792907715 C73.77799987792969,-5.0370001792907715 73.77799987792969,5.0370001792907715 73.77799987792969,5.0370001792907715z"></path></g></g></g><g transform="matrix(1,0,0,1,0,0)" opacity="1" style="display: block;"><g opacity="1" transform="matrix(1,0,0,1,0,0)"><g opacity="1" transform="matrix(1,0,0,1,0,0)"><g opacity="1" transform="matrix(1,0,0,1,630.2940063476562,877.1669921875)"><path fill="rgb(255,255,255)" fill-opacity="1" d=" M328.4440002441406,11.833000183105469 C328.4440002441406,11.833000183105469 -328.4440002441406,11.833000183105469 -328.4440002441406,11.833000183105469 C-328.4440002441406,11.833000183105469 -328.4440002441406,-11.833000183105469 -328.4440002441406,-11.833000183105469 C-328.4440002441406,-11.833000183105469 328.4440002441406,-11.833000183105469 328.4440002441406,-11.833000183105469 C328.4440002441406,-11.833000183105469 328.4440002441406,11.833000183105469 328.4440002441406,11.833000183105469z"></path><path stroke-linecap="butt" stroke-linejoin="miter" fill-opacity="0" stroke-miterlimit="10" stroke="rgb(32,40,112)" stroke-opacity="1" stroke-width="2" d=" M328.4440002441406,11.833000183105469 C328.4440002441406,11.833000183105469 -328.4440002441406,11.833000183105469 -328.4440002441406,11.833000183105469 C-328.4440002441406,11.833000183105469 -328.4440002441406,-11.833000183105469 -328.4440002441406,-11.833000183105469 C-328.4440002441406,-11.833000183105469 328.4440002441406,-11.833000183105469 328.4440002441406,-11.833000183105469 C328.4440002441406,-11.833000183105469 328.4440002441406,11.833000183105469 328.4440002441406,11.833000183105469z"></path></g><g opacity="1" transform="matrix(1,0,0,1,0,0)"><g opacity="1" transform="matrix(1,0,0,1,347.1830139160156,925.4439697265625)"><path fill="rgb(255,255,255)" fill-opacity="1" d=" M-11.833000183105469,36.444000244140625 C-11.833000183105469,36.444000244140625 -11.833000183105469,-36.444000244140625 -11.833000183105469,-36.444000244140625 C-11.833000183105469,-36.444000244140625 11.833000183105469,-36.444000244140625 11.833000183105469,-36.444000244140625 C11.833000183105469,-36.444000244140625 11.833000183105469,36.444000244140625 11.833000183105469,36.444000244140625 C11.833000183105469,36.444000244140625 -11.833000183105469,36.444000244140625 -11.833000183105469,36.444000244140625z"></path><path stroke-linecap="butt" stroke-linejoin="miter" fill-opacity="0" stroke-miterlimit="10" stroke="rgb(32,40,112)" stroke-opacity="1" stroke-width="2" d=" M-11.833000183105469,36.444000244140625 C-11.833000183105469,36.444000244140625 -11.833000183105469,-36.444000244140625 -11.833000183105469,-36.444000244140625 C-11.833000183105469,-36.444000244140625 11.833000183105469,-36.444000244140625 11.833000183105469,-36.444000244140625 C11.833000183105469,-36.444000244140625 11.833000183105469,36.444000244140625 11.833000183105469,36.444000244140625 C11.833000183105469,36.444000244140625 -11.833000183105469,36.444000244140625 -11.833000183105469,36.444000244140625z"></path></g><g opacity="1" transform="matrix(1,0,0,1,428.0719909667969,925.4439697265625)"><path fill="rgb(255,255,255)" fill-opacity="1" d=" M-11.833000183105469,36.444000244140625 C-11.833000183105469,36.444000244140625 -11.833000183105469,-36.444000244140625 -11.833000183105469,-36.444000244140625 C-11.833000183105469,-36.444000244140625 11.833000183105469,-36.444000244140625 11.833000183105469,-36.444000244140625 C11.833000183105469,-36.444000244140625 11.833000183105469,36.444000244140625 11.833000183105469,36.444000244140625 C11.833000183105469,36.444000244140625 -11.833000183105469,36.444000244140625 -11.833000183105469,36.444000244140625z"></path><path stroke-linecap="butt" stroke-linejoin="miter" fill-opacity="0" stroke-miterlimit="10" stroke="rgb(32,40,112)" stroke-opacity="1" stroke-width="2" d=" M-11.833000183105469,36.444000244140625 C-11.833000183105469,36.444000244140625 -11.833000183105469,-36.444000244140625 -11.833000183105469,-36.444000244140625 C-11.833000183105469,-36.444000244140625 11.833000183105469,-36.444000244140625 11.833000183105469,-36.444000244140625 C11.833000183105469,-36.444000244140625 11.833000183105469,36.444000244140625 11.833000183105469,36.444000244140625 C11.833000183105469,36.444000244140625 -11.833000183105469,36.444000244140625 -11.833000183105469,36.444000244140625z"></path></g><g opacity="1" transform="matrix(1,0,0,1,508.96099853515625,925.4439697265625)"><path fill="rgb(255,255,255)" fill-opacity="1" d=" M-11.833000183105469,36.444000244140625 C-11.833000183105469,36.444000244140625 -11.833000183105469,-36.444000244140625 -11.833000183105469,-36.444000244140625 C-11.833000183105469,-36.444000244140625 11.833000183105469,-36.444000244140625 11.833000183105469,-36.444000244140625 C11.833000183105469,-36.444000244140625 11.833000183105469,36.444000244140625 11.833000183105469,36.444000244140625 C11.833000183105469,36.444000244140625 -11.833000183105469,36.444000244140625 -11.833000183105469,36.444000244140625z"></path><path stroke-linecap="butt" stroke-linejoin="miter" fill-opacity="0" stroke-miterlimit="10" stroke="rgb(32,40,112)" stroke-opacity="1" stroke-width="2" d=" M-11.833000183105469,36.444000244140625 C-11.833000183105469,36.444000244140625 -11.833000183105469,-36.444000244140625 -11.833000183105469,-36.444000244140625 C-11.833000183105469,-36.444000244140625 11.833000183105469,-36.444000244140625 11.833000183105469,-36.444000244140625 C11.833000183105469,-36.444000244140625 11.833000183105469,36.444000244140625 11.833000183105469,36.444000244140625 C11.833000183105469,36.444000244140625 -11.833000183105469,36.444000244140625 -11.833000183105469,36.444000244140625z"></path></g><g opacity="1" transform="matrix(1,0,0,1,589.8499755859375,925.4439697265625)"><path fill="rgb(255,255,255)" fill-opacity="1" d=" M-11.833000183105469,36.444000244140625 C-11.833000183105469,36.444000244140625 -11.833000183105469,-36.444000244140625 -11.833000183105469,-36.444000244140625 C-11.833000183105469,-36.444000244140625 11.833000183105469,-36.444000244140625 11.833000183105469,-36.444000244140625 C11.833000183105469,-36.444000244140625 11.833000183105469,36.444000244140625 11.833000183105469,36.444000244140625 C11.833000183105469,36.444000244140625 -11.833000183105469,36.444000244140625 -11.833000183105469,36.444000244140625z"></path><path stroke-linecap="butt" stroke-linejoin="miter" fill-opacity="0" stroke-miterlimit="10" stroke="rgb(32,40,112)" stroke-opacity="1" stroke-width="2" d=" M-11.833000183105469,36.444000244140625 C-11.833000183105469,36.444000244140625 -11.833000183105469,-36.444000244140625 -11.833000183105469,-36.444000244140625 C-11.833000183105469,-36.444000244140625 11.833000183105469,-36.444000244140625 11.833000183105469,-36.444000244140625 C11.833000183105469,-36.444000244140625 11.833000183105469,36.444000244140625 11.833000183105469,36.444000244140625 C11.833000183105469,36.444000244140625 -11.833000183105469,36.444000244140625 -11.833000183105469,36.444000244140625z"></path></g><g opacity="1" transform="matrix(1,0,0,1,670.739013671875,925.4439697265625)"><path fill="rgb(255,255,255)" fill-opacity="1" d=" M-11.833000183105469,36.444000244140625 C-11.833000183105469,36.444000244140625 -11.833000183105469,-36.444000244140625 -11.833000183105469,-36.444000244140625 C-11.833000183105469,-36.444000244140625 11.833000183105469,-36.444000244140625 11.833000183105469,-36.444000244140625 C11.833000183105469,-36.444000244140625 11.833000183105469,36.444000244140625 11.833000183105469,36.444000244140625 C11.833000183105469,36.444000244140625 -11.833000183105469,36.444000244140625 -11.833000183105469,36.444000244140625z"></path><path stroke-linecap="butt" stroke-linejoin="miter" fill-opacity="0" stroke-miterlimit="10" stroke="rgb(32,40,112)" stroke-opacity="1" stroke-width="2" d=" M-11.833000183105469,36.444000244140625 C-11.833000183105469,36.444000244140625 -11.833000183105469,-36.444000244140625 -11.833000183105469,-36.444000244140625 C-11.833000183105469,-36.444000244140625 11.833000183105469,-36.444000244140625 11.833000183105469,-36.444000244140625 C11.833000183105469,-36.444000244140625 11.833000183105469,36.444000244140625 11.833000183105469,36.444000244140625 C11.833000183105469,36.444000244140625 -11.833000183105469,36.444000244140625 -11.833000183105469,36.444000244140625z"></path></g><g opacity="1" transform="matrix(1,0,0,1,751.6279907226562,925.4439697265625)"><path fill="rgb(255,255,255)" fill-opacity="1" d=" M-11.833000183105469,36.444000244140625 C-11.833000183105469,36.444000244140625 -11.833000183105469,-36.444000244140625 -11.833000183105469,-36.444000244140625 C-11.833000183105469,-36.444000244140625 11.833000183105469,-36.444000244140625 11.833000183105469,-36.444000244140625 C11.833000183105469,-36.444000244140625 11.833000183105469,36.444000244140625 11.833000183105469,36.444000244140625 C11.833000183105469,36.444000244140625 -11.833000183105469,36.444000244140625 -11.833000183105469,36.444000244140625z"></path><path stroke-linecap="butt" stroke-linejoin="miter" fill-opacity="0" stroke-miterlimit="10" stroke="rgb(32,40,112)" stroke-opacity="1" stroke-width="2" d=" M-11.833000183105469,36.444000244140625 C-11.833000183105469,36.444000244140625 -11.833000183105469,-36.444000244140625 -11.833000183105469,-36.444000244140625 C-11.833000183105469,-36.444000244140625 11.833000183105469,-36.444000244140625 11.833000183105469,-36.444000244140625 C11.833000183105469,-36.444000244140625 11.833000183105469,36.444000244140625 11.833000183105469,36.444000244140625 C11.833000183105469,36.444000244140625 -11.833000183105469,36.444000244140625 -11.833000183105469,36.444000244140625z"></path></g><g opacity="1" transform="matrix(1,0,0,1,832.5170288085938,925.4439697265625)"><path fill="rgb(255,255,255)" fill-opacity="1" d=" M-11.833000183105469,36.444000244140625 C-11.833000183105469,36.444000244140625 -11.833000183105469,-36.444000244140625 -11.833000183105469,-36.444000244140625 C-11.833000183105469,-36.444000244140625 11.833000183105469,-36.444000244140625 11.833000183105469,-36.444000244140625 C11.833000183105469,-36.444000244140625 11.833000183105469,36.444000244140625 11.833000183105469,36.444000244140625 C11.833000183105469,36.444000244140625 -11.833000183105469,36.444000244140625 -11.833000183105469,36.444000244140625z"></path><path stroke-linecap="butt" stroke-linejoin="miter" fill-opacity="0" stroke-miterlimit="10" stroke="rgb(32,40,112)" stroke-opacity="1" stroke-width="2" d=" M-11.833000183105469,36.444000244140625 C-11.833000183105469,36.444000244140625 -11.833000183105469,-36.444000244140625 -11.833000183105469,-36.444000244140625 C-11.833000183105469,-36.444000244140625 11.833000183105469,-36.444000244140625 11.833000183105469,-36.444000244140625 C11.833000183105469,-36.444000244140625 11.833000183105469,36.444000244140625 11.833000183105469,36.444000244140625 C11.833000183105469,36.444000244140625 -11.833000183105469,36.444000244140625 -11.833000183105469,36.444000244140625z"></path></g><g opacity="1" transform="matrix(1,0,0,1,913.406005859375,925.4439697265625)"><path fill="rgb(255,255,255)" fill-opacity="1" d=" M-11.833000183105469,36.444000244140625 C-11.833000183105469,36.444000244140625 -11.833000183105469,-36.444000244140625 -11.833000183105469,-36.444000244140625 C-11.833000183105469,-36.444000244140625 11.833000183105469,-36.444000244140625 11.833000183105469,-36.444000244140625 C11.833000183105469,-36.444000244140625 11.833000183105469,36.444000244140625 11.833000183105469,36.444000244140625 C11.833000183105469,36.444000244140625 -11.833000183105469,36.444000244140625 -11.833000183105469,36.444000244140625z"></path><path stroke-linecap="butt" stroke-linejoin="miter" fill-opacity="0" stroke-miterlimit="10" stroke="rgb(32,40,112)" stroke-opacity="1" stroke-width="2" d=" M-11.833000183105469,36.444000244140625 C-11.833000183105469,36.444000244140625 -11.833000183105469,-36.444000244140625 -11.833000183105469,-36.444000244140625 C-11.833000183105469,-36.444000244140625 11.833000183105469,-36.444000244140625 11.833000183105469,-36.444000244140625 C11.833000183105469,-36.444000244140625 11.833000183105469,36.444000244140625 11.833000183105469,36.444000244140625 C11.833000183105469,36.444000244140625 -11.833000183105469,36.444000244140625 -11.833000183105469,36.444000244140625z"></path></g></g></g><g opacity="1" transform="matrix(1,0,0,1,630.2940063476562,975.2219848632812)"><path fill="rgb(255,255,255)" fill-opacity="1" d=" M320.03900146484375,13.333000183105469 C320.03900146484375,13.333000183105469 -320.03900146484375,13.333000183105469 -320.03900146484375,13.333000183105469 C-320.03900146484375,13.333000183105469 -320.03900146484375,-13.333000183105469 -320.03900146484375,-13.333000183105469 C-320.03900146484375,-13.333000183105469 320.03900146484375,-13.333000183105469 320.03900146484375,-13.333000183105469 C320.03900146484375,-13.333000183105469 320.03900146484375,13.333000183105469 320.03900146484375,13.333000183105469z"></path><path stroke-linecap="butt" stroke-linejoin="miter" fill-opacity="0" stroke-miterlimit="10" stroke="rgb(32,40,112)" stroke-opacity="1" stroke-width="2" d=" M320.03900146484375,13.333000183105469 C320.03900146484375,13.333000183105469 -320.03900146484375,13.333000183105469 -320.03900146484375,13.333000183105469 C-320.03900146484375,13.333000183105469 -320.03900146484375,-13.333000183105469 -320.03900146484375,-13.333000183105469 C-320.03900146484375,-13.333000183105469 320.03900146484375,-13.333000183105469 320.03900146484375,-13.333000183105469 C320.03900146484375,-13.333000183105469 320.03900146484375,13.333000183105469 320.03900146484375,13.333000183105469z"></path></g></g><g opacity="1" transform="matrix(1,0,0,1,0,0)"><g opacity="1" transform="matrix(1,0,0,1,395.22198486328125,1313.47802734375)"><path fill="rgb(132,132,250)" fill-opacity="1" d=" M107.11100006103516,-56.52199935913086 C107.11100006103516,-56.52199935913086 -107.11100006103516,-56.52199935913086 -107.11100006103516,-56.52199935913086 C-107.11100006103516,-56.52199935913086 -107.11100006103516,56.52199935913086 -107.11100006103516,56.52199935913086 C-107.11100006103516,56.52199935913086 107.11100006103516,56.52199935913086 107.11100006103516,56.52199935913086 C107.11100006103516,56.52199935913086 107.11100006103516,-56.52199935913086 107.11100006103516,-56.52199935913086z"></path><path stroke-linecap="butt" stroke-linejoin="miter" fill-opacity="0" stroke-miterlimit="10" stroke="rgb(32,40,112)" stroke-opacity="1" stroke-width="2" d=" M107.11100006103516,-56.52199935913086 C107.11100006103516,-56.52199935913086 -107.11100006103516,-56.52199935913086 -107.11100006103516,-56.52199935913086 C-107.11100006103516,-56.52199935913086 -107.11100006103516,56.52199935913086 -107.11100006103516,56.52199935913086 C-107.11100006103516,56.52199935913086 107.11100006103516,56.52199935913086 107.11100006103516,56.52199935913086 C107.11100006103516,56.52199935913086 107.11100006103516,-56.52199935913086 107.11100006103516,-56.52199935913086z"></path></g><g opacity="1" transform="matrix(1,0,0,1,865.3250122070312,1313.47802734375)"><path fill="rgb(132,132,250)" fill-opacity="1" d=" M-107.11100006103516,-56.52199935913086 C-107.11100006103516,-56.52199935913086 107.11100006103516,-56.52199935913086 107.11100006103516,-56.52199935913086 C107.11100006103516,-56.52199935913086 107.11100006103516,56.52199935913086 107.11100006103516,56.52199935913086 C107.11100006103516,56.52199935913086 -107.11100006103516,56.52199935913086 -107.11100006103516,56.52199935913086 C-107.11100006103516,56.52199935913086 -107.11100006103516,-56.52199935913086 -107.11100006103516,-56.52199935913086z"></path><path stroke-linecap="butt" stroke-linejoin="miter" fill-opacity="0" stroke-miterlimit="10" stroke="rgb(32,40,112)" stroke-opacity="1" stroke-width="2" d=" M-107.11100006103516,-56.52199935913086 C-107.11100006103516,-56.52199935913086 107.11100006103516,-56.52199935913086 107.11100006103516,-56.52199935913086 C107.11100006103516,-56.52199935913086 107.11100006103516,56.52199935913086 107.11100006103516,56.52199935913086 C107.11100006103516,56.52199935913086 -107.11100006103516,56.52199935913086 -107.11100006103516,56.52199935913086 C-107.11100006103516,56.52199935913086 -107.11100006103516,-56.52199935913086 -107.11100006103516,-56.52199935913086z"></path></g><g opacity="1" transform="matrix(1,0,0,1,0,0)"><g opacity="1" transform="matrix(1,0,0,1,630.2730102539062,1279.7740478515625)"><path fill="rgb(255,255,255)" fill-opacity="1" d=" M127.94000244140625,9.480999946594238 C127.94000244140625,9.480999946594238 -127.94000244140625,9.480999946594238 -127.94000244140625,9.480999946594238 C-127.94000244140625,9.480999946594238 -127.94000244140625,-9.480999946594238 -127.94000244140625,-9.480999946594238 C-127.94000244140625,-9.480999946594238 127.94000244140625,-9.480999946594238 127.94000244140625,-9.480999946594238 C127.94000244140625,-9.480999946594238 127.94000244140625,9.480999946594238 127.94000244140625,9.480999946594238z"></path><path stroke-linecap="butt" stroke-linejoin="miter" fill-opacity="0" stroke-miterlimit="10" stroke="rgb(32,40,112)" stroke-opacity="1" stroke-width="2" d=" M127.94000244140625,9.480999946594238 C127.94000244140625,9.480999946594238 -127.94000244140625,9.480999946594238 -127.94000244140625,9.480999946594238 C-127.94000244140625,9.480999946594238 -127.94000244140625,-9.480999946594238 -127.94000244140625,-9.480999946594238 C-127.94000244140625,-9.480999946594238 127.94000244140625,-9.480999946594238 127.94000244140625,-9.480999946594238 C127.94000244140625,-9.480999946594238 127.94000244140625,9.480999946594238 127.94000244140625,9.480999946594238z"></path></g><g opacity="1" transform="matrix(1,0,0,1,630.2730102539062,1337.1820068359375)"><path fill="rgb(255,255,255)" fill-opacity="1" d=" M127.94000244140625,9.480999946594238 C127.94000244140625,9.480999946594238 -127.94000244140625,9.480999946594238 -127.94000244140625,9.480999946594238 C-127.94000244140625,9.480999946594238 -127.94000244140625,-9.480999946594238 -127.94000244140625,-9.480999946594238 C-127.94000244140625,-9.480999946594238 127.94000244140625,-9.480999946594238 127.94000244140625,-9.480999946594238 C127.94000244140625,-9.480999946594238 127.94000244140625,9.480999946594238 127.94000244140625,9.480999946594238z"></path><path stroke-linecap="butt" stroke-linejoin="miter" fill-opacity="0" stroke-miterlimit="10" stroke="rgb(32,40,112)" stroke-opacity="1" stroke-width="2" d=" M127.94000244140625,9.480999946594238 C127.94000244140625,9.480999946594238 -127.94000244140625,9.480999946594238 -127.94000244140625,9.480999946594238 C-127.94000244140625,9.480999946594238 -127.94000244140625,-9.480999946594238 -127.94000244140625,-9.480999946594238 C-127.94000244140625,-9.480999946594238 127.94000244140625,-9.480999946594238 127.94000244140625,-9.480999946594238 C127.94000244140625,-9.480999946594238 127.94000244140625,9.480999946594238 127.94000244140625,9.480999946594238z"></path></g><g opacity="1" transform="matrix(1,0,0,1,630.2730102539062,1313.47802734375)"><path fill="rgb(255,255,255)" fill-opacity="1" d=" M-9.480999946594238,56.52199935913086 C-9.480999946594238,56.52199935913086 -9.480999946594238,-56.52199935913086 -9.480999946594238,-56.52199935913086 C-9.480999946594238,-56.52199935913086 9.480999946594238,-56.52199935913086 9.480999946594238,-56.52199935913086 C9.480999946594238,-56.52199935913086 9.480999946594238,56.52199935913086 9.480999946594238,56.52199935913086 C9.480999946594238,56.52199935913086 -9.480999946594238,56.52199935913086 -9.480999946594238,56.52199935913086z"></path><path stroke-linecap="butt" stroke-linejoin="miter" fill-opacity="0" stroke-miterlimit="10" stroke="rgb(32,40,112)" stroke-opacity="1" stroke-width="2" d=" M-9.480999946594238,56.52199935913086 C-9.480999946594238,56.52199935913086 -9.480999946594238,-56.52199935913086 -9.480999946594238,-56.52199935913086 C-9.480999946594238,-56.52199935913086 9.480999946594238,-56.52199935913086 9.480999946594238,-56.52199935913086 C9.480999946594238,-56.52199935913086 9.480999946594238,56.52199935913086 9.480999946594238,56.52199935913086 C9.480999946594238,56.52199935913086 -9.480999946594238,56.52199935913086 -9.480999946594238,56.52199935913086z"></path></g></g></g></g></g></svg>